<?xml version="1.0" encoding="UTF-8"?>
<svg width="22px" height="22px" viewBox="0 0 22 22" version="1.1" xmlns="http://www.w3.org/2000/svg" xmlns:xlink="http://www.w3.org/1999/xlink">
    <!-- Generator: sketchtool 52 (66869) - http://www.bohemiancoding.com/sketch -->
    <title>B4814792-1500-4A58-925E-FDC644B9ADAE</title>
    <desc>Created with sketchtool.</desc>
    <g id="Вариант-3" stroke="none" stroke-width="1" fill="none" fill-rule="evenodd" opacity="0.5">
        <g id="Гитстра_Обратный-звонок" transform="translate(-1071.000000, -229.000000)" fill="#FFFFFF" fill-rule="nonzero">
            <path d="M1079.8875,240 L1071.43751,231.55001 C1070.85416,230.96666 1070.85416,230.020863 1071.43751,229.437513 C1072.02086,228.854162 1072.96666,228.854162 1073.55001,229.437513 L1082,237.887503 L1090.44999,229.437513 C1091.03334,228.854162 1091.97914,228.854162 1092.56249,229.437513 C1093.14584,230.020863 1093.14584,230.96666 1092.56249,231.55001 L1084.1125,240 L1092.56249,248.44999 C1093.14584,249.03334 1093.14584,249.979137 1092.56249,250.562487 C1091.97914,251.145838 1091.03334,251.145838 1090.44999,250.562487 L1082,242.112497 L1073.55001,250.562487 C1072.96666,251.145838 1072.02086,251.145838 1071.43751,250.562487 C1070.85416,249.979137 1070.85416,249.03334 1071.43751,248.44999 L1079.8875,240 Z" id="Combined-Shape"></path>
        </g>
    </g>
</svg>