<?xml version="1.0" encoding="UTF-8"?>
<svg width="100px" height="95px" viewBox="0 0 100 95" version="1.1" xmlns="http://www.w3.org/2000/svg" xmlns:xlink="http://www.w3.org/1999/xlink">
    <!-- Generator: sketchtool 52 (66869) - http://www.bohemiancoding.com/sketch -->
    <title>CF1CE9BF-A7D5-412B-AA2D-AB561DC87D1D</title>
    <desc>Created with sketchtool.</desc>
    <g id="Вариант-3" stroke="none" stroke-width="1" fill="none" fill-rule="evenodd" opacity="0.5">
        <g id="Гитстра_Главная_Вар4" transform="translate(-767.000000, -1086.000000)" fill="#FFFFFF">
            <g id="Oval-Copy-9" transform="translate(540.000000, 1017.000000)">
                <g id="025-insurance-1" transform="translate(227.000000, 69.000000)">
                    <path d="M89.5011714,54 C89.4021867,54 89.3043733,53.9894558 89.2071456,53.9701246 C89.1110895,53.9502075 89.0167903,53.9220894 88.9265912,53.8845985 C88.8369777,53.8471077 88.7497071,53.8002441 88.6671222,53.746351 C88.5862945,53.6912863 88.5101523,53.6297779 88.4410388,53.5606542 C88.1604843,53.281816 88,52.8946058 88,52.5003661 C88,52.4013669 88.0105428,52.3041249 88.0298712,52.2062973 C88.0497852,52.1108128 88.0778992,52.0159142 88.1153846,51.9262875 C88.1528699,51.8360752 88.1997266,51.7493776 88.253612,51.6667805 C88.3092542,51.5859409 88.3701679,51.5092018 88.4410388,51.4389065 C88.5101523,51.3697828 88.5862945,51.3082744 88.6671222,51.2526239 C88.7497071,51.1987308 88.8369777,51.152453 88.9265912,51.1149622 C89.0167903,51.0774713 89.1110895,51.0487674 89.2071456,51.0294361 C89.4004295,50.990188 89.6001561,50.990188 89.7934401,51.0294361 C89.8894963,51.0487674 89.9837954,51.0774713 90.0734088,51.1149622 C90.163608,51.152453 90.2502929,51.1987308 90.3328778,51.2526239 C90.4137056,51.3082744 90.4904334,51.3697828 90.5607184,51.4389065 C90.6298321,51.5092018 90.6930886,51.5859409 90.7469738,51.6667805 C90.800859,51.7493776 90.8471299,51.8360752 90.8846153,51.9262875 C90.9221006,52.0159142 90.9508005,52.1108128 90.9701288,52.2062973 C90.9894572,52.3041249 91,52.4013669 91,52.5003661 C91,52.8946058 90.8395157,53.2800586 90.5607184,53.5606542 C90.4904334,53.6297779 90.4137056,53.6912863 90.3328778,53.746351 C90.2502929,53.8002441 90.1630222,53.8471077 90.0734088,53.8845985 C89.9837954,53.9220894 89.8889106,53.9502075 89.7928543,53.9701246 C89.6962124,53.9894558 89.5983991,54 89.5011714,54 Z" id="Path"></path>
                    <path d="M82.0371222,54 L32.9628778,54 C31.8786944,54 31,53.3285157 31,52.5 C31,51.6714843 31.8786944,51 32.9628778,51 L82.0371222,51 C83.1213056,51 84,51.6714843 84,52.5 C84,53.3285157 83.1213056,54 82.0371222,54 Z" id="Path"></path>
                    <path d="M73.1229378,63 L34.8770622,63 C33.8402785,63 33,62.3283844 33,61.500293 C33,60.6716155 33.8402785,60 34.8770622,60 L73.1229378,60 C74.1589881,60 75,60.6716155 75,61.500293 C75,62.3283844 74.1589881,63 73.1229378,63 Z" id="Path"></path>
                    <path d="M99.9905834,75.6355922 C99.9967529,75.5719108 99.9905834,75.5082292 99.9905834,75.4430495 L99.9905834,1.91793569 C99.9905834,0.858575805 99.1060393,0 98.0163614,0 L25.9742221,0 C24.8837729,0 24,0.858575805 24,1.91793569 L24,93.0820643 C24,94.1406749 24.8837729,94.9992507 25.9742221,94.9992507 L79.860459,94.9992507 C79.9267806,94.9992507 80.188982,95 80.2545323,95 C80.7689097,95 81.2732616,94.8044605 81.6511402,94.4381047 L99.4121981,77.182677 C99.8378898,76.7691221 100.048422,76.1982366 99.9905834,75.6355922 Z M78.7730946,36.8618249 C77.9008894,33.6957327 74.9225902,31.3574995 71.3913549,31.3574995 C68.1655069,31.3574995 65.3992824,33.3106473 64.2810708,36.0639338 L64.2810708,26.0779319 L78.2178446,26.0771828 C79.471784,26.0771828 80.4912847,27.0683658 80.4912847,28.2858056 L80.4912847,36.8618249 L78.7730946,36.8618249 Z M75.0837671,38.7797606 C75.0837671,40.7576318 73.4272714,42.3668999 71.3913549,42.3668999 C69.3562095,42.3668999 67.6997139,40.7576318 67.6997139,38.7797606 C67.6997139,36.8018894 69.3562095,35.1926217 71.3913549,35.1926217 C73.4280425,35.1926217 75.0837671,36.8018894 75.0837671,38.7797606 Z M64.2810708,22.2420605 L64.2810708,15.0707791 L69.2821762,15.0707791 C71.1360941,15.0707791 72.7578867,16.2245373 73.3169926,17.9424382 L74.7166852,22.2420605 L64.2810708,22.2420605 Z M27.9484441,3.83587139 L60.3333978,3.83587139 L60.3333978,36.8618249 L47.6952919,36.8618249 C46.8230867,33.6957327 43.8447877,31.3574995 40.3143234,31.3574995 C36.7838592,31.3574995 33.8047889,33.6957327 32.9325837,36.8618249 L27.9484441,36.8618249 L27.9484441,3.83587139 Z M44.0059644,38.7797606 C44.0059644,40.7576318 42.3494687,42.3668999 40.3135522,42.3668999 C38.2776357,42.3668999 36.6219112,40.7576318 36.6219112,38.7797606 C36.6219112,36.8018894 38.2776357,35.1926217 40.3135522,35.1926217 C42.3494687,35.1926217 44.0059644,36.8018894 44.0059644,38.7797606 Z M27.9484441,40.6976963 L32.9325837,40.6976963 C33.8047889,43.8637887 36.7838592,46.202022 40.3135522,46.202022 C43.8447877,46.202022 46.8230867,43.8637887 47.6952919,40.6976963 L64.0096152,40.6976963 C64.8825916,43.8637887 67.8608905,46.202022 71.3913549,46.202022 C74.9218191,46.202022 77.9008894,43.8637887 78.7730946,40.6976963 L82.4655068,40.6976963 C82.9891384,40.6976963 83.4904056,40.4954141 83.8613434,40.1358012 C84.23151,39.7761882 84.4389577,39.2884631 84.4389577,38.7797606 L84.4389577,28.2858056 C84.4389577,25.1661633 81.9943155,22.5911846 78.8679498,22.275025 L77.0811245,16.7856832 C76.0007007,13.4660064 72.8666231,11.2356568 69.2821762,11.2356568 L64.2810708,11.2356568 L64.2810708,3.83587139 L96.0421393,3.83587139 L96.0421393,73.9094501 L80.2553034,73.9094501 C79.1648543,73.9094501 78.2810813,74.7680261 78.2810813,75.8266366 L78.2810813,91.1641286 L27.9484441,91.1641286 L27.9484441,40.6976963 Z M82.2287543,88.4520477 L82.2287543,77.7445723 L93.2504659,77.7445723 L82.2287543,88.4520477 Z" id="Shape" fill-rule="nonzero"></path>
                    <path d="M70.0901157,81 L34.9106306,81 C33.8553056,81 33,80.1791901 33,79.1671443 L33,71.8335721 C33,70.8208101 33.8553056,70 34.9106306,70 L70.0901157,70 C71.1446942,70 72,70.8208101 72,71.8335721 L72,79.1671443 C72,80.1791901 71.1446942,81 70.0901157,81 Z M36.8212611,77.3335722 L68.1794852,77.3335722 L68.1794852,73.666428 L36.8212611,73.666428 L36.8212611,77.3335722 Z" id="Shape" fill-rule="nonzero"></path>
                    <path d="M15.111111,2 L11.3866666,2 C8.13925922,2 5.49777785,4.66697006 5.49777785,7.94571296 L5.49777785,12.9730191 L1.89629629,12.9730191 C0.84888879,12.9730191 0,13.8300992 0,14.8876135 L0,47.2068642 C0,48.2636306 0.84888879,49.1207108 1.89629629,49.1207108 C2.94370379,49.1207108 3.79259258,48.2636306 3.79259258,47.2068642 L3.79259258,16.8022079 L5.49777785,16.8022079 L5.49777785,74.1787128 C5.49777785,75.693187 5.68888886,77.2069132 6.06666673,78.6780096 C6.06814812,78.682497 6.06888881,78.6862364 6.07037039,78.6907238 C6.07185178,78.6967069 6.07333335,78.70269 6.07481474,78.7086732 C6.10222229,78.810386 6.13703696,78.9083592 6.17925933,79.0018454 C6.63259247,80.1520977 8.36888876,83.8017933 11.3525926,89.8798827 L11.3525926,92.0854056 C11.3525926,93.1429198 12.2014814,94 13.2488889,94 C14.2962962,94 15.1451852,93.1429198 15.1451852,92.0854056 L15.1451852,89.8798827 C18.128148,83.804037 19.8637036,80.1550893 20.3177776,79.0033411 C20.3622221,78.903872 20.3992592,78.7991676 20.4274073,78.6907238 C20.8074072,77.2158876 21,75.6976742 21,74.1787128 L21,7.94571296 C21,4.66697006 18.3585184,2 15.111111,2 Z M9.28962954,74.1787128 L9.28962954,22.4622276 L17.2081481,22.4622276 L17.2081481,74.1787128 C17.2081481,74.8862153 17.1548148,75.5937177 17.0488888,76.2944891 L9.44888885,76.2944891 C9.34296287,75.5937177 9.28962954,74.8862153 9.28962954,74.1787128 Z M9.28962954,7.94571296 C9.28962954,6.77825916 10.2303704,5.82844095 11.3866666,5.82844095 L15.111111,5.82844095 C16.2674073,5.82844095 17.2081481,6.77825916 17.2081481,7.94571296 L17.2081481,18.6330388 L9.28962954,18.6330388 L9.28962954,7.94571296 Z M13.2488889,85.1053629 C12.3799999,83.3186573 11.5118518,81.5177419 10.8503703,80.1236779 L15.648148,80.1236779 C15.0051851,81.4795998 14.154074,83.2461121 13.2488889,85.1053629 Z" id="Shape" fill-rule="nonzero"></path>
                </g>
            </g>
        </g>
    </g>
</svg>