<?xml version="1.0" encoding="UTF-8"?>
<svg width="78px" height="56px" viewBox="0 0 78 56" version="1.1" xmlns="http://www.w3.org/2000/svg" xmlns:xlink="http://www.w3.org/1999/xlink">
    <!-- Generator: sketchtool 52 (66869) - http://www.bohemiancoding.com/sketch -->
    <title>AED023AC-D1FA-46FD-B07A-E29CB9E7FCDD</title>
    <desc>Created with sketchtool.</desc>
    <g id="Вариант-3" stroke="none" stroke-width="1" fill="none" fill-rule="evenodd" opacity="0.5">
        <g id="Гитстра_Главная_Вар4" transform="translate(-786.000000, -1401.000000)" fill="#FFFFFF">
            <g id="Oval-Copy-14" transform="translate(540.000000, 1369.000000)">
                <g id="001-ambulance" transform="translate(246.000000, 32.000000)">
                    <path d="M43.5024861,36 L10.4975139,36 C9.67037138,36 9,35.2798694 9,34.3927338 L9,7.60726618 C9,6.71950267 9.67037138,6 10.4975139,6 L28.6730039,6 C29.5001462,6 30.1705178,6.71950267 30.1705178,7.60726618 C30.1705178,8.49502969 29.5001462,9.21453236 28.6730039,9.21453236 L11.9950278,9.21453236 L11.9950278,32.7854676 L42.0049722,32.7854676 L42.0049722,9.21453236 L40.2143902,9.21453236 C39.3872477,9.21453236 38.7168763,8.49502969 38.7168763,7.60726618 C38.7168763,6.71950267 39.3872477,6 40.2143902,6 L43.5024861,6 C44.3296286,6 45,6.71950267 45,7.60726618 L45,34.3927338 C45,35.2804972 44.3296286,36 43.5024861,36 Z" id="Path"></path>
                    <path d="M34.499707,9 C34.1052941,9 33.7184998,8.8393981 33.439539,8.56039597 C33.3703848,8.49123169 33.3070912,8.41444749 33.2531744,8.33180199 C33.1992577,8.25091478 33.1529595,8.16416642 33.1154522,8.073901 C33.0779449,7.98246338 33.0492284,7.8880951 33.0298887,7.79196837 C33.009963,7.69584163 33,7.59678425 33,7.49889906 C33,7.40159998 33.009963,7.30254259 33.0298887,7.20641586 C33.0492284,7.11028913 33.0779449,7.01592085 33.1154522,6.92624168 C33.1529595,6.83480391 33.1992577,6.74746929 33.2531744,6.66658224 C33.3070912,6.58393673 33.3703848,6.50715254 33.439539,6.43857436 C33.7870678,6.09040795 34.3063098,5.92980589 34.793905,6.02886343 C34.8900177,6.04703362 34.9831998,6.07692672 35.0746239,6.11443959 C35.164876,6.15195246 35.2516117,6.19825745 35.3324868,6.2521822 C35.4151202,6.30610696 35.4918929,6.36940993 35.5604611,6.43857436 C35.6313734,6.50715254 35.6929088,6.58393673 35.7479977,6.66658224 C35.8025005,6.74746929 35.8487985,6.83480391 35.8863058,6.92624168 C35.9238132,7.01592085 35.9525298,7.11028913 35.9718695,7.20641586 C35.9912092,7.30254259 36,7.40159998 36,7.49889906 C36,7.59678425 35.9912092,7.69584163 35.9718695,7.79196837 C35.9525298,7.8880951 35.9238132,7.98246338 35.8863058,8.073901 C35.8487985,8.16416642 35.8025005,8.25091478 35.7479977,8.33180199 C35.6929088,8.41444749 35.6313734,8.49123169 35.5604611,8.56039597 C35.4918929,8.6289743 35.4151202,8.69227727 35.3324868,8.74620202 C35.2516117,8.80012677 35.164876,8.84643161 35.0746239,8.88394448 C34.9831998,8.92145735 34.8900177,8.95193671 34.793905,8.96952079 C34.6966204,8.98944958 34.5975777,9 34.499707,9 Z" id="Path"></path>
                    <path d="M75.7928009,39.8511427 L75.7928009,30.8712314 C75.7928009,28.44299 74.2265168,26.3410319 71.9734954,25.7342812 L69.9626771,25.0222778 C69.9608918,25.0216587 69.9597015,25.0210395 69.9579163,25.0204204 L69.0206452,24.6885648 L63.9361725,11.627945 C63.7028962,11.0298622 63.1446991,10.6379508 62.5240173,10.6379508 L60.5566406,10.6379508 L60.5566406,9.70677407 C60.5566406,7.12932154 58.5416566,5.03293565 56.0648804,5.03293565 C53.5875091,5.03293565 51.5725251,7.12932154 51.5725251,9.70677407 L51.5725251,10.6379508 L51.0286102,10.6379508 L51.0286102,1.58498159 C51.0286102,0.709526837 50.3466339,0 49.5051727,0 L3.7413483,0 C2.89988705,0 2.2179108,0.709526837 2.2179108,1.58498159 L2.2179108,39.8443322 C0.886688156,40.7142147 0,42.2558568 0,44.0086236 C0,46.7185706 2.11912533,48.9233049 4.72384636,48.9233049 L8.45507812,48.9233049 C9.08885189,52.9321939 12.4427948,56 16.472763,56 C20.5021362,56 23.8560791,52.9321939 24.4898529,48.9233049 L53.1280975,48.9233049 C53.7618714,52.9321939 57.1158141,56 61.1451873,56 C65.1751556,56 68.5290985,52.9321939 69.1628724,48.9233049 L73.2761536,48.9233049 C75.8808747,48.9233049 78,46.7185706 78,44.0086236 C78,42.2601908 77.1180726,40.7222634 75.7928009,39.8511427 Z M71.1802368,28.7952769 C72.1020355,29.0293094 72.7459259,29.8830943 72.7459259,30.8718505 L72.7459259,39.0939425 L51.0286102,39.0939425 L51.0286102,28.1080388 L69.2194061,28.1080388 L71.0505065,28.7562716 C71.0927581,28.7705115 71.1361999,28.7841326 71.1802368,28.7952769 Z M53.2042694,45.7533417 L24.413681,45.7533417 C24.1429137,44.4543997 23.5841217,43.2656635 22.8105011,42.2639057 L54.8074494,42.2639057 C54.0338288,43.2656635 53.4750366,44.4543997 53.2042694,45.7533417 Z M54.6194001,9.70615482 C54.6194001,8.87713511 55.2674561,8.20289884 56.0642853,8.20289884 C56.8611146,8.20289884 57.5097656,8.87713511 57.5097656,9.70615482 L57.5097656,10.6379508 L54.618805,10.6379508 L54.618805,9.70615482 L54.6194001,9.70615482 Z M61.4974823,13.8079139 L65.8303529,24.9374566 L51.0286102,24.9374566 L51.0286102,13.8079139 L61.4974823,13.8079139 Z M5.2647858,3.16996319 L47.9817352,3.16996319 L47.9817352,39.0939425 L5.2647858,39.0939425 L5.2647858,3.16996319 Z M3.046875,44.0086236 C3.046875,43.0464904 3.79907227,42.2639057 4.72384636,42.2639057 L10.13443,42.2639057 C9.36080925,43.2656635 8.80201725,44.4543997 8.53184505,45.7533417 L4.72384636,45.7533417 C3.79907227,45.7533417 3.046875,44.9707571 3.046875,44.0086236 Z M16.472763,52.8300368 C13.6722565,52.8300368 11.3942414,50.459994 11.3942414,47.5469713 C11.3942414,44.6339485 13.6722565,42.2639057 16.472763,42.2639057 C19.2726745,42.2639057 21.5506898,44.6339485 21.5506898,47.5469713 C21.5506898,50.459994 19.2726745,52.8300368 16.472763,52.8300368 Z M61.1451873,52.8300368 C58.3452759,52.8300368 56.0672607,50.459994 56.0672607,47.5469713 C56.0672607,44.6339485 58.3452759,42.2639057 61.1451873,42.2639057 C63.945694,42.2639057 66.2237091,44.6339485 66.2237091,47.5469713 C66.2237091,50.459994 63.945694,52.8300368 61.1451873,52.8300368 Z M73.2761536,45.7533417 L69.0861053,45.7533417 C68.8159333,44.4543997 68.2571411,43.2656635 67.4835205,42.2639057 L73.2761536,42.2639057 C74.2009277,42.2639057 74.953125,43.0464904 74.953125,44.0086236 C74.953125,44.9707571 74.2009277,45.7533417 73.2761536,45.7533417 Z" id="Shape" fill-rule="nonzero"></path>
                </g>
            </g>
        </g>
    </g>
</svg>