<?xml version="1.0" encoding="UTF-8"?>
<svg width="76px" height="81px" viewBox="0 0 76 81" version="1.1" xmlns="http://www.w3.org/2000/svg" xmlns:xlink="http://www.w3.org/1999/xlink">
    <!-- Generator: sketchtool 52 (66869) - http://www.bohemiancoding.com/sketch -->
    <title>D4462945-842C-4A91-A530-B60A660540DA</title>
    <desc>Created with sketchtool.</desc>
    <g id="Вариант-3" stroke="none" stroke-width="1" fill="none" fill-rule="evenodd" opacity="0.5">
        <g id="Гитстра_Главная_Вар4" transform="translate(-1190.000000, -1389.000000)" fill="#FFFFFF">
            <g id="Oval-Copy-15" transform="translate(942.000000, 1369.000000)">
                <g id="044-ship" transform="translate(248.000000, 20.000000)">
                    <path d="M45.5,74 C45.4027344,74 45.3037109,73.9912062 45.2058594,73.9718598 C45.1115234,73.9525135 45.0171875,73.9237872 44.9257812,73.886267 C44.8355469,73.8487468 44.748828,73.8024327 44.6673828,73.7479111 C44.5853516,73.6928033 44.5085937,73.629488 44.439453,73.5603101 C44.3691405,73.4917185 44.3076171,73.4149193 44.251953,73.3322576 C44.1980469,73.2513548 44.1517578,73.1645893 44.1142578,73.0743062 C44.0767578,72.9828507 44.0480469,72.888464 44.0287109,72.7923185 C44.009375,72.696173 44,72.5970962 44,72.4991919 C44,72.4018738 44.0087891,72.3027971 44.0287109,72.2066516 C44.0480469,72.110506 44.0767578,72.0161193 44.1142578,71.9264226 C44.1517578,71.8343808 44.1980469,71.7476155 44.251953,71.6667124 C44.3076171,71.5840508 44.3691405,71.5072516 44.439453,71.43866 C44.5085937,71.3694821 44.5853516,71.3061667 44.6673828,71.2522314 C44.748828,71.1982961 44.835547,71.1519823 44.9257812,71.1144621 C45.0171875,71.0769418 45.1115234,71.0482153 45.2058594,71.028869 C45.6933594,70.9297923 46.2125,71.0904256 46.5605469,71.43866 C46.6296875,71.5072516 46.6923828,71.5840508 46.746875,71.6667124 C46.8007812,71.7476155 46.8470703,71.8343808 46.8845703,71.9264226 C46.9220703,72.0161193 46.9507812,72.110506 46.9701171,72.2066516 C46.9900391,72.3027971 47,72.4018738 47,72.4991919 C47,72.5970962 46.9900391,72.696173 46.9701171,72.7923185 C46.9507812,72.888464 46.9220703,72.9828507 46.8845703,73.0743062 C46.8470703,73.1645893 46.8007812,73.2513548 46.746875,73.3322576 C46.6923828,73.4149193 46.6296875,73.4917185 46.5605469,73.5603101 C46.2816405,73.8399529 45.8949219,74 45.5,74 Z" id="Path"></path>
                    <path d="M39.5112345,74 L9.48876552,74 C8.66703678,74 8,73.3285157 8,72.5 C8,71.6714844 8.66703678,71 9.48876552,71 L39.5112345,71 C40.3335447,71 41,71.6714844 41,72.5 C41,73.3285157 40.3335447,74 39.5112345,74 Z" id="Path"></path>
                    <path d="M67.4999634,76 L54.5000366,76 C53.6715008,76 53,75.3279297 53,74.5 C53,73.6714843 53.6715008,73 54.5000366,73 L67.4999634,73 C68.3284992,73 69,73.6714843 69,74.5 C69,75.3285157 68.3284992,76 67.4999634,76 Z" id="Path"></path>
                    <path d="M74.515625,52.9849671 L74.4918518,52.9849671 C73.9386901,52.9849671 73.4319153,53.3178576 73.1762084,53.8496014 C72.3586426,55.5461473 70.7565612,56.6001957 68.9944459,56.6001957 C67.4120788,56.6001957 65.9427796,55.7443714 65.0654908,54.3121241 C64.5558167,53.4808418 63.7075195,52.9849671 62.7954407,52.9849671 C61.8839417,52.9849671 61.0350647,53.4808418 60.5259704,54.3121241 C59.9936829,55.1805341 59.2445374,55.8368759 58.3840638,56.2188504 L62.9775085,41.1871766 C63.2082825,40.4326667 62.8974915,39.6089358 62.2457581,39.246469 L58.086029,36.9338554 L58.086029,17.3763809 C58.086029,16.4872046 57.4215393,15.7654174 56.601654,15.7654174 L51.7304687,15.7654174 L51.7304687,6.895679 C51.7304687,6.0058733 51.0659791,5.2847155 50.2460937,5.2847155 L44.3828125,5.2847155 L44.3828125,1.6109635 C44.3828125,0.721157799 43.7183228,0 42.8984375,0 L33.1015625,0 C32.2816772,0 31.6171875,0.721157799 31.6171875,1.6109635 L31.6171875,5.2847155 L25.7539062,5.2847155 C24.9340209,5.2847155 24.2695312,6.0058733 24.2695312,6.895679 L24.2695312,15.7654174 L19.398346,15.7654174 C18.5784607,15.7654174 17.913971,16.4872046 17.913971,17.3763809 L17.913971,36.9338554 L13.7542419,39.246469 C13.1025085,39.6089358 12.7917175,40.433296 13.0224915,41.1878059 L17.6153564,56.2194798 C16.7554626,55.8368759 16.0063171,55.1805341 15.4740296,54.3121241 C14.9643555,53.4814711 14.1160583,52.9849671 13.2045593,52.9849671 C12.2924805,52.9849671 11.4441833,53.4814711 10.9350891,54.3121241 C10.0572204,55.7450006 8.58792118,56.6001957 7.00555412,56.6001957 C5.24343876,56.6001957 3.64135742,55.5461473 2.82379158,53.8496014 C2.56808468,53.3184868 2.06130985,52.9849671 1.50872795,52.9849671 L1.484375,52.9849671 C0.664489672,52.9849671 0,53.7067542 0,54.5959306 L0,79.3890365 C0,80.2782128 0.664489672,81 1.484375,81 L74.515625,81 C75.3355103,81 76,80.2782128 76,79.3890365 L76,54.5959306 C76,53.7061249 75.3355103,52.9849671 74.515625,52.9849671 Z M34.5859375,3.221927 L41.4140625,3.221927 L41.4140625,5.2847155 L34.5859375,5.2847155 L34.5859375,3.221927 Z M27.2382812,8.5066425 L48.7617188,8.5066425 L48.7617188,15.7654174 L27.2382812,15.7654174 L27.2382812,8.5066425 Z M20.882721,18.9873444 L55.1178588,18.9873444 L55.1178588,35.283247 L38.6766663,26.1416586 C38.2522278,25.9056775 37.7483521,25.9056775 37.3233337,26.1416586 L20.882721,35.283247 L20.882721,18.9873444 Z M38,29.3856103 L59.75943,41.484198 L55.2094727,56.3742832 C54.1820068,56.0319535 53.280365,55.3126834 52.6674805,54.3121241 C52.1578064,53.4808418 51.3095092,52.9849671 50.3980103,52.9849671 C49.4859314,52.9849671 48.6376342,53.4808418 48.1279602,54.3121241 C47.2500915,55.7450006 45.7813721,56.6001957 44.1990052,56.6001957 C42.6166381,56.6001957 41.1473389,55.7450006 40.2694701,54.3121241 C40.0589905,53.9691651 39.7911071,53.6828415 39.484375,53.4651096 L39.484375,38.7927563 C39.484375,37.9029506 38.8198853,37.1817928 38,37.1817928 C37.1801147,37.1817928 36.515625,37.9029506 36.515625,38.7927563 L36.515625,53.4651096 C36.2088929,53.6828415 35.9410095,53.9691651 35.7305299,54.3121241 C34.8526611,55.7450006 33.3833619,56.6001957 31.8009948,56.6001957 C30.2186279,56.6001957 28.7499085,55.7450006 27.8720398,54.3121241 C27.3623658,53.4808418 26.5140686,52.9849671 25.6019897,52.9849671 C24.6904908,52.9849671 23.8416138,53.4808418 23.3325195,54.3121241 C22.719635,55.3126834 21.8179932,56.0319535 20.7905273,56.3742832 L16.24057,41.484198 L38,29.3856103 Z M2.96875,58.5830653 C4.15856934,59.379737 5.54843136,59.8221227 7.00555413,59.8221227 C9.4663697,59.8221227 11.7578736,58.5541182 13.2045593,56.4107817 C14.6512451,58.5541182 16.942749,59.8221227 19.4035645,59.8221227 C21.8638001,59.8221227 24.155304,58.5541182 25.6019897,56.4107817 C27.0492553,58.5541182 29.3401794,59.8221227 31.8009948,59.8221227 C34.1133728,59.8221227 36.2767334,58.7019997 37.7297974,56.7883513 C37.8173523,56.8059712 37.9078064,56.8154105 38,56.8154105 C38.0921936,56.8154105 38.1826477,56.8059712 38.2702026,56.7883513 C39.7232666,58.7019997 41.8866272,59.8221227 44.1990052,59.8221227 C46.6598206,59.8221227 48.9513245,58.5541182 50.3980103,56.4107817 C51.844696,58.5541182 54.1361999,59.8221227 56.5964355,59.8221227 C59.057251,59.8221227 61.3487549,58.5541182 62.7954407,56.4107817 C64.2421264,58.5541182 66.5342102,59.8221227 68.9944459,59.8221227 C70.4515686,59.8221227 71.8414307,59.379737 73.03125,58.5830653 L73.03125,65.1678786 L2.96875,65.1678786 L2.96875,58.5830653 Z M73.03125,77.7774436 L2.96875,77.7774436 L2.96875,68.3898056 L73.03125,68.3898056 L73.03125,77.7774436 Z" id="Shape" fill-rule="nonzero"></path>
                </g>
            </g>
        </g>
    </g>
</svg>