<?xml version="1.0" encoding="UTF-8"?>
<svg width="87px" height="81px" viewBox="0 0 87 81" version="1.1" xmlns="http://www.w3.org/2000/svg" xmlns:xlink="http://www.w3.org/1999/xlink">
    <!-- Generator: sketchtool 52 (66869) - http://www.bohemiancoding.com/sketch -->
    <title>28EDEEE3-644E-462C-931B-26015EC2FF53</title>
    <desc>Created with sketchtool.</desc>
    <g id="Вариант-3" stroke="none" stroke-width="1" fill="none" fill-rule="evenodd" opacity="0.5">
        <g id="Гитстра_Главная_Вар4" transform="translate(-1179.000000, -1551.000000)" fill="#FFFFFF">
            <g id="Oval-Copy-18" transform="translate(942.000000, 1531.000000)">
                <g id="033-medical-kit" transform="translate(237.000000, 20.000000)">
                    <path d="M43.5,73 C30.5421123,73 20,62.457788 20,49.4999999 C20,36.5415448 30.5421123,26 43.5,26 C46.7266043,26 49.8529412,26.642419 52.7927808,27.9092457 C53.6604278,28.2828228 54.0601605,29.2881454 53.685829,30.1540437 C53.3108288,31.0199421 52.3041444,31.4188689 51.4358289,31.0446248 C48.9271391,29.9632526 46.2566845,29.4148947 43.5,29.4148947 C32.4291445,29.4148947 23.4224599,38.4247736 23.4224599,49.4999999 C23.4224599,60.5745592 32.4291445,69.5844381 43.5,69.5844381 C54.5708555,69.5844381 63.5775401,60.5745592 63.5775401,49.4999999 C63.5775401,47.065745 63.1477272,44.6875266 62.2994652,42.4313878 C61.967246,41.5481448 62.4157753,40.5635023 63.3008022,40.2326198 C64.1858288,39.9010701 65.1717914,40.3480284 65.5040108,41.2312715 C66.4966578,43.8723279 67,46.6541431 67,49.4999999 C67,62.457788 56.4578877,73 43.5,73 Z" id="Path"></path>
                    <path d="M59.0023438,36 C58.8703126,36 58.7398438,35.9859417 58.6101562,35.9593869 C58.4820314,35.9336132 58.35625,35.8961242 58.2359376,35.8461389 C58.115625,35.7961535 58,35.7336718 57.8898438,35.6618179 C57.7820314,35.5899639 57.678125,35.5056136 57.5859376,35.4142342 C57.49375,35.3220736 57.4101562,35.2197598 57.3382814,35.1096358 C57.2664062,35.001855 57.2039062,34.8862639 57.1539062,34.7644246 C57.1039062,34.6441472 57.0664062,34.5184028 57.0398438,34.3903154 C57.0140626,34.2622279 57,34.1302353 57,34.0005857 C57,33.8701551 57.0140626,33.7381626 57.0398438,33.6085132 C57.0664062,33.4827686 57.1039062,33.3562433 57.1539062,33.234404 C57.2039062,33.1149078 57.2664062,32.9985357 57.3382814,32.8907547 C57.4101562,32.7806307 57.49375,32.6783169 57.5859376,32.5869375 C57.678125,32.4947769 57.7820314,32.4104266 57.8898438,32.3370107 C58,32.2651567 58.1164062,32.202675 58.2359376,32.1526897 C58.35625,32.1027043 58.4820314,32.0652153 58.6101562,32.0386605 C58.8679688,31.9871132 59.1335938,31.9871132 59.3921876,32.0386605 C59.5203126,32.0652153 59.6460938,32.1027043 59.765625,32.1526897 C59.8859376,32.202675 60.0023438,32.2651567 60.1101562,32.3370107 C60.2203126,32.4104266 60.321875,32.4947769 60.415625,32.5869375 C60.5078126,32.6783169 60.5921876,32.7806307 60.6640626,32.8907547 C60.7359376,32.9985357 60.7976562,33.1149078 60.8476562,33.234404 C60.8976562,33.3562433 60.9359376,33.4827686 60.9617188,33.6085132 C60.9882814,33.7381626 61,33.8701551 61,34.0005857 C61,34.5262129 60.7875,35.0416871 60.415625,35.4142342 C60.321875,35.5056136 60.2195314,35.5899639 60.109375,35.6618179 C60.0015626,35.7336718 59.8859376,35.7961535 59.765625,35.8461389 C59.6453126,35.8961242 59.5195314,35.9336132 59.3914062,35.9593869 C59.2617188,35.9859417 59.1320314,36 59.0023438,36 Z" id="Path"></path>
                    <path d="M47.5997816,62 L39.4002184,62 C38.4351625,62 37.6530166,61.2186648 37.6530166,60.2561308 L37.6530166,55.3446866 L32.7472017,55.3446866 C31.7821459,55.3446866 31,54.5633514 31,53.6008174 L31,45.3991825 C31,44.4359673 31.7821459,43.6553133 32.7472017,43.6553133 L37.6530166,43.6553133 L37.6530166,38.7438692 C37.6530166,37.7806539 38.4351625,37 39.4002184,37 L47.5997816,37 C48.564155,37 49.3469834,37.7806539 49.3469834,38.7438692 L49.3469834,43.6553133 L54.2527983,43.6553133 C55.2178541,43.6553133 56,44.4359673 56,45.3991825 L56,53.6008174 C56,54.5633514 55.2178541,55.3446866 54.2527983,55.3446866 L49.3469834,55.3446866 L49.3469834,60.2561308 C49.3469834,61.2186648 48.564155,62 47.5997816,62 Z M41.1474201,58.5122616 L45.8525799,58.5122616 L45.8525799,53.6008174 C45.8525799,52.6376022 46.6347256,51.8569481 47.5997816,51.8569481 L52.5055965,51.8569481 L52.5055965,47.1430517 L47.5997816,47.1430517 C46.6347256,47.1430517 45.8525799,46.3623978 45.8525799,45.3991825 L45.8525799,40.4877384 L41.1474201,40.4877384 L41.1474201,45.3991825 C41.1474201,46.3623978 40.3652744,47.1430517 39.4002184,47.1430517 L34.4944035,47.1430517 L34.4944035,51.8569481 L39.4002184,51.8569481 C40.3652744,51.8569481 41.1474201,52.6376022 41.1474201,53.6008174 L41.1474201,58.5122616 Z" id="Shape" fill-rule="nonzero"></path>
                    <path d="M80.2256927,17.4035433 L77.054924,17.4035433 L77.054924,11.7323724 C77.054924,10.7863969 76.2942582,10.019715 75.3557052,10.019715 L65.9768143,10.019715 L65.9768143,7.42798269 C65.9768143,3.3323229 62.6766129,0 58.6197281,0 L28.3802719,0 C24.3233871,0 21.0231857,3.3323229 21.0231857,7.42798269 L21.0231857,10.019715 L11.6442948,10.019715 C10.7057418,10.019715 9.94507603,10.7863969 9.94507603,11.7323724 L9.94507603,17.4035433 L6.77430734,17.4035433 C3.03934483,17.4035433 0,20.4716085 0,24.2427999 L0,74.1607433 C0,77.9319347 3.03934483,81 6.77430734,81 L80.2256927,81 C83.9606552,81 87,77.9319347 87,74.1607433 L87,24.2427999 C87,20.4716085 83.9606552,17.4035433 80.2256927,17.4035433 Z M18.8573455,77.5746851 L3.3984375,61.9593971 L3.3984375,36.4441462 L18.8573455,20.8288582 L68.1426545,20.8288582 L83.6015625,36.4441462 L83.6015625,61.9593971 L68.1426545,77.5746851 L18.8573455,77.5746851 Z M55.1164169,17.4035433 L31.8835831,17.4035433 L31.8835831,10.9623456 L55.1164169,10.9623456 L55.1164169,17.4035433 Z M83.6015625,24.2427999 L83.6015625,31.5951848 L72.9436112,20.829527 L80.2256927,20.8295272 C82.0868684,20.8288582 83.6015625,22.3608837 83.6015625,24.2427999 Z M73.6564865,13.4450299 L73.6564865,17.4035433 L65.9768143,17.4035433 L65.9768143,13.4450299 L73.6564865,13.4450299 Z M24.4216232,7.42798269 C24.4216232,5.22092917 26.1978378,3.42531489 28.3802719,3.42531489 L58.6197281,3.42531489 C60.8021622,3.42531489 62.5783768,5.22092917 62.5783768,7.42798269 L62.5783768,17.4035433 L58.5148544,17.4035433 L58.5148544,9.24968812 C58.5148544,8.30371257 57.7541886,7.53703068 56.8156356,7.53703068 L30.1843644,7.53703068 C29.2458114,7.53703068 28.4851456,8.30371257 28.4851456,9.24968812 L28.4851456,17.4035433 L24.4216232,17.4035433 L24.4216232,7.42798269 Z M13.3435135,13.4450299 L21.0231857,13.4450299 L21.0231857,17.4035433 L13.3435135,17.4035433 L13.3435135,13.4450299 Z M6.77430734,20.8288582 L14.0563888,20.8288582 L3.3984375,31.5951848 L3.3984375,24.2427999 C3.3984375,22.3608837 4.91313163,20.8288582 6.77430734,20.8288582 Z M6.77430734,77.5746851 C4.91313163,77.5746851 3.3984375,76.0433284 3.3984375,74.1607433 L3.3984375,66.8090275 L14.0563888,77.5746851 L6.77430734,77.5746851 Z M80.2256927,77.5746851 L72.9436112,77.5746851 L83.6015625,66.8090275 L83.6015625,74.1607433 C83.6015625,76.0433284 82.0868684,77.5746851 80.2256927,77.5746851 Z" id="Shape" fill-rule="nonzero"></path>
                </g>
            </g>
        </g>
    </g>
</svg>