<?xml version="1.0" encoding="UTF-8"?>
<svg width="107px" height="96px" viewBox="0 0 107 96" version="1.1" xmlns="http://www.w3.org/2000/svg" xmlns:xlink="http://www.w3.org/1999/xlink">
    <!-- Generator: sketchtool 52 (66869) - http://www.bohemiancoding.com/sketch -->
    <title>E3CAF1F2-2469-4E6A-B0E2-CC5D894BD79D</title>
    <desc>Created with sketchtool.</desc>
    <g id="Вариант-3" stroke="none" stroke-width="1" fill="none" fill-rule="evenodd" opacity="0.5">
        <g id="Гитстра_Главная_Вар4" transform="translate(-365.000000, -1086.000000)" fill="#FFFFFF">
            <g id="Oval-Copy-10" transform="translate(138.000000, 1017.000000)">
                <g id="032-medical" transform="translate(227.000000, 69.000000)">
                    <path d="M15.6739483,0.99009901 L11.810781,0.99009901 C8.44241881,0.99009901 5.70255128,3.65936522 5.70255128,6.94093097 L5.70255128,11.9725654 L1.96692684,11.9725654 C0.880506996,11.9725654 0,12.8303834 0,13.8888082 L0,46.2351359 C0,47.2935605 0.880506996,48.1513786 1.96692684,48.1513786 C3.05334669,48.1513786 3.93385369,47.2935605 3.93385369,46.2351359 L3.93385369,15.805051 L5.70255128,15.805051 L5.70255128,73.2309544 C5.70255128,74.7467326 5.90078053,76.261762 6.29262933,77.734125 C6.2941659,77.7386163 6.29493418,77.7423589 6.29647094,77.7468502 C6.2980075,77.7528384 6.29954426,77.7588267 6.30108082,77.7648149 C6.32950921,77.8666153 6.36562061,77.9646729 6.40941561,78.0582396 C6.87963387,79.2094822 8.68060126,82.86232 11.7754379,88.9456424 L11.7754379,91.1530642 C11.7754379,92.2114888 12.6559449,93.0693069 13.7423647,93.0693069 C14.8287844,93.0693069 15.7092916,92.2114888 15.7092916,91.1530642 L15.7092916,88.9456424 C18.8033596,82.863817 20.6035587,79.2109792 21.0745454,78.0589881 C21.1214135,77.9594331 21.1590619,77.8553873 21.1882584,77.7468502 C21.582412,76.2699957 21.7821782,74.7512237 21.7821782,73.2309544 L21.7821782,6.94093097 C21.7821782,3.65936522 19.0423105,0.99009901 15.6739483,0.99009901 Z M9.63563649,73.2309544 L9.63563649,21.4691952 L17.8490928,21.4691952 L17.8490928,73.2309544 C17.8490928,73.9390661 17.793773,74.6471776 17.6839016,75.3485524 L9.80082766,75.3485524 C9.6909563,74.6471776 9.63563649,73.9390661 9.63563649,73.2309544 Z M9.63563649,6.94093097 C9.63563649,5.77247204 10.6114167,4.82183607 11.810781,4.82183607 L15.6739483,4.82183607 C16.8733126,4.82183607 17.8490928,5.77247204 17.8490928,6.94093097 L17.8490928,17.6374581 L9.63563649,17.6374581 L9.63563649,6.94093097 Z M13.7423647,84.1670119 C12.8411126,82.378768 11.9406289,80.5763022 11.2545095,79.1810379 L16.2309881,79.1810379 C15.5640769,80.5381272 14.6812649,82.3061605 13.7423647,84.1670119 Z" id="Shape" fill-rule="nonzero"></path>
                    <path d="M91.6389078,83 C91.2544925,83 90.867126,82.8882852 90.5336219,82.6570784 L84.7828891,78.674945 C83.9373232,78.0895035 83.7469604,76.9582156 84.3578927,76.1479306 C84.9688251,75.3376457 86.1493707,75.1552255 86.9949364,75.7406669 L91.3349173,78.7456505 L97.6744472,71.6340919 C98.3525231,70.874715 99.5448742,70.784212 100.338053,71.4339953 C101.131232,72.0830718 101.224938,73.2256726 100.546862,73.9857567 L93.0762221,82.3657718 C92.7043502,82.7829341 92.1745803,83 91.6389078,83 Z" id="Path"></path>
                    <path d="M42,67 C41.8703126,67 41.7382814,66.9859363 41.6078126,66.960153 C41.4820314,66.9335884 41.35625,66.8960853 41.2343752,66.8460813 C41.1140626,66.7960772 40.9984376,66.7335721 40.8898438,66.6616911 C40.7804688,66.5898104 40.6781252,66.5062098 40.5859376,66.4140147 C40.2125,66.0421095 40,65.5256613 40,64.9998373 C40,64.8677951 40.0125,64.7380972 40.0382814,64.6076178 C40.0640626,64.4794824 40.1023438,64.3536909 40.1523438,64.2333687 C40.2023438,64.1138276 40.2640626,63.9974119 40.3359376,63.888028 C40.4101564,63.7794254 40.4921876,63.6755108 40.5859376,63.5833159 C40.6781252,63.491902 40.7804688,63.4075202 40.8898438,63.3356393 C40.9984376,63.2637585 41.1140626,63.2012534 41.2343752,63.1512493 C41.35625,63.1012452 41.4820314,63.0637422 41.6078126,63.0379589 C42.2578126,62.9074795 42.95,63.1192155 43.4140626,63.5833159 C43.50625,63.6755108 43.5898438,63.7794254 43.6625,63.888028 C43.7343752,63.9974119 43.7960938,64.1138276 43.8460938,64.2333687 C43.8960938,64.3536909 43.9343752,64.4794824 43.9601564,64.6076178 C43.9859376,64.7380972 44,64.8677951 44,64.9998373 C44,65.1295352 43.9859376,65.2615772 43.9601564,65.3897128 C43.9343752,65.517848 43.8960938,65.6436397 43.8460938,65.7639619 C43.7960938,65.883503 43.7343752,66.0014812 43.6625,66.1100838 C43.5898438,66.2194677 43.50625,66.3218198 43.4140626,66.4140147 C43.0421876,66.78592 42.5257814,67 42,67 Z" id="Path"></path>
                    <path d="M62.8717578,55 L55.128242,55 C54.1095101,55 53.2838616,54.1743269 53.2838616,53.1555642 L53.2838616,48.7166702 L48.8443804,48.7166702 C47.8263689,48.7166702 47,47.8902765 47,46.8722345 L47,39.1277655 C47,38.1097235 47.8263689,37.2833298 48.8443804,37.2833298 L53.2838616,37.2833298 L53.2838616,32.8444358 C53.2838616,31.8256733 54.1095101,31 55.128242,31 L62.8717578,31 C63.8904899,31 64.7161382,31.8256733 64.7161382,32.8444358 L64.7161382,37.2833298 L69.1556196,37.2833298 C70.1743515,37.2833298 71,38.1097235 71,39.1277655 L71,46.8722345 C71,47.8902765 70.1743515,48.7166702 69.1556196,48.7166702 L64.7161382,48.7166702 L64.7161382,53.1555642 C64.7161382,54.1743269 63.8904899,55 62.8717578,55 Z M56.9726224,51.3111285 L61.0273774,51.3111285 L61.0273774,46.8722345 C61.0273774,45.8534718 61.8530259,45.0277987 62.8717578,45.0277987 L67.3112392,45.0277987 L67.3112392,40.9722013 L62.8717578,40.9722013 C61.8530259,40.9722013 61.0273774,40.1465282 61.0273774,39.1277655 L61.0273774,34.6888715 L56.9726224,34.6888715 L56.9726224,39.1277655 C56.9726224,40.1465282 56.1469741,40.9722013 55.128242,40.9722013 L50.6887608,40.9722013 L50.6887608,45.0277987 L55.128242,45.0277987 C56.1469741,45.0277987 56.9726224,45.8534718 56.9726224,46.8722345 L56.9726224,51.3111285 Z" id="Shape" fill-rule="nonzero"></path>
                    <path d="M105.423383,62.9765625 C100.6357,62.2507324 96.6901812,61.4436036 93.58032,58.4509277 L93.58032,21.4020996 C93.58032,18.3889161 91.1608161,15.9375 88.1868576,15.9375 L83.9890509,15.9375 L83.9890509,14.3679199 C83.9890509,13.3322754 83.1598993,12.4929199 82.1384593,12.4929199 L71.253945,12.4929199 C71.2575596,12.3706054 71.2590053,12.2490234 71.2590053,12.1267089 C71.2590053,5.44042969 65.8901211,0 59.29016,0 C52.6909215,0 47.3213147,5.44042969 47.3213147,12.1267089 C47.3213147,12.2490234 47.3234832,12.3706054 47.3270978,12.4929199 L36.4425833,12.4929199 C35.4204207,12.4929199 34.5919918,13.3322754 34.5919918,14.3679199 L34.5919918,15.9375 L30.3941853,15.9375 C27.4195039,15.9375 25,18.3889161 25,21.4020996 L25,90.5346679 C25,93.5485839 27.4195039,96 30.3941853,96 L88.1868576,96 C88.9466122,96 89.6882947,95.8395996 90.3728688,95.5319824 C90.5160006,95.6140136 90.654795,95.6916504 90.7878062,95.7663574 C91.0617804,95.9194335 91.3690076,96 91.6820178,96 L91.763704,96 C92.0767144,96 92.3846643,95.9194335 92.6586386,95.7663574 C94.3089904,94.8427734 96.787048,93.364746 99.2210096,91.5666504 C101.538586,89.8549804 103.417371,88.1586915 104.805314,86.5246582 C106.220728,84.8583984 107,82.692627 107,80.4243165 L107,64.8310547 C107,63.9030761 106.329884,63.1142578 105.423383,62.9765625 Z M88.1868576,19.6875 C89.1201052,19.6875 89.8791369,20.4565429 89.8791369,21.4020996 L89.8791369,58.4377442 C88.7550471,59.5224609 87.5218012,60.3215332 86.1779539,60.9331054 L86.1779539,25.3125 C86.1779539,24.2768554 85.3495249,23.4375 84.3273623,23.4375 L83.9890509,23.4375 L83.9890509,19.6875 L88.1868576,19.6875 Z M78.022339,62.9765625 C77.8394486,63.0043946 77.6652328,63.0593261 77.5047517,63.1362304 L48.9470882,63.1362304 C47.9249255,63.1362304 47.0964967,63.9755859 47.0964967,65.0112304 C47.0964967,66.0461426 47.9249255,66.8862304 48.9470882,66.8862304 L76.4457218,66.8862304 L76.4457218,70.6640625 C76.4168064,70.6625977 76.387168,70.6618652 76.3575295,70.6618652 L56.2677682,70.6618652 C55.2456054,70.6618652 54.4171766,71.5012207 54.4171766,72.5368652 C54.4171766,73.5725098 55.2456054,74.4118652 56.2677682,74.4118652 L76.3575295,74.4118652 C76.387168,74.4118652 76.4168064,74.4111328 76.4457218,74.4096679 L76.4457218,78.1896973 C76.4168064,78.1882324 76.387168,78.1875 76.3575295,78.1875 L56.2677682,78.1875 C55.2456054,78.1875 54.4171766,79.0268554 54.4171766,80.0625 C54.4171766,81.0981446 55.2456054,81.9375 56.2677682,81.9375 L76.3575295,81.9375 C76.4262038,81.9375 76.4941552,81.9331054 76.5613838,81.9257812 C76.7153588,82.9182129 77.0204171,83.8710937 77.46427,84.7492676 L50.4073206,84.7492676 L50.4073206,72.1318359 C50.4073206,71.0961915 49.5788917,70.2568359 48.5567291,70.2568359 L36.1035492,70.2568359 L36.1035492,27.1875 L82.4767708,27.1875 L82.4767708,62.1584473 C81.083044,62.4902344 79.5982334,62.7377929 78.022339,62.9765625 Z M36.1035492,76.6589355 L44.0892855,84.75 L36.1035492,84.75 L36.1035492,76.6589355 Z M38.7204013,74.0075683 L46.7061376,74.0075683 L46.7061376,82.0986328 L38.7204013,74.0075683 Z M38.2931749,16.2429199 L60.482924,16.2429199 C61.5050867,16.2429199 62.3335155,15.4035645 62.3335155,14.3679199 C62.3335155,13.3322754 61.5050867,12.4929199 60.482924,12.4929199 L51.0304494,12.4929199 C51.0253891,12.3706054 51.0224978,12.2490234 51.0224978,12.1267089 C51.0224978,7.50805669 54.7316325,3.75 59.29016,3.75 C63.8494104,3.75 67.5578222,7.50805669 67.5578222,12.1267089 C67.5578222,12.744873 67.4913166,13.3623047 67.3597512,13.9599609 C67.2375831,14.5151366 67.3713174,15.0966797 67.7219177,15.5405272 C68.0732408,15.984375 68.6045631,16.2429199 69.1662465,16.2429199 L80.2878678,16.2429199 L80.2878678,23.4375 L38.2931749,23.4375 L38.2931749,16.2429199 Z M30.3941853,92.25 C29.4602147,92.25 28.7011831,91.4809571 28.7011831,90.5346679 L28.7011831,21.4020996 C28.7011831,20.4565429 29.4602147,19.6875 30.3941853,19.6875 L34.5919918,19.6875 L34.5919918,23.4375 L34.2529577,23.4375 C33.2307949,23.4375 32.4023661,24.2768554 32.4023661,25.3125 L32.4023661,86.625 C32.4023661,87.6606446 33.2307949,88.5 34.2529577,88.5 L80.5249748,88.5 C81.5919567,89.5100098 82.8288168,90.5354004 84.2254351,91.5666504 C84.541337,91.8002929 84.8572387,92.0280761 85.1731404,92.25 L30.3941853,92.25 Z M103.298817,80.4250489 C103.298817,81.7954102 102.837615,83.0925292 102.000511,84.0783692 C100.814976,85.4743652 99.0995645,87.0161134 97.0400586,88.536621 C95.1475397,89.9348145 93.2152618,91.1323241 91.7232223,91.9973145 C90.2304601,91.1323241 88.2989052,89.9348145 86.4056632,88.536621 C84.3461573,87.0161134 82.6314686,85.4743652 81.4459334,84.0783692 C80.6081069,83.0932616 80.1469049,81.7954102 80.1469049,80.4250489 L80.1469049,66.4343261 C84.3577235,65.7253417 88.3726396,64.6647949 91.7232223,61.7966308 C95.0730823,64.6647949 99.0879983,65.7253417 103.298817,66.4343261 L103.298817,80.4250489 Z" id="Shape" fill-rule="nonzero"></path>
                </g>
            </g>
        </g>
    </g>
</svg>