<?xml version="1.0" encoding="UTF-8"?>
<svg width="100px" height="96px" viewBox="0 0 100 96" version="1.1" xmlns="http://www.w3.org/2000/svg" xmlns:xlink="http://www.w3.org/1999/xlink">
    <!-- Generator: sketchtool 52 (66869) - http://www.bohemiancoding.com/sketch -->
    <title>7BBAC0EF-D859-433B-89C3-1B93FDEB3498</title>
    <desc>Created with sketchtool.</desc>
    <g id="Вариант-3" stroke="none" stroke-width="1" fill="none" fill-rule="evenodd" opacity="0.5">
        <g id="Гитстра_Главная_Вар4" transform="translate(-1169.000000, -1086.000000)" fill="#FFFFFF">
            <g id="Oval-Copy-7" transform="translate(942.000000, 1017.000000)">
                <g id="024-insurance" transform="translate(227.000000, 69.000000)">
                    <path d="M99.9906766,75.6750062 C99.996785,75.6112917 99.9906766,75.5475769 99.9906766,75.4823632 L99.9906766,1.91893514 C99.9906766,0.859023213 99.1156539,0 98.0360013,0 L26.7071506,0 C25.627498,0 24.7524752,0.859023213 24.7524752,1.91893514 L24.7524752,93.1305698 C24.7524752,94.189732 25.627498,95.0487552 26.7071506,95.0487552 L80.0598604,95.0487552 C80.1255253,95.0487552 80.3851307,95.049505 80.4500319,95.049505 C80.958553,95.049505 81.4586749,94.8538636 81.8328121,94.4873168 L99.418018,77.2228972 C99.8394948,76.8091268 100.047943,76.2379439 99.9906766,75.6750062 Z M28.6618259,3.83787028 L96.081326,3.83787028 L96.081326,73.9479646 L80.4507954,73.9479646 C79.3711428,73.9479646 78.4961201,74.806988 78.4961201,75.8661502 L78.4961201,91.2116347 L28.6618259,91.2116347 L28.6618259,3.83787028 Z M82.4047072,88.4981404 L82.4047072,77.7850854 L93.317293,77.7850854 L82.4047072,88.4981404 Z" id="Shape" fill-rule="nonzero"></path>
                    <path d="M66.6818896,22.3725521 L62.403528,18.6066491 L62.403528,13.4705143 C62.403528,12.417521 61.5242233,11.564105 60.4392873,11.564105 C59.3543512,11.564105 58.4750467,12.417521 58.4750467,13.4705143 L58.4750467,15.1497929 L50.8244828,8.41480606 C50.8006971,8.3939549 50.7769113,8.37459284 50.7531257,8.35523077 C50.0832888,7.81905315 49.1364636,7.77958457 48.4251936,8.2345909 C48.3415599,8.28820867 48.2617627,8.34778396 48.1858017,8.41480606 L32.3276278,22.3725521 C31.524284,23.0800088 31.4636687,24.2856636 32.1925862,25.0653553 C32.5800633,25.4801484 33.1125568,25.6908958 33.6481192,25.6908958 C34.1184629,25.6908958 34.5903409,25.5278086 34.9670761,25.1964209 L36.6067566,23.7539542 L36.6067566,37.6982957 C36.6067566,38.7505443 37.4860613,39.6039604 38.57023,39.6039604 L60.4392873,39.6039604 C61.5242233,39.6039604 62.403528,38.7505443 62.403528,37.6982957 L62.403528,23.7539542 L64.0432085,25.1971655 C64.8465522,25.9038776 66.0887808,25.8450469 66.8176984,25.0653553 C67.5458484,24.2856636 67.4860006,23.0800088 66.6818896,22.3725521 Z M58.4758139,35.7918864 L49.064339,35.7918864 L49.064339,31.8345978 L51.9094188,31.8345978 C52.9943549,31.8345978 53.8736594,30.9811817 53.8736594,29.9281885 C53.8736594,28.8751951 52.9943549,28.0217792 51.9094188,28.0217792 L47.1008658,28.0217792 C46.0159297,28.0217792 45.1366252,28.8751951 45.1366252,29.9281885 L45.1366252,35.7918864 L40.5344707,35.7918864 L40.5344707,20.2963532 L49.5047587,12.400393 L58.4758139,20.2963532 L58.4758139,35.7918864 Z" id="Shape" fill-rule="nonzero"></path>
                    <path d="M90.1174741,31.6831683 L73.2480962,31.6831683 C72.1653112,31.6831683 71.2871287,30.7967202 71.2871287,29.7029703 C71.2871287,28.6092202 72.1653112,27.7227723 73.2480962,27.7227723 L90.1174741,27.7227723 C91.2010256,27.7227723 92.0792079,28.6092202 92.0792079,29.7029703 C92.0792079,30.7967202 91.2010256,31.6831683 90.1174741,31.6831683 Z" id="Path"></path>
                    <path d="M90.1174741,39.6039604 L73.2480962,39.6039604 C72.1653112,39.6039604 71.2871287,38.7175125 71.2871287,37.6237624 C71.2871287,36.5300125 72.1653112,35.6435644 73.2480962,35.6435644 L90.1174741,35.6435644 C91.2010256,35.6435644 92.0792079,36.5300125 92.0792079,37.6237624 C92.0792079,38.7175125 91.2010256,39.6039604 90.1174741,39.6039604 Z" id="Path"></path>
                    <path d="M90.1181234,56.4356436 L33.6442528,56.4356436 C32.5610599,56.4356436 31.6831683,55.6131599 31.6831683,54.5990506 L31.6831683,47.3811474 C31.6831683,46.3670381 32.5610599,45.5445545 33.6442528,45.5445545 L90.1181234,45.5445545 C91.2013163,45.5445545 92.0792079,46.3670381 92.0792079,47.3811474 L92.0792079,54.5990506 C92.0792079,55.6131599 91.2013163,56.4356436 90.1181234,56.4356436 Z M35.6053373,52.7617401 L88.157039,52.7617401 L88.157039,49.218458 L35.6053373,49.218458 L35.6053373,52.7617401 Z" id="Shape" fill-rule="nonzero"></path>
                    <path d="M89.1089109,68.3168317 C88.9781869,68.3168317 88.8497834,68.3029119 88.7206063,68.277392 C88.5937501,68.251099 88.4692141,68.2139794 88.3500929,68.1644865 C88.231745,68.1149936 88.1164913,68.0531275 88.0097463,67.9819815 C87.9006808,67.9108355 87.8001238,67.8280896 87.7088491,67.736837 C87.6160273,67.6455847 87.5348081,67.5450522 87.4613244,67.4360132 C87.3901608,67.3285209 87.3290533,67.2117488 87.2795483,67.0934298 C87.2300434,66.9743376 87.192141,66.8498322 87.166615,66.7230067 C87.1403156,66.5961812 87.1287129,66.4654892 87.1287129,66.337117 C87.1287129,66.2087447 87.1403156,66.0780527 87.166615,65.9489072 C87.192141,65.8244017 87.2300434,65.6998963 87.2795483,65.5792574 C87.3290533,65.4601651 87.3901608,65.345713 87.4613244,65.2382207 C87.5348081,65.129955 87.6160273,65.0286493 87.7088491,64.9373969 C87.8001238,64.8469176 87.9006808,64.7633984 88.0097463,64.6899325 C88.1164913,64.6187863 88.231745,64.5576937 88.3500929,64.5082009 C88.4692141,64.458708 88.5937501,64.4208149 88.7206063,64.3952952 C88.9758663,64.3434825 89.2396349,64.3434825 89.4948949,64.3952952 C89.6217513,64.4208149 89.7462871,64.458708 89.8654083,64.5082009 C89.9837562,64.5576937 90.0990099,64.6187863 90.2080754,64.6899325 C90.3148206,64.7633984 90.417698,64.8469176 90.5089727,64.9373969 C90.5994741,65.0286493 90.6830137,65.129955 90.754177,65.2382207 C90.8253404,65.3449396 90.8872216,65.4601651 90.9367265,65.5792574 C90.9862315,65.6998963 91.0233602,65.8244017 91.0488861,65.9489072 C91.0751857,66.0780527 91.0891089,66.2087447 91.0891089,66.337117 C91.0891089,66.4654892 91.0751857,66.5961812 91.0488861,66.7230067 C91.0233602,66.8498322 90.9862315,66.9743376 90.9367265,67.0934298 C90.8872216,67.2117488 90.8253404,67.3285209 90.754177,67.4360132 C90.6830137,67.5450522 90.5994741,67.6455847 90.5089727,67.736837 C90.417698,67.8280896 90.3148206,67.9108355 90.2080754,67.9819815 C90.0990099,68.0531275 89.9837562,68.1149936 89.8654083,68.1644865 C89.7462871,68.2139794 89.6217513,68.251099 89.4948949,68.277392 C89.3664913,68.3029119 89.2373145,68.3168317 89.1089109,68.3168317 Z" id="Path"></path>
                    <path d="M82.2149725,68.3168317 L33.6266117,68.3168317 C32.5531628,68.3168317 31.6831683,67.4302104 31.6831683,66.3362469 C31.6831683,65.2430567 32.5531628,64.3564356 33.6266117,64.3564356 L82.2149725,64.3564356 C83.2884214,64.3564356 84.1584158,65.2430567 84.1584158,66.3362469 C84.1584158,67.4302104 83.2884214,68.3168317 82.2149725,68.3168317 Z" id="Path"></path>
                    <path d="M67.3770235,77.2277228 L33.6138296,77.2277228 C32.5474408,77.2277228 31.6831683,76.3412747 31.6831683,75.2475248 C31.6831683,74.1537747 32.5474408,73.2673267 33.6138296,73.2673267 L67.3770235,73.2673267 C68.442658,73.2673267 69.3069307,74.1537747 69.3069307,75.2475248 C69.3069307,76.3412747 68.442658,77.2277228 67.3770235,77.2277228 Z" id="Path"></path>
                    <path d="M15.6739483,0.99009901 L11.810781,0.99009901 C8.44241881,0.99009901 5.70255128,3.65936522 5.70255128,6.94093097 L5.70255128,11.9725654 L1.96692684,11.9725654 C0.880506996,11.9725654 0,12.8303834 0,13.8888082 L0,46.2351359 C0,47.2935605 0.880506996,48.1513786 1.96692684,48.1513786 C3.05334669,48.1513786 3.93385369,47.2935605 3.93385369,46.2351359 L3.93385369,15.805051 L5.70255128,15.805051 L5.70255128,73.2309544 C5.70255128,74.7467326 5.90078053,76.261762 6.29262933,77.734125 C6.2941659,77.7386163 6.29493418,77.7423589 6.29647094,77.7468502 C6.2980075,77.7528384 6.29954426,77.7588267 6.30108082,77.7648149 C6.32950921,77.8666153 6.36562061,77.9646729 6.40941561,78.0582396 C6.87963387,79.2094822 8.68060126,82.86232 11.7754379,88.9456424 L11.7754379,91.1530642 C11.7754379,92.2114888 12.6559449,93.0693069 13.7423647,93.0693069 C14.8287844,93.0693069 15.7092916,92.2114888 15.7092916,91.1530642 L15.7092916,88.9456424 C18.8033596,82.863817 20.6035587,79.2109792 21.0745454,78.0589881 C21.1214135,77.9594331 21.1590619,77.8553873 21.1882584,77.7468502 C21.582412,76.2699957 21.7821782,74.7512237 21.7821782,73.2309544 L21.7821782,6.94093097 C21.7821782,3.65936522 19.0423105,0.99009901 15.6739483,0.99009901 Z M9.63563649,73.2309544 L9.63563649,21.4691952 L17.8490928,21.4691952 L17.8490928,73.2309544 C17.8490928,73.9390661 17.793773,74.6471776 17.6839016,75.3485524 L9.80082766,75.3485524 C9.6909563,74.6471776 9.63563649,73.9390661 9.63563649,73.2309544 Z M9.63563649,6.94093097 C9.63563649,5.77247204 10.6114167,4.82183607 11.810781,4.82183607 L15.6739483,4.82183607 C16.8733126,4.82183607 17.8490928,5.77247204 17.8490928,6.94093097 L17.8490928,17.6374581 L9.63563649,17.6374581 L9.63563649,6.94093097 Z M13.7423647,84.1670119 C12.8411126,82.378768 11.9406289,80.5763022 11.2545095,79.1810379 L16.2309881,79.1810379 C15.5640769,80.5381272 14.6812649,82.3061605 13.7423647,84.1670119 Z" id="Shape" fill-rule="nonzero"></path>
                </g>
            </g>
        </g>
    </g>
</svg>