<?xml version="1.0" encoding="UTF-8"?>
<svg width="81px" height="81px" viewBox="0 0 81 81" version="1.1" xmlns="http://www.w3.org/2000/svg" xmlns:xlink="http://www.w3.org/1999/xlink">
    <!-- Generator: sketchtool 52 (66869) - http://www.bohemiancoding.com/sketch -->
    <title>6A2908DA-73F9-4828-833B-ED758BEC4BCD</title>
    <desc>Created with sketchtool.</desc>
    <g id="Вариант-3" stroke="none" stroke-width="1" fill="none" fill-rule="evenodd" opacity="0.5">
        <g id="Гитстра_Главная_Вар4" transform="translate(-783.000000, -1551.000000)" fill="#FFFFFF">
            <g id="Oval-Copy-17" transform="translate(540.000000, 1531.000000)">
                <g id="036-buildings-1" transform="translate(243.000000, 20.000000)">
                    <path d="M14.4362592,48 L7.56374075,48 C6.7000184,48 6,47.2999818 6,46.4362592 L6,39.5637408 C6,38.7000184 6.7000184,38 7.56374075,38 L14.4362592,38 C15.2999818,38 16,38.7000184 16,39.5637408 L16,46.4362592 C16,47.2999818 15.2999818,48 14.4362592,48 Z M9.12748151,44.8725185 L12.8725185,44.8725185 L12.8725185,41.1274815 L9.12748151,41.1274815 L9.12748151,44.8725185 Z" id="Shape" fill-rule="nonzero"></path>
                    <path d="M28.4362592,48 L21.5637408,48 C20.7000184,48 20,47.2999818 20,46.4362592 L20,39.5637408 C20,38.7000184 20.7000184,38 21.5637408,38 L28.4362592,38 C29.2999816,38 30,38.7000184 30,39.5637408 L30,46.4362592 C30,47.2999818 29.2999816,48 28.4362592,48 Z M23.1274815,44.8725185 L26.8725185,44.8725185 L26.8725185,41.1274815 L23.1274815,41.1274815 L23.1274815,44.8725185 Z" id="Shape" fill-rule="nonzero"></path>
                    <path d="M14.4362592,34 L7.56374075,34 C6.7000184,34 6,33.3000245 6,32.4363548 L6,25.5636452 C6,24.6999756 6.7000184,24 7.56374075,24 L14.4362592,24 C15.2999818,24 16,24.6999756 16,25.5636452 L16,32.4363548 C16,33.3000245 15.2999818,34 14.4362592,34 Z M9.12748151,30.8727095 L12.8725185,30.8727095 L12.8725185,27.1272905 L9.12748151,27.1272905 L9.12748151,30.8727095 Z" id="Shape" fill-rule="nonzero"></path>
                    <path d="M28.4362592,34 L21.5637408,34 C20.7000184,34 20,33.3000245 20,32.4363548 L20,25.5636452 C20,24.6999756 20.7000184,24 21.5637408,24 L28.4362592,24 C29.2999816,24 30,24.6999756 30,25.5636452 L30,32.4363548 C30,33.3000245 29.2999816,34 28.4362592,34 Z M23.1274815,30.8727095 L26.8725185,30.8727095 L26.8725185,27.1272905 L23.1274815,27.1272905 L23.1274815,30.8727095 Z" id="Shape" fill-rule="nonzero"></path>
                    <path d="M14.4362592,62 L7.56374075,62 C6.7000184,62 6,61.2999816 6,60.4362592 L6,53.5637408 C6,52.7000182 6.7000184,52 7.56374075,52 L14.4362592,52 C15.2999818,52 16,52.7000182 16,53.5637408 L16,60.4362592 C16,61.2999816 15.2999818,62 14.4362592,62 Z M9.12748151,58.8725185 L12.8725185,58.8725185 L12.8725185,55.1274815 L9.12748151,55.1274815 L9.12748151,58.8725185 Z" id="Shape" fill-rule="nonzero"></path>
                    <path d="M28.4362592,62 L21.5637408,62 C20.7000184,62 20,61.2999816 20,60.4362592 L20,53.5637408 C20,52.7000182 20.7000184,52 21.5637408,52 L28.4362592,52 C29.2999816,52 30,52.7000182 30,53.5637408 L30,60.4362592 C30,61.2999816 29.2999816,62 28.4362592,62 Z M23.1274815,58.8725185 L26.8725185,58.8725185 L26.8725185,55.1274815 L23.1274815,55.1274815 L23.1274815,58.8725185 Z" id="Shape" fill-rule="nonzero"></path>
                    <path d="M29.422363,75 L7.57763699,75 C6.70623914,75 6,74.2994136 6,73.4363548 L6,66.5636452 C6,65.6999755 6.70623914,65 7.57763699,65 L29.422363,65 C30.2937609,65 31,65.6999755 31,66.5636452 L31,73.4363548 C31,74.2994136 30.2937609,75 29.422363,75 Z M9.15527399,71.8727095 L27.844726,71.8727095 L27.844726,68.1272905 L9.15527399,68.1272905 L9.15527399,71.8727095 Z" id="Shape" fill-rule="nonzero"></path>
                    <path d="M42.5011718,31 C42.4021484,31 42.3048829,30.9900396 42.2070312,30.9701187 C42.1109375,30.9507837 42.0166016,30.9220741 41.9269532,30.8845758 C41.8367188,30.8470776 41.75,30.8007909 41.6673828,30.746887 C41.5865234,30.6912257 41.5085937,30.6297051 41.4394532,30.5605678 C41.1605468,30.2805031 41,29.8949744 41,29.4988995 C41,29.1045823 41.1599609,28.7190537 41.4394532,28.4384031 C41.5085938,28.3692656 41.5865234,28.3065733 41.6673828,28.2526696 C41.75,28.19818 41.8367187,28.1518931 41.9269532,28.1143949 C42.0166016,28.0768967 42.1115234,28.0481871 42.2070312,28.0288522 C42.6945312,27.9298333 43.2136718,28.0903726 43.5617187,28.4384031 C43.840625,28.7172959 44,29.1045823 44,29.4988995 C44,29.5979182 43.990625,29.6951793 43.9712891,29.7930262 C43.9519532,29.8885294 43.9232422,29.9834468 43.8857422,30.073091 C43.8482422,30.1633211 43.8019532,30.2500356 43.7480468,30.332649 C43.6923829,30.4135045 43.6308593,30.4902587 43.5617187,30.5605678 C43.2810546,30.8400467 42.8960937,31 42.5011718,31 Z" id="Path"></path>
                    <path d="M79.6521836,53.1198833 C75.5562058,52.5064812 72.1814117,51.8244424 69.5222397,49.2935403 L69.5222397,28.7340565 C69.5222397,27.8597112 68.8134155,27.1510832 67.9402085,27.1510832 L57.2664414,27.1510832 L57.2664414,20.6386323 C57.2664414,19.764287 56.5582351,19.055659 55.6844101,19.055659 L53.7822647,19.055659 L53.7822647,12.7973495 C53.7822647,11.923004 53.0740586,11.2143762 52.2002334,11.2143762 L51.1694412,11.2143762 L51.1694412,6.63673905 C51.1694412,5.76239374 50.4612351,5.05376579 49.5874099,5.05376579 L45.0520478,5.05376579 L45.0520478,1.58297327 C45.0520478,0.708627798 44.3432236,0 43.4700166,0 C42.5961914,0 41.8879853,0.708627798 41.8879853,1.58297327 L41.8879853,5.05376579 L38.1955491,5.05376579 C37.3217239,5.05376579 36.6135178,5.76239374 36.6135178,6.63673905 L36.6135178,11.2143762 L35.1210938,11.2143762 C34.2478867,11.2143762 33.5390625,11.923004 33.5390625,12.7973495 L33.5390625,16.9526543 L1.58203125,16.9526543 C0.708206098,16.9526543 0,17.6612821 0,18.5356276 L0,79.4170267 C0,80.2913722 0.708206098,81 1.58203125,81 L67.5014419,80.9517689 C67.5063858,80.9517689 67.5113296,80.9511506 67.5168916,80.9511506 C67.6429595,80.9833047 67.7733535,81 67.9049834,81 L67.9748154,81 C68.2424011,81 68.5056611,80.9319817 68.7398758,80.8021283 C70.1507263,80.0230088 72.269165,78.7745623 74.349907,77.257134 C76.3311538,75.8120525 77.9372864,74.3799564 79.1238098,73.0004199 C80.3338164,71.5942945 81,69.7652183 81,67.8501917 L81,54.685543 C81,53.9014764 80.4271316,53.2361331 79.6521836,53.1198833 Z M36.7037429,14.3803228 L50.6182022,14.3803228 L50.6182022,19.055659 L36.7037429,19.055659 L36.7037429,14.3803228 Z M39.7775803,8.21971232 L48.0059966,8.21971232 L48.0059966,11.2143762 L39.7775803,11.2143762 L39.7775803,8.21971232 Z M3.1640625,20.1186009 L33.5396804,20.1186009 L33.5396804,77.8340535 L3.1640625,77.8340535 L3.1640625,20.1186009 Z M48.0053787,28.7340565 L48.0053787,77.7858223 L44.0255813,77.7858223 L44.0255813,34.9874194 C44.0255813,34.1130739 43.3173752,33.4044461 42.4435501,33.4044461 C41.5697251,33.4044461 40.8615188,34.1130739 40.8615188,34.9874194 L40.8615188,77.7858223 L36.7037429,77.7858223 L36.7037429,22.2216056 L54.1023789,22.2216056 L54.1023789,27.1517017 L49.5874099,27.1517017 C48.7142029,27.1510832 48.0053787,27.8597112 48.0053787,28.7340565 Z M51.1694412,30.3170298 L66.3581772,30.3170298 L66.3581772,49.2929218 C63.6983872,51.8244424 60.3235932,52.5064812 56.2276153,53.1198833 C55.4532852,53.2361331 54.8797988,53.9014764 54.8797988,54.685543 L54.8797988,67.8501917 C54.8797988,69.7652183 55.5459824,71.5942945 56.755989,73.0004199 C57.9425125,74.3799564 59.548645,75.8120525 61.529892,77.257134 C61.7770844,77.4370735 62.0242768,77.6133029 62.2708511,77.7858223 L51.1694412,77.7858223 L51.1694412,30.3170298 Z M77.8359375,67.8501917 C77.8359375,69.0077409 77.4416656,70.1028369 76.7260437,70.9351345 C75.711937,72.1137076 74.2460862,73.4147138 72.4854585,74.6990245 C70.8669663,75.8794525 69.2157212,76.8904531 67.9395904,77.6207231 C66.6640777,76.8904531 65.0122146,75.8794525 63.3943406,74.6990245 C61.6343308,73.4147138 60.1678619,72.1137076 59.1537551,70.9351345 C58.4381333,70.1034552 58.0438613,69.0077409 58.0438613,67.85081 L58.0438613,56.0391088 C61.6436005,55.440547 65.0758667,54.5451777 67.9395904,52.1237233 C70.8039322,54.5451777 74.2361985,55.440547 77.8359375,56.0391088 L77.8359375,67.8501917 Z" id="Shape" fill-rule="nonzero"></path>
                    <path d="M68.2909144,69 C67.9743434,69 67.655342,68.9063172 67.3806969,68.7142376 L62.644892,65.3958582 C61.9479497,64.9079999 61.7917909,63.9652784 62.2949018,63.2900543 C62.7980127,62.6142408 63.7702077,62.4628162 64.4665424,62.9506746 L68.0405742,65.4547783 L73.261869,59.5285958 C73.8196658,58.8952048 74.8015827,58.8203763 75.4547763,59.3618519 C76.1079697,59.9027383 76.1851377,60.8548869 75.6273409,61.4882779 L69.4745618,68.4714868 C69.1683203,68.8191154 68.7314403,69 68.2909144,69 Z" id="Path"></path>
                    <path d="M58.5,49 C57.6714845,49 57,48.3021238 57,47.4410444 L57,34.5589556 C57,33.6984851 57.6714845,33 58.5,33 C59.3285157,33 60,33.6984851 60,34.5589556 L60,47.4410444 C60,48.3021238 59.3285157,49 58.5,49 Z" id="Path"></path>
                </g>
            </g>
        </g>
    </g>
</svg>