<?xml version="1.0" encoding="UTF-8"?>
<svg width="81px" height="81px" viewBox="0 0 81 81" version="1.1" xmlns="http://www.w3.org/2000/svg" xmlns:xlink="http://www.w3.org/1999/xlink">
    <!-- Generator: sketchtool 52 (66869) - http://www.bohemiancoding.com/sketch -->
    <title>51097EEF-8D34-4190-9725-23672D3F886D</title>
    <desc>Created with sketchtool.</desc>
    <g id="Вариант-3" stroke="none" stroke-width="1" fill="none" fill-rule="evenodd" opacity="0.5">
        <g id="Гитстра_Главная_Вар4" transform="translate(-384.000000, -1551.000000)" fill="#FFFFFF">
            <g id="Oval-Copy-16" transform="translate(138.000000, 1531.000000)">
                <g id="029-lifesaver" transform="translate(246.000000, 20.000000)">
                    <path d="M81,40.5 C81,36.3440781 80.3721313,32.2468643 79.1343155,28.3214492 C79.1336975,28.3195953 79.1336975,28.3177414 79.1330796,28.3158875 C75.1668777,15.7208176 65.2791824,5.83312229 52.6834946,1.86692043 C52.6822586,1.86692043 52.6804047,1.86630249 52.6785508,1.86568455 C48.7531357,0.627868652 44.6559219,0 40.5,0 C36.3440781,0 32.2468643,0.627868652 28.3214492,1.86568455 C28.3195953,1.86630249 28.3177414,1.86692043 28.3158875,1.86692043 C15.7208176,5.83312229 5.83312229,15.7208176 1.86692043,28.3158875 C1.86692043,28.3177414 1.86630249,28.3195953 1.86568455,28.3214492 C0.627868652,32.2468643 0,36.3440781 0,40.5 C0,44.6559219 0.627868652,48.7531357 1.86568455,52.6785508 C1.86630249,52.6804047 1.86630249,52.6822586 1.86692043,52.6841125 C5.83312229,65.2791824 15.7208176,75.1668777 28.3158875,79.1330796 C28.3189773,79.1336975 28.3214492,79.1349336 28.3239212,79.1355515 C32.2487183,80.3727493 36.345314,81 40.5,81 C44.654686,81 48.7512817,80.3727493 52.6754609,79.1355515 C52.6785508,79.1349336 52.6810227,79.1336975 52.6834946,79.1330796 C65.2791824,75.1668777 75.1662598,65.2791824 79.1330796,52.6834946 C79.1330796,52.6822586 79.1336975,52.6804047 79.1343155,52.6785508 C80.3721313,48.7531357 81,44.6559219 81,40.5 Z M48.6295395,55.7134551 C48.6276855,55.7146912 48.6258316,55.7153091 48.6239776,55.7165451 C46.1427842,57.0439682 43.3334426,57.7453765 40.5,57.7453765 C37.6659394,57.7453765 34.8565979,57.0439682 32.3760224,55.7165451 C32.3741684,55.7153091 32.3723145,55.7146912 32.3704605,55.7134551 C29.3497696,54.096199 26.8994751,51.6452866 25.2834549,48.6239776 C23.9560318,46.1427842 23.2540054,43.3334426 23.2540054,40.5 C23.2540054,37.6665574 23.9560318,34.8572158 25.2834549,32.3754043 C26.8994751,29.3547134 29.3503877,26.9031831 32.3704605,25.2865449 C32.3723145,25.2853088 32.3741684,25.2846909 32.3760224,25.2834549 C34.8572158,23.9560318 37.6665574,23.2540054 40.5,23.2540054 C43.3334426,23.2540054 46.1427842,23.9560318 48.6239776,25.2834549 C48.6258316,25.2846909 48.6276855,25.2853088 48.6295395,25.2865449 C51.6496123,26.9031831 54.099907,29.3547134 55.7165451,32.3754043 C57.0439682,34.8572158 57.7453765,37.6665574 57.7453765,40.5 C57.7453765,43.3334426 57.0439682,46.1427842 55.7165451,48.6239776 C54.1005249,51.6452866 51.6496123,54.0968169 48.6295395,55.7134551 Z M21.5533218,48.0968399 L4.50693508,50.4550552 C3.61518852,47.2279587 3.1640625,43.8859177 3.1640625,40.5 C3.1640625,37.1140823 3.61518852,33.7720413 4.50693508,30.5449448 L21.5533218,32.9031601 C20.5917434,35.307106 20.0899429,37.8952102 20.0899429,40.5 C20.0899429,43.1047898 20.5917434,45.692894 21.5533218,48.0968399 Z M59.4466782,32.9031601 L76.4930649,30.5449448 C77.3848115,33.7720413 77.8359375,37.1140823 77.8359375,40.5 C77.8359375,43.8859177 77.3848115,47.2279587 76.4930649,50.4550552 L59.4466782,48.0968399 C60.4082566,45.692894 60.9100571,43.1047898 60.9100571,40.5 C60.9100571,37.8952102 60.4082566,35.307106 59.4466782,32.9031601 Z M75.5049133,27.487175 L57.9548721,29.9158401 C56.2467727,27.0997009 53.9002991,24.7526093 51.0841599,23.0451279 L53.512825,5.49508667 C63.6860276,9.27218628 71.7278137,17.3139724 75.5049133,27.487175 Z M40.5,3.1640625 C43.8852998,3.1640625 47.2279587,3.61518852 50.4550552,4.50693508 L48.0968399,21.5533218 C45.693512,20.5917434 43.1047898,20.0899429 40.5,20.0899429 C37.8952102,20.0899429 35.307106,20.5917434 32.9031601,21.5533218 L30.5449448,4.50693508 C33.7720413,3.61518852 37.1140823,3.1640625 40.5,3.1640625 Z M27.487175,5.49508667 L29.9158401,23.0451279 C27.0997009,24.7526093 24.7526093,27.0997009 23.0451279,29.9158401 L5.49508667,27.487175 C9.27218628,17.3139724 17.3139724,9.27218628 27.487175,5.49508667 Z M5.49508667,53.512825 L23.0451279,51.0841599 C24.7526093,53.9002991 27.0997009,56.2473907 29.9158401,57.9548721 L27.487175,75.5049133 C17.3139724,71.7278137 9.27218628,63.6860276 5.49508667,53.512825 Z M40.5,77.8359375 C37.1140823,77.8359375 33.7720413,77.3848115 30.5449448,76.4930649 L32.9031601,59.4466782 C35.306488,60.4082566 37.8952102,60.9100571 40.5,60.9100571 C43.1047898,60.9100571 45.692894,60.4082566 48.0968399,59.4466782 L50.4550552,76.4930649 C47.2279587,77.3848115 43.8852998,77.8359375 40.5,77.8359375 Z M53.512825,75.5049133 L51.0841599,57.9548721 C53.9002991,56.2473907 56.2467727,53.9002991 57.9548721,51.0841599 L75.5049133,53.512825 C71.7278137,63.6860276 63.6860276,71.7278137 53.512825,75.5049133 Z" id="Shape" fill-rule="nonzero"></path>
                    <path d="M41,55 C32.7292454,55 26,48.2707546 26,40 C26,31.7292454 32.7292454,25 41,25 C41.8003154,25 42.6037422,25.0634777 43.387877,25.1891881 C44.2566485,25.3285898 44.8484836,26.145708 44.7090818,27.0144796 C44.5703024,27.883251 43.7513172,28.4744638 42.8844127,28.3356843 C42.2658175,28.236734 41.6322864,28.1863253 41,28.1863253 C34.4854583,28.1863253 29.1863253,33.4860805 29.1863253,40 C29.1863253,46.5139195 34.4860805,51.8136747 41,51.8136747 C47.5139195,51.8136747 52.8136747,46.5139195 52.8136747,40 C52.8136747,38.2375638 52.4352985,36.5423391 51.6891258,34.9622453 C51.3138613,34.1662863 51.6536531,33.2166121 52.4496121,32.8407252 C53.2449487,32.4648384 54.194623,32.8058748 54.5705099,33.6012116 C55.5189394,35.61009 56,37.763349 56,40 C56,48.2707546 49.2707546,55 41,55 Z" id="Path"></path>
                    <path d="M48.5,32 C48.4021484,32 48.303125,31.9906236 48.2076173,31.9712849 C48.1115234,31.9519462 48.0166016,31.9232309 47.9269532,31.8857254 C47.835547,31.8482199 47.7482423,31.8019242 47.6673829,31.7474239 C47.5847657,31.6923378 47.5085937,31.6308052 47.4394532,31.5598964 C47.3703125,31.4925039 47.3076173,31.4145626 47.2537109,31.3336915 C47.1992188,31.2510621 47.1529298,31.1643308 47.1154298,31.0740831 C47.0779298,30.9838354 47.0492188,30.8894857 47.0298829,30.7933779 C47.010547,30.6960981 47,30.5982322 47,30.5009522 C47,30.4019143 47.0105469,30.3046345 47.0298829,30.2067686 C47.0492188,30.1106607 47.0779298,30.016311 47.1154298,29.9266495 C47.1529298,29.8364018 47.1992188,29.7479122 47.2537109,29.6670411 C47.3076173,29.5861698 47.3703125,29.5082287 47.4394532,29.4390781 C47.5085938,29.3699272 47.5847657,29.3066367 47.6673829,29.2527226 C47.7482423,29.1988084 47.835547,29.1525125 47.9269532,29.115007 C48.0171875,29.0775015 48.1115234,29.0487864 48.2076173,29.0294477 C48.4009766,28.9901841 48.6001954,28.9901841 48.7935548,29.0294477 C48.8884766,29.0487864 48.9828125,29.0775015 49.0742188,29.115007 C49.1644532,29.1525125 49.2511719,29.1988084 49.3326173,29.2527226 C49.4146484,29.3066367 49.4914063,29.3699272 49.560547,29.4390781 C49.6296875,29.5082287 49.6923828,29.5855838 49.748047,29.6670411 C49.8019532,29.7479122 49.8482423,29.8364018 49.8857423,29.9266495 C49.9232423,30.016311 49.9519532,30.1106607 49.9712891,30.2067686 C49.9912109,30.3046345 50,30.4019143 50,30.5009522 C50,30.5988181 49.9912109,30.6960981 49.9712891,30.7933779 C49.9519532,30.8894857 49.9220704,30.9844216 49.8845704,31.0740831 C49.8470704,31.1643308 49.8001954,31.2510621 49.7462891,31.3336915 C49.6923829,31.4145626 49.6296875,31.4925039 49.560547,31.5598964 C49.4914063,31.6308052 49.4146484,31.6923378 49.3326173,31.7474239 C49.251172,31.8019242 49.1644532,31.8482199 49.0742188,31.8857254 C48.9828125,31.9232309 48.8884766,31.9519462 48.7935548,31.9712849 C48.6962891,31.9906236 48.5972657,32 48.5,32 Z" id="Path"></path>
                </g>
            </g>
        </g>
    </g>
</svg>