<?xml version="1.0" encoding="UTF-8"?>
<svg width="75px" height="81px" viewBox="0 0 75 81" version="1.1" xmlns="http://www.w3.org/2000/svg" xmlns:xlink="http://www.w3.org/1999/xlink">
    <!-- Generator: sketchtool 52 (66869) - http://www.bohemiancoding.com/sketch -->
    <title>878E9E37-5811-47FE-A1CB-2288DE3C578A</title>
    <desc>Created with sketchtool.</desc>
    <g id="Вариант-3" stroke="none" stroke-width="1" fill="none" fill-rule="evenodd" opacity="0.5">
        <g id="Гитстра_Главная_Вар4" transform="translate(-387.000000, -1389.000000)" fill="#FFFFFF" fill-rule="nonzero">
            <g id="Oval-Copy-13" transform="translate(138.000000, 1369.000000)">
                <g id="005-car" transform="translate(249.000000, 20.000000)">
                    <path d="M64.0164435,10.9596532 C56.9327557,3.89239806 47.5163321,0 37.4996903,0 C27.4836679,0 18.0672443,3.89239806 10.9841758,10.9596532 C3.90110745,18.0269084 0,27.4229276 0,37.4165887 C0,38.2904933 0.709855307,38.9987638 1.58571535,38.9987638 L1.63155235,38.9987638 C2.05275799,38.9987638 2.45723941,38.8312759 2.75518042,38.5327639 C4.37372499,36.9110343 6.52249313,36.0179707 8.80753384,36.0179707 C11.0913355,36.0192067 13.2363872,36.9104162 14.8505959,38.5278196 C15.160306,38.8417825 15.5697426,39 15.9804181,39 C16.3737497,39 16.7683204,38.8547612 17.0755528,38.5618115 C20.4978486,35.2991934 25.9091022,35.2719998 29.1616769,38.4919734 L29.1963645,38.5272014 L29.2050363,38.535236 C29.5023579,38.8318939 29.9056004,38.9987638 30.3261867,38.9987638 C30.74987,38.9981458 31.1537319,38.8300397 31.4510535,38.5321457 C33.0652621,36.9116523 35.2121721,36.0185887 37.4947349,36.0179707 L37.497832,36.0179707 C39.7822532,36.0179707 41.9316409,36.9110343 43.5501854,38.5327639 C43.8468877,38.8306577 44.2507496,38.9981458 44.6719552,38.9987638 C45.0943996,38.9987638 45.4976421,38.8318939 45.7949637,38.535236 L45.8463756,38.4839389 C49.0964727,35.2757079 54.5040097,35.3072278 57.9244472,38.5630477 C58.2316796,38.8547612 58.6256309,39 59.0189625,39 C59.3893758,39 59.7591695,38.8714483 60.0552522,38.6155808 C60.0589688,38.6124907 60.0626854,38.6094005 60.0664019,38.6063102 C60.0713572,38.6019841 60.0763126,38.5976578 60.0812679,38.5933315 C60.0899397,38.585297 60.0986117,38.5772626 60.1072837,38.5692281 C60.1202914,38.5568672 60.1332992,38.5445066 60.1456876,38.5321457 C61.7605158,36.9116523 63.9068062,36.0192067 66.1893691,36.0179707 C68.4775069,36.0179707 70.6268944,36.9110343 72.2448196,38.5327639 C72.5427606,38.8312759 72.9466226,38.9987638 73.3684476,38.9987638 L73.4142847,38.9987638 C74.2901447,38.9987638 75,38.2904933 75,37.4165887 C75,27.4223095 71.0995119,18.0269084 64.0164435,10.9596532 Z M8.80753384,32.8536203 C6.86317424,32.8536203 4.99128675,33.3245646 3.32071089,34.212684 C4.60476863,20.4619748 14.0682684,9.04559212 26.7967311,4.86889696 C25.0437724,6.55243007 23.4016898,8.65808277 21.9132234,11.154335 C18.2382042,17.3155475 15.7047761,25.4940335 14.6759194,34.4252887 C12.91305,33.4005832 10.9042707,32.8542383 8.81186967,32.8536203 L8.80753384,32.8536203 Z M17.8993814,34.1725116 C18.9189469,25.9223333 21.2708848,18.4187439 24.6386716,12.7729744 C27.2030706,8.47267162 30.2004443,5.51969006 33.3458593,4.12601619 C32.5790174,5.95107993 31.8933193,8.41828434 31.2596526,11.5807805 C30.0666496,17.5306245 29.2050363,25.5199911 28.7980773,34.3239306 C25.4594033,32.5291507 21.3594619,32.4778537 17.8993814,34.1725116 Z M37.5,32.6308594 C36.1124991,32.8175067 33.197818,33.5773417 31.9769411,34.2318431 C32.3578844,26.1936517 33.1253459,18.819232 34.1752628,13.2049824 C35.6315194,5.41276967 37.0958284,3.6433292 37.5003097,3.28981193 C37.9041716,3.6433292 39.3684806,5.41276967 40.8253566,13.2049824 C41.8746542,18.8198501 42.6427351,26.1948877 43.0230589,34.2330793 C41.8021821,33.5779597 40.0137321,32.9691589 37.5,32.6308594 Z M46.2025422,34.3251668 C45.7949637,25.5206091 44.9339699,17.5312426 43.7409668,11.5807805 C43.1066807,8.41828434 42.4209826,5.95107993 41.6541407,4.12601619 C44.7995557,5.51969006 47.7969294,8.47267162 50.3613284,12.7723562 C53.7284958,18.4187439 56.0810531,25.9235693 57.1006186,34.1756017 C53.6399187,32.482798 49.5393579,32.532859 46.2025422,34.3251668 Z M66.1924663,32.8536203 L66.1881303,32.8536203 C64.0957293,32.8542383 62.08695,33.4005832 60.3240806,34.4259069 C59.2946045,25.4940335 56.7611764,17.3155475 53.0867766,11.154335 C51.5976908,8.65808277 49.9556082,6.55243007 48.2032689,4.8682788 C60.9317316,9.04559212 70.3958507,20.4619748 71.6799085,34.212066 C70.0087133,33.3245646 68.1368258,32.8536203 66.1924663,32.8536203 Z" id="Shape"></path>
                    <path d="M63,59.4550827 L63,52.2623817 C63,51.7922503 62.7879262,51.3467011 62.421448,51.0474149 C62.0543497,50.7487433 61.5712931,50.6276767 61.1068392,50.7186304 L56.6191865,51.5931359 L55.1557541,43.3022328 C55.0230531,42.5494082 54.3632683,42 53.5918658,42 L21.4081344,42 C20.6373519,42 19.9775671,42.5494082 19.8442459,43.3022328 L18.3808135,51.5931359 L13.8937809,50.7186304 C13.4280869,50.6282914 12.9456503,50.7487433 12.5791721,51.0474149 C12.2120738,51.3460866 12,51.7922503 12,52.2623817 L12,59.4550827 C12,60.3240573 12.7106329,61.0283324 13.5874521,61.0283324 L15.7950027,61.0283324 L14.6335583,62.5843746 C14.4320263,62.8553915 14.322889,63.182947 14.322889,63.5197208 L14.322889,70.7794078 L13.9557907,70.7794078 C13.0789715,70.7794078 12.3683386,71.4842974 12.3683386,72.3526575 C12.3683386,73.2216322 13.0789715,73.9259072 13.9557907,73.9259072 L17.2032464,73.9259072 L17.2032464,79.4267503 C17.2032464,80.295725 17.9138794,81 18.7906985,81 L26.7707461,81 C27.6469452,81 28.3581982,80.295725 28.3581982,79.4267503 L28.3581982,73.9259072 L46.642422,73.9259072 L46.642422,79.4267503 C46.642422,80.295725 47.353675,81 48.2298742,81 L56.2099215,81 C57.0867408,81 57.7973736,80.295725 57.7973736,79.4267503 L57.7973736,73.9259072 L61.0448295,73.9259072 C61.9216487,73.9259072 62.6322816,73.2216322 62.6322816,72.3526575 C62.6322816,71.4836829 61.9216487,70.7794078 61.0448295,70.7794078 L60.6777312,70.7794078 L60.6777312,63.5197208 C60.6777312,63.182947 60.5685939,62.8547769 60.3670618,62.5843746 L59.2062374,61.0283324 L61.4131679,61.0283324 C62.2893671,61.0283324 63,60.3240573 63,59.4550827 Z M22.7419661,45.1464994 L52.2580339,45.1464994 L54.5058909,57.881833 L20.4941091,57.881833 L22.7419661,45.1464994 Z M15.1749042,54.1754779 L17.7811782,54.6830966 L17.2547146,57.881833 L15.1749042,57.881833 L15.1749042,54.1754779 Z M25.1826737,77.8535006 L20.3781507,77.8535006 L20.3781507,73.9259072 L25.1826737,73.9259072 L25.1826737,77.8535006 Z M23.5673172,70.7794078 L23.5673172,69.1305684 C23.5673172,68.4502608 24.1260259,67.8965507 24.812475,67.8965507 L28.6236002,67.8965507 C29.3100492,67.8965507 29.8687579,68.4502608 29.8687579,69.1305684 L29.8687579,70.7794078 L23.5673172,70.7794078 Z M51.4326828,70.7794078 L44.8819624,70.7794078 L44.8819624,69.1305684 C44.8819624,68.4502608 45.4406711,67.8965507 46.1271201,67.8965507 L50.187525,67.8965507 C50.8739741,67.8965507 51.4326828,68.4502608 51.4326828,69.1305684 L51.4326828,70.7794078 Z M54.6224694,77.8535006 L49.8173263,77.8535006 L49.8173263,73.9259072 L54.6224694,73.9259072 L54.6224694,77.8535006 Z M54.607587,70.7794078 L54.607587,69.1305684 C54.607587,66.7153842 52.6251322,64.7500513 50.187525,64.7500513 L46.1271201,64.7500513 C43.6901332,64.7500513 41.7070582,66.7153842 41.7070582,69.1305684 L41.7070582,70.7794078 L33.0436622,70.7794078 L33.0436622,69.1305684 C33.0436622,66.7153842 31.0612074,64.7500513 28.6236002,64.7500513 L24.812475,64.7500513 C22.375488,64.7500513 20.392413,66.7153842 20.392413,69.1305684 L20.392413,70.7794078 L17.4971732,70.7794078 L17.4971732,64.0384015 L19.7431698,61.0283324 L55.2568302,61.0283324 L57.502827,64.0384015 L57.502827,70.7794078 L54.607587,70.7794078 Z M59.8250958,57.881833 L57.7452854,57.881833 L57.2194418,54.6830966 L59.8250958,54.1754779 L59.8250958,57.881833 Z" id="Shape"></path>
                </g>
            </g>
        </g>
    </g>
</svg>