<?xml version="1.0" encoding="UTF-8"?>
<svg width="75px" height="57px" viewBox="0 0 75 57" version="1.1" xmlns="http://www.w3.org/2000/svg" xmlns:xlink="http://www.w3.org/1999/xlink">
    <!-- Generator: sketchtool 52 (66869) - http://www.bohemiancoding.com/sketch -->
    <title>5227505D-97D9-4AB7-9D58-8E2E794B2C2B</title>
    <desc>Created with sketchtool.</desc>
    <g id="Вариант-3" stroke="none" stroke-width="1" fill="none" fill-rule="evenodd">
        <g id="Гитстра_Контакты" transform="translate(-480.000000, -514.000000)" fill="#00A4FC" fill-rule="nonzero">
            <g id="Group-2" transform="translate(402.000000, 514.000000)">
                <g id="001-envelope-copy" transform="translate(78.000000, 0.000000)">
                    <path d="M7.19852001,17.4382586 C8.14725991,18.0809926 11.0071126,19.989914 15.7782247,23.1640377 C20.5494834,26.3381613 24.2045948,28.7821549 26.7437054,30.4961591 C27.0226689,30.6840395 27.6153382,31.0924508 28.5220063,31.7219557 C29.4288211,32.3518829 30.1823011,32.8609192 30.7818602,33.2492054 C31.381859,33.6373509 32.1071935,34.0727831 32.9585967,34.5547985 C33.8097067,35.0363916 34.6120017,35.3986419 35.3653352,35.6384533 C36.1188153,35.880235 36.8162975,36 37.4579283,36 L37.5,36 L37.5422183,36 C38.1838491,36 38.8816245,35.8800943 39.6351045,35.6384533 C40.3881449,35.3986419 41.1911728,35.0359694 42.0415499,34.5547985 C42.8923667,34.0722202 43.6177012,33.6372102 44.2177,33.2492054 C44.8176989,32.8609192 45.5705926,32.3518829 46.4777005,31.7219557 C47.3842221,31.0918878 47.9776243,30.6840395 48.2565878,30.4961591 C50.823111,28.7821549 57.3527342,24.4290992 67.8434051,17.4374142 C69.8801468,16.0718684 71.5817804,14.42415 72.9487458,12.4953851 C74.3167372,10.5674646 75,8.5449705 75,6.42902882 C75,4.66084183 74.3369668,3.14724336 73.0114869,1.88837417 C71.6861536,0.629223498 70.1164523,0 68.3034091,0 L6.69615109,0 C4.54785331,0 2.89459488,0.696353806 1.73666897,2.08906142 C0.578889658,3.4820505 0,5.22321648 0,7.31241864 C0,8.99996482 0.767552861,10.8286676 2.30192563,12.7974011 C3.8361518,14.7662753 5.46888743,16.3133686 7.19852001,17.4382586 Z" id="Shape"></path>
                    <path d="M70.8140892,21.5564669 C61.663282,27.6062407 54.7148606,32.3079134 49.9721965,35.6604827 C48.3818289,36.8046862 47.0916801,37.6978838 46.1008704,38.3379275 C45.1100606,38.9784009 43.7923526,39.6324769 42.1458406,40.2998693 C40.499915,40.968264 38.965985,41.301459 37.5427313,41.301459 L37.5000733,41.301459 L37.4580016,41.301459 C36.0350412,41.301459 34.5002316,40.968264 32.854306,40.2998693 C31.2083803,39.6324769 29.8897928,38.9784009 28.8992762,38.3379275 C27.9090529,37.6978838 26.6184642,36.8046862 25.0282432,35.6604827 C21.26129,32.9625622 14.3278209,28.2606031 4.22754272,21.5564669 C2.63673536,20.5215147 1.22770104,19.3352143 0,18 L0,50.4582373 C0,52.2580919 0.655409116,53.7972038 1.96696031,55.0781505 C3.27821831,56.3595267 4.85495292,57 6.69657778,57 L68.303862,57 C70.1450471,57 71.7216351,56.3595267 73.0330397,55.0781505 C74.3448841,53.7967743 75,52.2582351 75,50.4582373 L75,18 C73.8000047,19.3075793 72.4053363,20.4938797 70.8140892,21.5564669 Z" id="Shape"></path>
                </g>
            </g>
        </g>
    </g>
</svg>