<?xml version="1.0" encoding="UTF-8"?>
<svg width="52px" height="57px" viewBox="0 0 52 57" version="1.1" xmlns="http://www.w3.org/2000/svg" xmlns:xlink="http://www.w3.org/1999/xlink">
    <!-- Generator: sketchtool 52 (66869) - http://www.bohemiancoding.com/sketch -->
    <title>88D9083E-2EFA-481F-A203-2EF874409461</title>
    <desc>Created with sketchtool.</desc>
    <g id="Вариант-3" stroke="none" stroke-width="1" fill="none" fill-rule="evenodd">
        <g id="Гитстра_Контакты" transform="translate(-888.000000, -514.000000)" fill="#00A4FC" fill-rule="nonzero">
            <g id="Group-2" transform="translate(402.000000, 514.000000)">
                <g id="002-phone" transform="translate(486.000000, 0.000000)">
                    <path d="M10.4,24.7 C14.4444444,33.5666667 21.3777778,40.85 29.4666667,45.6 L35.8222222,38.6333333 C36.6887756,37.6834575 37.8444444,37.3667908 38.7111111,38 C41.8888889,39.2666667 45.3554423,39.9 49.1111111,39.9 C50.8444444,39.9 52,41.1666667 52,43.0666667 L52,53.8333333 C52,55.7333333 50.8444444,57 49.1111111,57 C21.9555556,57 0,32.9333333 0,3.16666667 C0,1.26666667 1.15555556,0 2.88888889,0 L13,0 C14.7333333,0 15.8888889,1.26666667 15.8888889,3.16666667 C15.8888889,6.96666667 16.4666667,10.7666667 17.6222222,14.5666667 C17.9111111,15.5166667 17.6222222,16.7833333 17.0444444,17.7333333 L10.4,24.7 Z" id="Shape"></path>
                </g>
            </g>
        </g>
    </g>
</svg>