<?xml version="1.0" encoding="UTF-8"?>
<svg width="16px" height="16px" viewBox="0 0 16 16" version="1.1" xmlns="http://www.w3.org/2000/svg" xmlns:xlink="http://www.w3.org/1999/xlink">
    <!-- Generator: sketchtool 52 (66869) - http://www.bohemiancoding.com/sketch -->
    <title>045B06F7-882C-4504-9254-0BC2ED331779</title>
    <desc>Created with sketchtool.</desc>
    <g id="Вариант-3" stroke="none" stroke-width="1" fill="none" fill-rule="evenodd">
        <g id="Гитстра_Контакты" transform="translate(-1286.000000, -134.000000)" fill="#003963" fill-rule="nonzero">
            <g id="Group" transform="translate(1190.000000, 134.000000)">
                <g id="ic_insta" transform="translate(96.000000, 0.000000)">
                    <path d="M2.05367887,0 L13.9464854,0 C15.0759184,0 16,0.836182556 16,2.05349351 L16,13.9465065 C16,15.1638174 15.0759184,16 13.9464854,16 L2.05367887,16 C0.923917284,16 0,15.1638174 0,13.9465065 L0,2.05349351 C0,0.836182556 0.923917284,0 2.05367887,0 Z M11.6554203,1.77766826 C11.2591741,1.77766826 10.9353759,2.10162739 10.9353759,2.49803378 L10.9353759,4.22214693 C10.9353759,4.61838903 11.2591741,4.94251245 11.6554203,4.94251245 L13.4638273,4.94251245 C13.8600735,4.94251245 14.1842003,4.61838903 14.1842003,4.22214693 L14.1842003,2.49803378 C14.1842003,2.10162739 13.8600735,1.77766826 13.4638273,1.77766826 L11.6554203,1.77766826 Z M14.1917572,6.76634324 L12.783539,6.76634324 C12.9167711,7.20135531 12.9888905,7.66215925 12.9888905,8.1388983 C12.9888905,10.8002259 10.761895,12.957544 8.01527815,12.957544 C5.2688256,12.957544 3.04215865,10.8002259 3.04215865,8.1388983 C3.04215865,7.66183069 3.11411381,7.20119103 3.24751011,6.76634324 L1.77801507,6.76634324 L1.77801507,13.5249653 C1.77801507,13.8747164 2.06419287,14.1610555 2.41411175,14.1610555 L13.5559891,14.1610555 C13.905908,14.1610555 14.1920858,13.8748806 14.1920858,13.5249653 L14.1920858,6.76634324 L14.1917572,6.76634324 Z M8.01511387,4.8516659 C6.2405487,4.8516659 4.80177424,6.24557729 4.80177424,7.96525489 C4.80177424,9.68493249 6.2405487,11.0788439 8.01511387,11.0788439 C9.78984332,11.0788439 11.2287821,9.68493249 11.2287821,7.96525489 C11.2287821,6.24557729 9.7900076,4.8516659 8.01511387,4.8516659 Z" id="Shape-Copy-2"></path>
                </g>
            </g>
        </g>
    </g>
</svg>