<?xml version="1.0" encoding="UTF-8"?>
<svg width="9px" height="16px" viewBox="0 0 9 16" version="1.1" xmlns="http://www.w3.org/2000/svg" xmlns:xlink="http://www.w3.org/1999/xlink">
    <!-- Generator: sketchtool 52 (66869) - http://www.bohemiancoding.com/sketch -->
    <title>455EED8A-7276-4902-8026-55BB04635567</title>
    <desc>Created with sketchtool.</desc>
    <g id="Вариант-3" stroke="none" stroke-width="1" fill="none" fill-rule="evenodd">
        <g id="Гитстра_Главная_Вар4" transform="translate(-1247.000000, -5038.000000)" fill="#FFFFFF" fill-rule="nonzero">
            <g id="Group" transform="translate(1190.000000, 5038.000000)">
                <g id="ic_facebook-copy" transform="translate(57.000000, 0.000000)">
                    <path d="M8.66108642,0.00332906797 L6.50239566,0 C4.07718063,0 2.50990013,1.5455198 2.50990013,3.93762159 L2.50990013,5.7531288 L0.339433124,5.7531288 C0.151879005,5.7531288 0,5.89927489 0,6.07954392 L0,8.71000697 C0,8.890276 0.152052185,9.03625563 0.339433124,9.03625563 L2.50990013,9.03625563 L2.50990013,15.6737513 C2.50990013,15.8540204 2.66177914,16 2.84933326,16 L5.68117532,16 C5.86872943,16 6.02060844,15.8538539 6.02060844,15.6737513 L6.02060844,9.03625563 L8.55839058,9.03625563 C8.7459447,9.03625563 8.8978237,8.890276 8.8978237,8.71000697 L8.89886278,6.07954392 C8.89886278,5.99298815 8.86301449,5.91009436 8.79945737,5.84883951 C8.73590025,5.78758466 8.64931017,5.7531288 8.55925648,5.7531288 L6.02060844,5.7531288 L6.02060844,4.21410068 C6.02060844,3.47438178 6.20400623,3.09886292 7.20654621,3.09886292 L8.66074006,3.09836356 C8.848121,3.09836356 9,2.95221747 9,2.77211489 L9,0.329577729 C9,0.149641605 8.84829418,0.00366197476 8.66108642,0.00332906797 Z" id="Shape-Copy"></path>
                </g>
            </g>
        </g>
    </g>
</svg>