<?xml version="1.0" encoding="UTF-8"?>
<svg width="23px" height="25px" viewBox="0 0 23 25" version="1.1" xmlns="http://www.w3.org/2000/svg" xmlns:xlink="http://www.w3.org/1999/xlink">
    <!-- Generator: sketchtool 52 (66869) - http://www.bohemiancoding.com/sketch -->
    <title>C431A08D-5798-450A-986A-BBCBF122FD2F</title>
    <desc>Created with sketchtool.</desc>
    <g id="Вариант-3" stroke="none" stroke-width="1" fill="none" fill-rule="evenodd">
        <g id="Гитстра_Главная_Вар4" transform="translate(-846.000000, -4972.000000)" fill="#FFFFFF" fill-rule="nonzero">
            <g id="002-phone" transform="translate(846.000000, 4972.000000)">
                <path d="M4.6,10.8333333 C6.38888889,14.7222222 9.45555556,17.9166667 13.0333333,20 L15.8444444,16.9444444 C16.2277277,16.5278322 16.7388889,16.3889434 17.1222222,16.6666667 C18.5277778,17.2222222 20.061061,17.5 21.7222222,17.5 C22.4888889,17.5 23,18.0555556 23,18.8888889 L23,23.6111111 C23,24.4444444 22.4888889,25 21.7222222,25 C9.71111111,25 0,14.4444444 0,1.38888889 C0,0.555555556 0.511111111,0 1.27777778,0 L5.75,0 C6.51666667,0 7.02777778,0.555555556 7.02777778,1.38888889 C7.02777778,3.05555556 7.28333333,4.72222222 7.79444444,6.38888889 C7.92222222,6.80555556 7.79444444,7.36111111 7.53888889,7.77777778 L4.6,10.8333333 Z" id="Shape"></path>
            </g>
        </g>
    </g>
</svg>