<?xml version="1.0" encoding="UTF-8"?>
<svg width="253px" height="47px" viewBox="0 0 253 47" version="1.1" xmlns="http://www.w3.org/2000/svg" xmlns:xlink="http://www.w3.org/1999/xlink">
    <!-- Generator: sketchtool 52 (66869) - http://www.bohemiancoding.com/sketch -->
    <title>F6A437A7-738D-4D8F-9FEE-BADB08A3F919</title>
    <desc>Created with sketchtool.</desc>
    <g id="Вариант-3" stroke="none" stroke-width="1" fill="none" fill-rule="evenodd">
        <g id="Гитстра_Контакты" transform="translate(-138.000000, -48.000000)" fill="#00A4FC">
            <g id="Group-15" transform="translate(138.000000, 48.000000)">
                <polygon id="Fill-1" points="38.0255556 31.4905264 29.1555556 22.8673109 21 30.7948793 37.6688889 47 68 17.6510379 60.1311111 10"></polygon>
                <polygon id="Fill-2" points="30.3322222 0 16.3111111 13.5665947 16.3111111 10.0148021 9.42888889 10.0148021 9.42888889 20.2251255 0 29.3487388 7.86888889 37 29.9744444 15.5099264 38.8455556 24.1333937 47 16.2045136"></polygon>
                <polygon id="Fill-3" points="80 2 99 2 99 11.1785396 92.836493 11.1785396 92.836493 7.82034728 89.1370908 7.82034728 89.1370908 21.5514248 91.603359 21.5514248 91.603359 27 80 27 80 21.5514248 82.4651865 21.5514248 82.4651865 7.44857524 80 7.44857524"></polygon>
                <polygon id="Fill-4" points="104.44145 27 104.44145 7.44857524 102 7.44857524 102 2 113.204532 2 113.204532 7.44857524 110.762011 7.44857524 110.762011 15.7678094 119.919324 2 128 2 128 7.44857524 125.557478 7.44857524 125.557478 21.5514248 128 21.5514248 128 27 116.795468 27 116.795468 21.5514248 119.237989 21.5514248 119.237989 13.6785396 110.15138 27"></polygon>
                <path d="M146.013447,20.7604965 L142.446274,9.69751768 L142.304779,9.69751768 L138.987616,20.7604965 L146.013447,20.7604965 Z M135.813013,2 L145.299587,2 L152.575429,20.7604965 L155,20.7604965 L155,31 L150.078514,31 L150.078514,25.9886565 L134.921486,25.9886565 L134.921486,31 L130,31 L130,20.7604965 L132.425635,20.7604965 L137.95353,7.22709193 L135.813013,7.22709193 L135.813013,2 Z" id="Fill-5"></path>
                <g id="Group-14" transform="translate(156.000000, 2.000000)">
                    <path d="M20.1846101,0.440104167 L25.2983629,0.440104167 L25.2983629,9.72864583 L19.380273,9.72864583 C18.8920034,8.64739583 18.1138236,7.78385417 17.0413742,7.13697917 C15.9700146,6.49114583 14.8496101,6.1671875 13.6801607,6.1671875 C11.9276213,6.1671875 10.4530034,6.74947917 9.26066629,7.91302083 C8.06614944,9.0765625 7.4699809,10.5203125 7.4699809,12.2421875 C7.4699809,13.9182292 8.05416067,15.3151042 9.22361011,16.4338542 C10.3930596,17.5505208 11.8785764,18.1088542 13.6801607,18.1088542 C14.8016551,18.1088542 15.8664753,17.8265625 16.877891,17.2630208 C17.8882169,16.6984375 18.6500483,15.9453125 19.1612056,15.0015625 L26.3588236,15.0015625 C25.6765539,17.3671875 24.4591494,19.3151042 22.7055202,20.8463542 C21.3409809,22.0515625 19.6843517,22.9557292 17.7367225,23.5588542 C16.2512056,24.0234375 14.8975652,24.2546875 13.6801607,24.2546875 C10.1729022,24.2546875 7.1168573,23.0682292 4.50984607,20.6921875 C1.90392472,18.3182292 0.601508989,15.5026042 0.601508989,12.2421875 C0.601508989,8.89010417 1.89193596,6.01614583 4.47387978,3.61822917 C7.0558236,1.2203125 10.1249472,0.0213541667 13.6801607,0.0213541667 C14.9956551,0.0213541667 16.2195989,0.196354167 17.3519921,0.5453125 C18.4843854,0.894270833 19.429318,1.37239583 20.1846101,1.9765625 L20.1846101,0.440104167 Z" id="Fill-6"></path>
                    <polygon id="Fill-8" points="27.528491 0.440104167 47.6227494 0.440104167 47.6227494 9.0296875 42.6539517 9.0296875 42.6539517 5.88697917 40.6801652 5.88697917 40.6801652 18.7369792 43.165109 18.7369792 43.165109 23.8359375 31.9850416 23.8359375 31.9850416 18.7369792 34.4699854 18.7369792 34.4699854 5.88697917 32.4972888 5.88697917 32.4972888 9.0296875 27.528491 9.0296875"></polygon>
                    <path d="M58.6552461,5.8875 L58.6552461,11.125 L60.0808191,11.125 C60.9810663,11.125 61.7243697,10.88125 62.3096393,10.3916667 C62.8938191,9.90208333 63.185909,9.25104167 63.185909,8.43645833 C63.185909,7.64479167 62.8938191,7.02291667 62.3096393,6.56770833 C61.7243697,6.11458333 60.9810663,5.8875 60.0808191,5.8875 L58.6552461,5.8875 Z M58.6552461,16.5729167 L58.6552461,18.7375 L61.1391,18.7375 L61.1391,23.8354167 L49.4489652,23.8354167 L49.4489652,18.7375 L51.9328191,18.7375 L51.9328191,5.53854167 L49.4489652,5.53854167 L49.4489652,0.440625 L60.0067067,0.440625 C62.7346955,0.440625 65.0910326,1.203125 67.0768079,2.72708333 C69.0614933,4.25208333 70.0543809,6.096875 70.0543809,8.26145833 C70.0543809,10.915625 69.1279764,12.9989583 67.2773472,14.5125 C65.6218079,15.8864583 63.5379427,16.5729167 61.0301112,16.5729167 L58.6552461,16.5729167 Z" id="Fill-10"></path>
                    <path d="M85.5810292,12.8709375 L83.9004225,7.94697917 L83.7543775,7.94697917 L82.1478831,12.8709375 L85.5810292,12.8709375 Z M77.104973,0.4396875 L86.8235011,0.4396875 L94.2772427,18.7376042 L96.7610966,18.7376042 L96.7610966,23.8355208 L85.6540517,23.8355208 L85.6540517,19.3657292 L87.8458157,19.3657292 L87.1897034,17.6209375 L80.6122315,17.6209375 L80.064018,19.3657292 L82.2568719,19.3657292 L82.2568719,23.8355208 L71.149827,23.8355208 L71.149827,18.7376042 L73.6336809,18.7376042 L79.2967371,5.53864583 L77.104973,5.53864583 L77.104973,0.4396875 Z" id="Fill-12"></path>
                </g>
            </g>
        </g>
    </g>
</svg>