<?xml version="1.0" encoding="UTF-8"?>
<svg width="47px" height="47px" viewBox="0 0 47 47" version="1.1" xmlns="http://www.w3.org/2000/svg" xmlns:xlink="http://www.w3.org/1999/xlink">
    <!-- Generator: sketchtool 52 (66869) - http://www.bohemiancoding.com/sketch -->
    <title>6D03564D-9027-4AFC-96B5-83595576B6D4</title>
    <desc>Created with sketchtool.</desc>
    <g id="Вариант-3" stroke="none" stroke-width="1" fill="none" fill-rule="evenodd" stroke-linecap="round" stroke-linejoin="round">
        <g id="Гитстра_Главная_Вар4" transform="translate(-294.000000, -2928.000000)" stroke="#FFFFFF" stroke-width="3">
            <g id="1" transform="translate(242.000000, 2876.000000)">
                <g id="users-48px-outline_circle-09" transform="translate(53.000000, 53.000000)">
                    <g id="Group" transform="translate(0.500000, 0.500000)">
                        <circle id="Oval" cx="22" cy="22" r="22"></circle>
                        <path d="M36,39 C35.7,34.2 33,32.7 29,31.4 C26,30.4 25.1,27.2 24.9,25.5" id="Shape"></path>
                        <path d="M19.1,25.4 C18.9,27.1 18,30.3 15,31.4 C11,32.7 8.3,34.2 8,39" id="Shape"></path>
                        <path d="M22,26 L22,26 C17.6,26 14,22.4 14,18 L14,16 C14,11.6 17.6,8 22,8 L22,8 C26.4,8 30,11.6 30,16 L30,18 C30,22.4 26.4,26 22,26 L22,26 Z" id="Shape"></path>
                    </g>
                </g>
            </g>
        </g>
    </g>
</svg>