<?xml version="1.0" encoding="UTF-8"?>
<svg width="47px" height="52px" viewBox="0 0 47 52" version="1.1" xmlns="http://www.w3.org/2000/svg" xmlns:xlink="http://www.w3.org/1999/xlink">
    <!-- Generator: sketchtool 52 (66869) - http://www.bohemiancoding.com/sketch -->
    <title>C4E4BA1C-66A7-40CC-AAB8-B1B026A073B5</title>
    <desc>Created with sketchtool.</desc>
    <g id="Вариант-3" stroke="none" stroke-width="1" fill="none" fill-rule="evenodd">
        <g id="Гитстра_Главная_Вар4" transform="translate(-892.000000, -3169.000000)" fill="#FFFFFF" stroke="#FFFFFF">
            <g id="question" transform="translate(893.000000, 3170.000000)">
                <path d="M32.8068293,0.203076923 C32.6839024,0.0738461538 32.514439,0 32.3414634,0 L15.6585366,0 C15.4846829,0 15.3152195,0.0738461538 15.1931707,0.203076923 C15.0702439,0.331384615 15,0.509446154 15,0.692307692 L15,3.816 C15,4.19815385 15.2950244,4.50923077 15.6585366,4.50923077 C16.0211707,4.50923077 16.3170732,4.19815385 16.3170732,3.816 L16.3170732,1.38461538 L31.6829268,1.38461538 L31.6829268,14.7701538 L23.5609756,14.7701538 C23.477561,14.7701538 23.3932683,14.7876923 23.316878,14.82 L19.8292683,18 L19.8292683,15.4624615 C19.8292683,15.2806154 19.7590244,15.1024615 19.6360976,14.9732308 C19.5140488,14.844 19.3437073,14.7701538 19.1707317,14.7701538 L16.3170732,14.7701538 L16.3170732,3.33239746 C16.3170732,2.95116669 16.0211707,4 15.6585366,4 C15.2950244,4 15,2.95116669 15,3.33239746 L15,15.4624615 C15,15.6452308 15.0702439,15.8233846 15.1931707,15.9526154 C15.3151317,16.0809231 15.4846829,16.1547692 15.6584488,16.1547692 L18.5121073,16.1547692 L18.5121951,18.3076923 C18.5121951,18.5375385 18.6201951,18.7516923 18.8010732,18.8809231 C18.9108293,18.9584615 19.0381463,19 19.1707317,19 C19.2550244,19 19.337561,18.9832923 19.4148293,18.9501538 L23.6873268,16.1547692 L32.3414634,16.1547692 C32.514439,16.1547692 32.6838146,16.0809231 32.8068293,15.9526154 C32.9297561,15.8234769 33,15.6453231 33,15.4624615 L33,0.692307692 C33,0.509446154 32.9297561,0.331384615 32.8068293,0.203076923 Z" id="Path"></path>
                <path d="M17.6488468,42.1176087 L14.7449489,42.1176087 L14.7453957,41.2782534 C16.8944553,39.831105 18.3190596,37.319716 18.3190596,34.469469 L18.3190596,32.9367251 L19.2106213,33.2671442 C19.2838979,33.2943159 19.3601234,33.3076699 19.4359915,33.3076699 C19.5724468,33.3076699 19.7076511,33.2643621 19.8221234,33.1807141 C20.0003106,33.0504197 20.1062936,32.8384248 20.1062936,32.6121484 C20.1062936,28.4379995 19.3318851,25.3384775 17.8045149,23.4000128 C16.5497872,21.8074541 14.825017,21 12.6780128,21 C10.1754383,21 7.83022979,22.1157092 6.99693191,22.5592664 L5.42631064,21.7832499 C5.22685532,21.6846713 4.99344255,21.6944086 4.8024766,21.8092161 C4.5336766,21.9706698 2.19409787,23.5669379 2.6807617,29.8559359 L2.6807617,34.469469 C2.6807617,37.320087 4.1057234,39.8316614 6.25522979,41.2788098 L6.25522979,42.1176087 L3.35106383,42.1176087 C1.50324255,42.1176087 0,43.677617 0,45.5952161 L0,49.3044785 C0,49.6886846 0.300076596,50 0.670212766,50 L20.3296085,50 C20.6997447,50 20.9998213,49.6886846 20.9998213,49.3044785 L20.9998213,45.5988328 C20.9998213,45.5975345 21,45.5965144 21,45.5952161 C20.9999106,43.677617 19.4966681,42.1176087 17.6488468,42.1176087 Z M5.24740851,23.2354988 L6.72679149,23.9664455 C6.92526383,24.0646531 7.1579617,24.0550086 7.34865957,23.9415922 C7.37475319,23.9260125 9.98670638,22.391043 12.6781021,22.391043 C16.5155617,22.391043 18.5559574,25.4948308 18.7505872,31.6195002 L7.15090213,27.3203428 C7.07780426,27.2932638 7.00157872,27.2799098 6.92553191,27.2799098 C6.82249787,27.2799098 6.71982128,27.3045777 6.62581277,27.3533569 L3.9629234,28.7350335 C3.86525106,25.2505636 4.79389787,23.7540796 5.24740851,23.2354988 Z M4.0212766,34.469469 L4.0212766,30.2598021 L6.96949787,28.7301185 L16.9787234,32.4398446 L16.9787234,34.469469 C16.9787234,38.1753002 14.0724128,41.1902467 10.5,41.1902467 C6.92758723,41.1902467 4.0212766,38.1753002 4.0212766,34.469469 Z M13.4046128,42.0005756 L13.404166,42.8127592 L13.404166,42.8129447 L13.404166,42.8130374 C13.404166,44.4749628 12.1012723,45.8269638 10.4999106,45.8269638 C8.89854894,45.8269638 7.59565532,44.4749628 7.59565532,42.8130374 L7.59565532,42.0007611 C8.49409787,42.3748589 9.47421702,42.5812897 10.4999106,42.5812897 C11.5258723,42.5812897 12.5060809,42.3747662 13.4046128,42.0005756 Z M19.6593957,45.5952161 L19.6594851,48.608957 L1.34042553,48.608957 L1.34042553,45.5952161 C1.34042553,44.4447308 2.24235319,43.5086516 3.35106383,43.5086516 L6.30875745,43.5086516 C6.63117447,45.6081064 8.38757872,47.2180068 10.5,47.2180068 C12.6124213,47.2180068 14.3688255,45.6081064 14.6912426,43.5086516 L17.6489362,43.5086516 C18.7568426,43.5086516 19.658234,44.4434325 19.6594851,45.5928977 C19.6594851,45.5936396 19.6593957,45.5944742 19.6593957,45.5952161 Z" id="Shape" fill-rule="nonzero"></path>
                <path d="M41.6488468,42.1176087 L38.7449489,42.1176087 L38.7453957,41.2782534 C40.8944553,39.831105 42.3190596,37.319716 42.3190596,34.469469 L42.3190596,32.9367251 L43.2106213,33.2671442 C43.2838979,33.2943159 43.3601234,33.3076699 43.4359915,33.3076699 C43.5724468,33.3076699 43.7076511,33.2643621 43.8221234,33.1807141 C44.0003106,33.0504197 44.1062936,32.8384248 44.1062936,32.6121484 C44.1062936,28.4379995 43.3318851,25.3384775 41.8045149,23.4000128 C40.5497872,21.8074541 38.825017,21 36.6780128,21 C34.1754383,21 31.8302298,22.1157092 30.9969319,22.5592664 L29.4263106,21.7832499 C29.2268553,21.6846713 28.9934426,21.6944086 28.8024766,21.8092161 C28.5336766,21.9706698 26.1940979,23.5669379 26.6807617,29.8559359 L26.6807617,34.469469 C26.6807617,37.320087 28.1057234,39.8316614 30.2552298,41.2788098 L30.2552298,42.1176087 L27.3510638,42.1176087 C25.5032426,42.1176087 24,43.677617 24,45.5952161 L24,49.3044785 C24,49.6886846 24.3000766,50 24.6702128,50 L44.3296085,50 C44.6997447,50 44.9998213,49.6886846 44.9998213,49.3044785 L44.9998213,45.5988328 C44.9998213,45.5975345 45,45.5965144 45,45.5952161 C44.9999106,43.677617 43.4966681,42.1176087 41.6488468,42.1176087 Z M29.2474085,23.2354988 L30.7267915,23.9664455 C30.9252638,24.0646531 31.1579617,24.0550086 31.3486596,23.9415922 C31.3747532,23.9260125 33.9867064,22.391043 36.6781021,22.391043 C40.5155617,22.391043 42.5559574,25.4948308 42.7505872,31.6195002 L31.1509021,27.3203428 C31.0778043,27.2932638 31.0015787,27.2799098 30.9255319,27.2799098 C30.8224979,27.2799098 30.7198213,27.3045777 30.6258128,27.3533569 L27.9629234,28.7350335 C27.8652511,25.2505636 28.7938979,23.7540796 29.2474085,23.2354988 Z M28.0212766,34.469469 L28.0212766,30.2598021 L30.9694979,28.7301185 L40.9787234,32.4398446 L40.9787234,34.469469 C40.9787234,38.1753002 38.0724128,41.1902467 34.5,41.1902467 C30.9275872,41.1902467 28.0212766,38.1753002 28.0212766,34.469469 Z M37.4046128,42.0005756 L37.404166,42.8127592 L37.404166,42.8129447 L37.404166,42.8130374 C37.404166,44.4749628 36.1012723,45.8269638 34.4999106,45.8269638 C32.8985489,45.8269638 31.5956553,44.4749628 31.5956553,42.8130374 L31.5956553,42.0007611 C32.4940979,42.3748589 33.474217,42.5812897 34.4999106,42.5812897 C35.5258723,42.5812897 36.5060809,42.3747662 37.4046128,42.0005756 Z M43.6593957,45.5952161 L43.6594851,48.608957 L25.3404255,48.608957 L25.3404255,45.5952161 C25.3404255,44.4447308 26.2423532,43.5086516 27.3510638,43.5086516 L30.3087574,43.5086516 C30.6311745,45.6081064 32.3875787,47.2180068 34.5,47.2180068 C36.6124213,47.2180068 38.3688255,45.6081064 38.6912426,43.5086516 L41.6489362,43.5086516 C42.7568426,43.5086516 43.658234,44.4434325 43.6594851,45.5928977 C43.6594851,45.5936396 43.6593957,45.5944742 43.6593957,45.5952161 Z" id="Shape-Copy-3" fill-rule="nonzero" transform="translate(34.500000, 35.500000) scale(-1, 1) translate(-34.500000, -35.500000) "></path>
            </g>
        </g>
    </g>
</svg>