<?xml version="1.0" encoding="UTF-8"?>
<svg width="44px" height="47px" viewBox="0 0 44 47" version="1.1" xmlns="http://www.w3.org/2000/svg" xmlns:xlink="http://www.w3.org/1999/xlink">
    <!-- Generator: sketchtool 52 (66869) - http://www.bohemiancoding.com/sketch -->
    <title>1D8BF0D9-304E-49AA-96AF-18C13F6E10B3</title>
    <desc>Created with sketchtool.</desc>
    <g id="Вариант-3" stroke="none" stroke-width="1" fill="none" fill-rule="evenodd">
        <g id="Гитстра_Главная_Вар4" transform="translate(-476.000000, -3173.000000)" fill="#000000" fill-rule="nonzero" stroke="#000000">
            <path d="M518.629038,3183.92913 L498.285376,3174.06552 C498.105014,3173.97816 497.894986,3173.97816 497.714712,3174.06552 L477.370962,3183.92913 C477.144132,3184.03908 477,3184.26979 477,3184.52274 L477,3208.47722 C477,3208.73017 477.144132,3208.96088 477.370962,3209.07083 L497.714624,3218.93443 C497.804761,3218.97812 497.902424,3219 498,3219 C498.097576,3219 498.195151,3218.97812 498.285376,3218.93443 L518.629038,3209.07083 C518.855868,3208.96088 519,3208.73017 519,3208.47722 L519,3184.52283 C519,3184.2697 518.855781,3184.03917 518.629038,3183.92913 Z M498,3175.39118 L516.833999,3184.52274 L511.374408,3187.16983 C511.339841,3187.14337 511.303349,3187.11894 511.263268,3187.09951 L492.557212,3178.03009 L498,3175.39118 Z M491.074939,3178.7754 L509.881547,3187.89369 L506.029721,3189.76128 L487.230902,3180.64668 L491.074939,3178.7754 Z M510.321555,3189.1442 L510.321555,3196.04765 L506.723688,3197.7921 L506.723688,3190.88865 L510.321555,3189.1442 Z M517.687325,3208.0636 L498.656338,3217.29053 L498.656338,3194.80004 L503.19583,3192.59909 C503.522249,3192.4408 503.659117,3192.04678 503.501509,3191.71886 C503.3439,3191.39112 502.951585,3191.25348 502.625079,3191.41186 L498,3193.65439 L496.180107,3192.77197 C495.853601,3192.6135 495.461287,3192.75114 495.303678,3193.07897 C495.146069,3193.4068 495.282938,3193.8009 495.609356,3193.95919 L497.343662,3194.80004 L497.343662,3217.29053 L478.312675,3208.06343 L478.312675,3185.57294 L492.804607,3192.59935 C492.896582,3192.644 492.993808,3192.66509 493.089458,3192.66509 C493.33344,3192.66509 493.567797,3192.52781 493.680949,3192.29235 C493.838558,3191.96452 493.701689,3191.57042 493.375271,3191.41213 L479.166001,3184.52274 L485.686058,3181.36149 L505.401912,3190.92073 C505.4048,3190.92477 505.408038,3190.92838 505.411013,3190.93233 L505.411013,3198.84239 C505.411013,3199.06924 505.527141,3199.28009 505.718442,3199.40076 C505.824681,3199.46773 505.945884,3199.50157 506.067438,3199.50157 C506.164751,3199.50157 506.262327,3199.47986 506.352726,3199.43601 L511.263268,3197.05514 C511.490099,3196.94519 511.63423,3196.71456 511.63423,3196.46153 L511.63423,3188.50787 L517.687325,3185.57303 L517.687325,3208.0636 Z" id="Shape"></path>
        </g>
    </g>
</svg>