<?xml version="1.0" encoding="UTF-8"?>
<svg width="93px" height="94px" viewBox="0 0 93 94" version="1.1" xmlns="http://www.w3.org/2000/svg" xmlns:xlink="http://www.w3.org/1999/xlink">
    <!-- Generator: sketchtool 52 (66869) - http://www.bohemiancoding.com/sketch -->
    <title>4028BFDD-9596-4EEB-8BD1-46F94D1D764A</title>
    <desc>Created with sketchtool.</desc>
    <g id="Вариант-3" stroke="none" stroke-width="1" fill="none" fill-rule="evenodd">
        <g id="Гитстра_Главная_Вар4" transform="translate(-674.000000, -2292.000000)" fill="#FFCC01">
            <g id="004-callcenter" transform="translate(674.000000, 2292.000000)">
                <path d="M87.995856,80.2514125 C86.7132,76.6654165 83.619648,74.0508169 79.918992,73.4244024 L67.834944,71.3756942 C71.46864,69.8414326 74.48928,67.1133521 76.447488,63.6832032 L78.864,63.6832032 C81.325152,63.6832032 83.328,61.6465996 83.328,59.1439678 C85.789152,59.1439678 87.792,57.1073642 87.792,54.6047324 L87.792,48.5524185 C87.792,46.5823903 86.543568,44.918004 84.816,44.2915895 L84.816,39.4739477 C84.816,26.1255694 74.135136,15.2646922 61.008,15.2646922 C47.880864,15.2646922 37.2,26.1255694 37.2,39.4739477 L37.2,44.2915895 C35.472432,44.918004 34.224,46.5823903 34.224,48.5524185 L34.224,54.6047324 C34.224,57.1073642 36.226848,59.1439678 38.688,59.1439678 L43.73976,59.1439678 C45.150384,64.6848612 49.057872,69.211992 54.181056,71.3756942 L42.097008,73.4244024 C38.39784,74.0508169 35.304288,76.6669296 34.020144,80.2514125 L29.123136,93.9447726 L92.891376,93.9447726 L87.995856,80.2514125 Z M72.45816,75.227992 L69.19944,84.0628571 L63.070368,79.9079437 L66.771024,74.264161 L72.45816,75.227992 Z M61.008,77.5989859 L57.613872,72.4227445 C58.714992,72.6391147 59.84736,72.761674 61.008,72.761674 C62.16864,72.761674 63.301008,72.6391147 64.402128,72.4227445 L61.008,77.5989859 Z M78.864,60.6570463 L77.8224,60.6570463 C77.995008,60.1622696 78.145296,59.6569014 78.27624,59.1439678 L80.352,59.1439678 C80.352,59.977674 79.685376,60.6570463 78.864,60.6570463 Z M84.816,48.5524185 L84.816,54.6047324 C84.816,55.4384386 84.149376,56.1178109 83.328,56.1178109 L83.328,51.5785755 L80.352,51.5785755 L80.352,56.1178109 L78.788112,56.1178109 C78.829776,55.6169819 78.864,55.1161529 78.864,54.6047324 L78.864,47.03934 L83.328,47.03934 C84.149376,47.03934 84.816,47.7187123 84.816,48.5524185 Z M38.688,56.1178109 C37.866624,56.1178109 37.2,55.4384386 37.2,54.6047324 L37.2,48.5524185 C37.2,47.7187123 37.866624,47.03934 38.688,47.03934 L43.152,47.03934 L43.152,54.6047324 C43.152,55.1161529 43.186224,55.6169819 43.227888,56.1178109 L38.688,56.1178109 Z M43.152,40.9870262 L43.152,44.0131831 L40.176,44.0131831 L40.176,39.4739477 C40.176,27.7929819 49.52064,18.2908491 61.008,18.2908491 C72.49536,18.2908491 81.84,27.7929819 81.84,39.4739477 L81.84,44.0131831 L78.864,44.0131831 L78.864,40.9870262 L77.376,40.9870262 C72.014736,40.9870262 66.976368,38.8641771 63.18792,35.0103662 L61.008,32.7952193 L58.82808,35.0103662 C55.039632,38.8641771 50.001264,40.9870262 44.64,40.9870262 L43.152,40.9870262 Z M46.128,54.6047324 L46.128,43.9647646 C51.724368,43.6046519 56.935344,41.2170141 60.932112,37.1513722 L61.008,37.0742052 L61.083888,37.1513722 C65.082144,41.2185272 70.291632,43.606165 75.888,43.9662777 L75.888,54.6047324 C75.888,56.75633 75.437136,58.8020121 74.636592,60.6570463 L66.68472,60.6570463 C66.068688,58.9003622 64.431888,57.6308893 62.494512,57.6308893 L59.518512,57.6308893 C57.05736,57.6308893 55.054512,59.667493 55.054512,62.1701247 C55.054512,64.6727565 57.05736,66.7093602 59.518512,66.7093602 L62.494512,66.7093602 C64.431888,66.7093602 66.068688,65.4398873 66.68472,63.6832032 L72.88224,63.6832032 C70.163664,67.3493924 65.85888,69.7355171 61.006512,69.7355171 C52.803168,69.7355171 46.128,62.9478471 46.128,54.6047324 Z M63.984,62.1701247 C63.984,63.003831 63.317376,63.6832032 62.496,63.6832032 L59.52,63.6832032 C58.698624,63.6832032 58.032,63.003831 58.032,62.1701247 C58.032,61.3364185 58.698624,60.6570463 59.52,60.6570463 L62.496,60.6570463 C63.317376,60.6570463 63.984,61.3364185 63.984,62.1701247 Z M55.243488,74.264161 L58.944144,79.9079437 L52.815072,84.0628571 L49.556352,75.227992 L55.243488,74.264161 Z M80.305872,86.0117022 L77.42064,86.7455453 L78.44736,90.9186157 L43.56864,90.9186157 L44.593872,86.7470584 L41.70864,86.0132153 L40.50336,90.9186157 L33.372864,90.9186157 L36.816096,81.2863581 C37.732704,78.7262294 39.943872,76.8575775 42.585072,76.4097062 L46.563984,75.7348732 L51.34344,88.6959034 L61.008,82.1457867 L70.671072,88.6959034 L75.450528,75.7348732 L79.42944,76.4097062 C82.07064,76.8575775 84.281808,78.7262294 85.198416,81.2863581 L88.643136,90.9186157 L81.51264,90.9186157 L80.305872,86.0117022 Z" id="Shape" fill-rule="nonzero"></path>
                <ellipse id="Oval" cx="52.08" cy="48.5524185" rx="1.488" ry="1.51307847"></ellipse>
                <ellipse id="Oval" cx="69.936" cy="48.5524185" rx="1.488" ry="1.51307847"></ellipse>
                <path d="M19.344,18.2908491 C17.702736,18.2908491 16.368,16.9336177 16.368,15.2646922 C16.368,13.5957666 17.702736,12.2385352 19.344,12.2385352 C20.985264,12.2385352 22.32,13.5957666 22.32,15.2646922 L25.296,15.2646922 C25.296,12.4533924 23.392848,10.1035815 20.832,9.42723541 L20.832,6.18622133 L17.856,6.18622133 L17.856,9.42723541 C15.295152,10.1035815 13.392,12.4533924 13.392,15.2646922 C13.392,18.6025433 16.061472,21.317006 19.344,21.317006 C20.985264,21.317006 22.32,22.6742374 22.32,24.343163 C22.32,26.0120885 20.985264,27.3693199 19.344,27.3693199 C17.702736,27.3693199 16.368,26.0120885 16.368,24.343163 L13.392,24.343163 C13.392,27.1544628 15.295152,29.5042736 17.856,30.1806197 L17.856,33.4216338 L20.832,33.4216338 L20.832,30.1806197 C23.392848,29.5042736 25.296,27.1544628 25.296,24.343163 C25.296,21.0053119 22.626528,18.2908491 19.344,18.2908491 Z" id="Path"></path>
                <rect id="Rectangle" x="29.76" y="18.2908491" width="2.976" height="3.02615694"></rect>
                <rect id="Rectangle" x="5.952" y="18.2908491" width="2.976" height="3.02615694"></rect>
                <path d="M19.344,0.133907445 C8.678016,0.133907445 0,8.95818109 0,19.8039276 C0,30.649674 8.678016,39.4739477 19.344,39.4739477 C23.983584,39.4739477 28.471392,37.7777867 31.978608,34.697159 L30.03528,32.4078712 C27.065232,35.0133924 23.270832,36.4477907 19.344,36.4477907 C10.31928,36.4477907 2.976,28.9807485 2.976,19.8039276 C2.976,10.6271066 10.31928,3.16006439 19.344,3.16006439 C28.36872,3.16006439 35.712,10.6271066 35.712,19.8039276 C35.712,23.6410946 34.463568,27.2467606 32.1036,30.2290382 L34.423392,32.1264386 C37.173216,28.6508974 38.688,24.2750744 38.688,19.8039276 C38.688,8.95818109 30.009984,0.133907445 19.344,0.133907445 Z" id="Path"></path>
            </g>
        </g>
    </g>
</svg>