<?xml version="1.0" encoding="UTF-8"?>
<svg width="110px" height="97px" viewBox="0 0 110 97" version="1.1" xmlns="http://www.w3.org/2000/svg" xmlns:xlink="http://www.w3.org/1999/xlink">
    <!-- Generator: sketchtool 52 (66869) - http://www.bohemiancoding.com/sketch -->
    <title>FC550A55-1DFA-4B92-831C-DBC4203E2FEF</title>
    <desc>Created with sketchtool.</desc>
    <g id="Вариант-3" stroke="none" stroke-width="1" fill="none" fill-rule="evenodd">
        <g id="Гитстра_Главная_Вар4" transform="translate(-254.000000, -2289.000000)" fill="#FFCC01" fill-rule="nonzero">
            <g id="boxes" transform="translate(254.000000, 2289.000000)">
                <path d="M109.902223,66.7741021 L107.69751,60.66039 C107.546691,60.2420377 107.243333,59.9247493 106.874234,59.7477791 C106.871011,59.746261 106.867789,59.7443091 106.864566,59.742791 C106.840504,59.7312966 106.815367,59.7224047 106.79066,59.7122116 C106.767457,59.7026691 106.744684,59.6918253 106.721051,59.6833672 C106.715465,59.6811984 106.70945,59.6798972 106.703649,59.6781622 C106.36785,59.5621339 105.992091,59.5558446 105.632659,59.6881384 L100.363648,61.6224484 L89.1551028,30.533821 C89.154888,30.5329535 89.1542434,30.5323028 89.1540286,30.5316522 L84.7467506,18.3068304 C84.5147207,17.6670486 83.9067166,17.2374188 83.2321113,17.2374188 C83.0451984,17.2374188 82.8582854,17.2699501 82.6821146,17.3350126 C81.8463775,17.6408067 81.4145442,18.5777076 81.717472,19.4191834 L85.5762573,30.1180712 L64.8837067,37.7204148 C64.8834919,37.7204148 64.8830622,37.7204148 64.8826325,37.7206316 C64.881988,37.7208485 64.8815583,37.7212823 64.8809138,37.7212823 L52.2657948,42.3559055 L43.8147522,18.9214548 L54.9193139,14.8420321 L57.3075026,21.4640997 C57.537384,22.1038816 58.1453881,22.5356801 58.8199934,22.5356801 C59.0090548,22.5356801 59.1938193,22.5031489 59.3721385,22.4357007 L67.4478514,19.4688478 C67.8517552,19.3213727 68.1740188,19.0220849 68.3566349,18.6295408 C68.491556,18.3376267 68.5355987,18.0194708 68.4906966,17.7086886 C68.4904818,17.7069536 68.4904818,17.7052186 68.4902669,17.7037005 C68.4840365,17.6614098 68.4750131,17.6189023 68.4653452,17.5770454 C68.4625522,17.5651172 68.4610483,17.5538397 68.4582554,17.5419116 C68.44515,17.4892109 68.4292517,17.436944 68.4105604,17.3848939 L66.0232311,10.7626094 L77.1254295,6.68383737 L79.5131885,13.3052544 C79.7452183,13.9450362 80.3532225,14.3766179 81.0278278,14.3766179 C81.2147407,14.3766179 81.4016536,14.3440866 81.5799729,14.2768553 C82.4135616,13.9710613 82.8453949,13.0361122 82.542467,12.1926846 L79.6034223,4.04056233 C79.4003962,3.48080741 78.9096961,3.0819739 78.3380003,2.99088632 C78.2563602,2.9778738 78.1730013,2.97115067 78.0887831,2.97115067 C77.9018701,2.97115067 77.7149572,3.00368195 77.5387864,3.06874452 L63.4141844,8.25878514 C63.4118211,8.25965264 63.409243,8.25986952 63.4068797,8.26073702 C63.4025829,8.26225515 63.3987157,8.2644239 63.3944189,8.26594202 L55.3453465,11.2236861 C55.3406199,11.2254211 55.3358934,11.2258549 55.3311669,11.2275899 C55.3232177,11.2306261 55.3156982,11.2345299 55.307749,11.2375661 L41.1992602,16.4215343 C40.7953564,16.5690094 40.4730927,16.8682972 40.2904766,17.2608413 C40.1078605,17.6555542 40.0885247,18.0977627 40.236766,18.505705 L49.7882317,44.9980962 L58.9733909,70.4748607 C57.8089448,70.1157154 56.5862765,69.9140214 55.3341747,69.8895145 L32.0648037,5.35135609 C30.5454379,1.13768766 25.9134347,-1.04255882 21.7388311,0.490748909 C21.7381865,0.490965784 21.737542,0.491399535 21.7368975,0.49161641 L1.06411242,8.01805366 C1.06389758,8.01827054 1.0634679,8.01827054 1.06303821,8.01848741 C1.061964,8.01892116 1.06088979,8.01913804 1.05960073,8.01957179 C1.02243299,8.03323492 0.987198827,8.04950057 0.951749823,8.06554933 C0.938214749,8.07162184 0.924035147,8.07660997 0.910714915,8.08311622 C0.875910438,8.09981561 0.842824701,8.11933438 0.809738964,8.1384194 C0.796203889,8.14622691 0.781809445,8.15295004 0.768489213,8.16140817 C0.736692531,8.18092694 0.707044273,8.20261446 0.67696633,8.22408511 C0.663646098,8.23362762 0.649466496,8.24230263 0.636575949,8.25206201 C0.608646431,8.27353266 0.582650494,8.2967383 0.556224873,8.31994395 C0.542904641,8.33187209 0.528510197,8.34249897 0.51561965,8.35464398 C0.490697926,8.37763276 0.467924626,8.40300716 0.444721641,8.42751405 C0.432045937,8.44117719 0.418510862,8.45353908 0.406264843,8.46741909 C0.384350913,8.49235974 0.364370565,8.51903539 0.343960532,8.54527729 C0.33235904,8.56002481 0.319683335,8.57433857 0.30872637,8.58973671 C0.29024992,8.61532799 0.273921894,8.64222051 0.25694934,8.66889616 C0.245992375,8.68624618 0.233961198,8.70272869 0.22364876,8.72029559 C0.208180104,8.74675436 0.194859872,8.77451439 0.180895113,8.80184066 C0.171227202,8.82070881 0.16048508,8.8391432 0.151461697,8.85844509 C0.139000835,8.88533762 0.12890324,8.91309765 0.117731432,8.9406408 C0.109352577,8.96167769 0.099899509,8.98163021 0.0925948657,9.00288398 C0.0831417979,9.02977651 0.0758371546,9.05753654 0.067887984,9.08486281 C0.061227868,9.10741783 0.0534935398,9.12975598 0.0476927937,9.15274475 C0.0410326777,9.17963728 0.0365209863,9.20739731 0.031149925,9.23472358 C0.0264233911,9.25857985 0.020622645,9.28243613 0.0169703233,9.30650928 C0.0126734743,9.3342693 0.0111695772,9.36246308 0.00837662535,9.39043998 C0.0060133584,9.41473001 0.00236103675,9.43902003 0.00107198205,9.46352693 C-0.000431915098,9.49215445 0.000642297151,9.52078198 0.000642297151,9.54940951 C0.000642297151,9.57391641 -0.000646757548,9.59842331 0.000427454701,9.62293021 C0.0017165094,9.65199148 0.00579851595,9.68126964 0.0085914678,9.71033092 C0.0109547347,9.73440406 0.0122437894,9.75869409 0.0156812686,9.78298411 C0.0199781176,9.81182851 0.026853076,9.84067292 0.0326538222,9.86951732 C0.0375951985,9.89402422 0.0412475202,9.91874799 0.0472631088,9.94325489 C0.0543529096,9.97209929 0.0644505048,10.0005099 0.0732590452,10.0291375 C0.0805636885,10.0527769 0.0863644347,10.07685 0.0947432902,10.1004894 C0.0949581327,10.1009232 0.0951729751,10.1015738 0.0953878176,10.1020075 C0.09560266,10.1030919 0.0958175025,10.1039594 0.0962471874,10.1050438 L2.30074557,16.2187559 C2.31728844,16.2647335 2.34006173,16.3065904 2.36004208,16.3501823 C2.37572558,16.3840148 2.38840129,16.4200161 2.40623321,16.4523305 C2.43136978,16.4980912 2.46166256,16.5388637 2.49066629,16.5815882 C2.5089279,16.6082638 2.52439656,16.637542 2.54416206,16.6629164 C2.5787517,16.7078095 2.61828271,16.7477146 2.65695435,16.7880534 C2.67500111,16.8069215 2.69089946,16.8283921 2.70980559,16.8463928 C2.75341861,16.887816 2.80132847,16.9238172 2.84880866,16.9598185 C2.86599605,16.9730479 2.88146471,16.9884461 2.89908179,17.0005911 C2.95042914,17.0363755 3.0054288,17.0665211 3.06042847,17.0957993 C3.0767565,17.1044743 3.09179547,17.1157518 3.10833834,17.1239931 C3.16462706,17.1517531 3.22370873,17.1732237 3.28279041,17.1940437 C3.2999778,17.2001163 3.31609099,17.2087913 3.33349322,17.21443 C3.39407879,17.2337319 3.4563831,17.2460938 3.5191171,17.2582388 C3.5363045,17.2614919 3.55306221,17.2675644 3.57046445,17.2701669 C3.65081552,17.2829626 3.7326705,17.289252 3.81517,17.289252 C3.8607166,17.289252 3.90647804,17.2870832 3.95245432,17.2833963 C3.96190739,17.2825288 3.97114561,17.280577 3.98059868,17.2797095 C4.0171219,17.2758057 4.05343027,17.2716851 4.08995349,17.2653957 C4.1067112,17.2623594 4.12346891,17.2578051 4.14022662,17.2543351 C4.16923035,17.2482626 4.19823408,17.2426238 4.22702297,17.2348163 C4.25774544,17.2267919 4.28803823,17.216165 4.31854586,17.2059719 C4.3329403,17.2014175 4.34733474,17.1975138 4.36151435,17.1923087 L4.36323309,17.1916581 C4.36409246,17.1914412 4.36495183,17.1910075 4.3658112,17.1907906 C4.36645572,17.1905737 4.36710025,17.19014 4.36774478,17.1899231 L23.5288984,10.2134814 L46.2512804,73.2315615 C42.1980627,76.8104362 40.5100456,82.6712718 42.4597408,88.0781877 C44.3838698,93.4144022 49.4547962,97 55.0782973,97 C56.64278,97 58.1874972,96.7239179 59.6696953,96.1793442 C63.0399288,94.9409868 65.7306157,92.4523437 67.246544,89.1710218 C68.0522032,87.4266945 68.4705014,85.5700259 68.5053059,83.7018628 L108.93887,68.8591404 C108.93887,68.8591404 108.939085,68.8591404 108.9393,68.8589235 L108.939514,68.8589235 C108.950256,68.8550198 108.960139,68.8498148 108.970667,68.8456941 C109.011701,68.8296454 109.052307,68.8133797 109.091193,68.7942947 C109.107736,68.7862703 109.12299,68.7765109 109.139318,68.7678359 C109.171115,68.7511365 109.202911,68.7348709 109.233204,68.7162196 C109.250391,68.7053759 109.26629,68.6927971 109.283047,68.6817365 C109.310547,68.6630852 109.338692,68.6450846 109.364902,68.625132 C109.373281,68.6186258 109.380586,68.611252 109.38875,68.6047458 C109.421836,68.5780701 109.454707,68.5513945 109.485429,68.5225501 C109.490585,68.5169113 109.495312,68.5114894 109.500468,68.5065013 C109.532909,68.4748375 109.564706,68.4429569 109.594569,68.4091243 C109.600585,68.4024012 109.605526,68.3948106 109.611542,68.3878706 C109.639471,68.3549055 109.666756,68.3215067 109.691893,68.2865898 C109.694686,68.282903 109.696834,68.2787823 109.699412,68.2748786 C109.726697,68.2360579 109.752908,68.1965866 109.776755,68.1555972 C109.781052,68.1482235 109.78449,68.1401991 109.788787,68.1326084 C109.810056,68.0948722 109.830466,68.056919 109.848728,68.0176646 C109.855817,68.0022664 109.861403,67.9860008 109.867849,67.9703858 C109.881598,67.9382883 109.895563,67.9061907 109.90738,67.8732257 C109.915329,67.8504538 109.92113,67.8270313 109.928004,67.8040425 C109.936168,67.7773669 109.945407,67.7509081 109.952067,67.7237987 C109.96195,67.6836768 109.969254,67.6429042 109.976129,67.6021317 C109.977848,67.5912879 109.980856,67.5808779 109.98236,67.570251 C110.020816,67.3108683 109.997399,67.0380393 109.902223,66.7741021 Z M62.9954564,11.8751793 L64.8312852,16.9695779 L59.7842063,18.8238609 L57.9473034,13.7296792 L62.9954564,11.8751793 Z M72.5473517,38.3673535 L74.3844695,43.4613184 L69.3358868,45.3160352 L67.4994135,40.2218534 L72.5473517,38.3673535 Z M53.3687959,45.4129784 L64.4716389,41.3342064 L66.8598276,47.956274 C67.089709,48.5960559 67.6977131,49.0274207 68.3744668,49.0274207 C68.5613798,49.0274207 68.7461443,48.9929375 68.9244635,48.9276581 L77.0001764,45.9608052 C77.8359135,45.6550112 78.2677468,44.720279 77.9626705,43.8766345 L75.5746967,37.2550006 L86.6792584,33.175361 L97.3365182,62.7326326 L65.1877088,74.5343309 C64.5840015,73.8383783 63.9147673,73.206404 63.1885998,72.6505528 L53.3687959,45.4129784 Z M26.0081802,7.57627886 C25.9987272,7.55025383 25.9869108,7.52574694 25.9763836,7.50015566 C25.9658563,7.47521501 25.9564032,7.44940686 25.9448017,7.42489996 C25.9342744,7.40256182 25.9218136,7.38217555 25.9104269,7.3607049 C25.8962473,7.33402925 25.8827122,7.30670297 25.8672436,7.2811117 C25.8565015,7.26354481 25.8442554,7.24749604 25.8328688,7.2303629 C25.8146072,7.20260287 25.7969901,7.1744091 25.7770098,7.1481672 C25.7666973,7.13428718 25.754881,7.1219253 25.7441389,7.10826216 C25.7217952,7.08028526 25.6996665,7.05230835 25.6753893,7.02606645 C25.6657214,7.01543957 25.6547644,7.00589706 25.6446668,6.99548705 C25.6180263,6.96816077 25.5916007,6.9408345 25.5632415,6.9154601 C25.5550775,6.90830322 25.546269,6.90201383 25.538105,6.89507383 C25.506738,6.86796443 25.4749413,6.84128878 25.4416407,6.81699875 C25.4369142,6.81352875 25.4317579,6.81092625 25.4270314,6.80723937 C25.3896488,6.78034684 25.3514069,6.75475557 25.3118759,6.73111617 C25.3088681,6.72938117 25.3056454,6.72786304 25.3026376,6.72634492 C25.082639,6.59730417 24.8334217,6.52118097 24.5756108,6.50751783 C24.5732475,6.50751783 24.5710991,6.5077347 24.5687358,6.50751783 C24.5188924,6.5051322 24.4688341,6.50491533 24.4183461,6.50730095 C24.4091079,6.5077347 24.3998697,6.50946971 24.3906314,6.51012033 C24.3472333,6.51293971 24.3038351,6.51640971 24.2604369,6.52291597 C24.2395972,6.5261691 24.2189723,6.5313741 24.1981326,6.53549473 C24.1663359,6.54135036 24.1343244,6.54677224 24.1025277,6.55479663 C24.0664342,6.56390538 24.0305555,6.57626727 23.9946768,6.58776166 C23.9787785,6.59296666 23.9626653,6.59687042 23.9467669,6.60250917 L23.9446185,6.60337667 C23.943974,6.60359355 23.9431146,6.60381042 23.9422552,6.6040273 C23.9416107,6.60424417 23.9409662,6.60467792 23.9403217,6.6048948 L4.77916807,13.5813365 L3.67681146,10.5242636 L22.8356018,3.54868935 C22.8360315,3.54847248 22.8362463,3.5482556 22.836676,3.5482556 C22.8377502,3.54782185 22.8388244,3.54760498 22.8401135,3.54717123 C25.3451764,2.62696972 28.1241635,3.93516098 29.03574,6.46370904 L52.0311868,70.2417198 C51.5091197,70.364905 50.9924236,70.517802 50.4834618,70.7049653 C49.9706329,70.8934299 49.4786437,71.1135582 49.0034122,71.3564584 L26.0081802,7.57627886 Z M64.3253312,87.7955993 C63.173346,90.2894473 61.1284755,92.1810329 58.5671238,93.1220544 C57.439201,93.5365029 56.265087,93.746655 55.0778676,93.746655 C50.8040068,93.746655 46.949948,91.0214011 45.4877303,86.9651841 C43.5631717,81.6278852 46.2991903,75.7048064 51.5866778,73.7618214 C52.7146007,73.3473728 53.8884998,73.1372208 55.075934,73.1372208 C59.34958,73.1372208 63.2038536,75.8624746 64.6660713,79.9189085 C65.5984875,82.5044948 65.4775312,85.3019681 64.3253312,87.7955993 Z M68.1525346,80.3693584 C68.0300744,79.8436528 67.8801144,79.3218511 67.6942756,78.8065556 C67.5086518,78.291477 67.2927351,77.7930977 67.0508225,77.3120685 L105.220162,63.3006288 L106.322518,66.3577017 L68.1525346,80.3693584 Z" id="Shape"></path>
            </g>
        </g>
    </g>
</svg>