<?xml version="1.0" encoding="UTF-8"?>
<svg width="89px" height="97px" viewBox="0 0 89 97" version="1.1" xmlns="http://www.w3.org/2000/svg" xmlns:xlink="http://www.w3.org/1999/xlink">
    <!-- Generator: sketchtool 52 (66869) - http://www.bohemiancoding.com/sketch -->
    <title>B742615A-3114-490B-8E87-8F5A960280FA</title>
    <desc>Created with sketchtool.</desc>
    <g id="Вариант-3" stroke="none" stroke-width="1" fill="none" fill-rule="evenodd">
        <g id="Гитстра_Главная_Вар4" transform="translate(-681.000000, -1981.000000)" fill="#FFCC01">
            <g id="002-exam" transform="translate(681.000000, 1981.000000)">
                <path d="M66.7408766,59.7000019 C66.7408766,58.8094172 66.0290628,58.0865497 65.1520962,58.0865497 L55.6190418,58.0865497 C54.7420753,58.0865497 54.0302615,58.8094172 54.0302615,59.7000019 C54.0302615,60.5905867 54.7420753,61.3134542 55.6190418,61.3134542 L65.1520962,61.3134542 C66.0290628,61.3136433 66.7408766,60.5907758 66.7408766,59.7000019 Z" id="Path"></path>
                <path d="M60.3853828,17.748731 L60.3853828,9.68109162 C60.3853828,8.79050682 59.673569,8.06763938 58.7966025,8.06763938 C57.919636,8.06763938 57.2078222,8.79050682 57.2078222,9.68109162 L57.2078222,17.748731 C57.2078222,22.197117 60.771546,25.8163704 65.1520962,25.8163704 L79.4516778,25.8163704 L79.4516778,56.4730975 C79.4516778,57.3636823 80.1634916,58.0865497 81.0404582,58.0865497 C81.9174247,58.0865497 82.6292385,57.3636823 82.6292385,56.4730975 L82.6292385,24.202729 C82.6292385,23.3121442 81.9174247,22.5892768 81.0404582,22.5892768 L65.1520962,22.5892768 C62.5239895,22.5892768 60.3853828,20.41746 60.3853828,17.748731 Z" id="Path"></path>
                <path d="M65.15191,38.7243665 L52.4411088,38.7243665 C51.5641423,38.7243665 50.8523285,39.4472339 50.8523285,40.3378187 C50.8523285,41.2284035 51.5641423,41.951271 52.4411088,41.951271 L65.15191,41.951271 C66.0288766,41.951271 66.7406904,41.2284035 66.7406904,40.3378187 C66.7408766,39.4472339 66.0290628,38.7243665 65.15191,38.7243665 Z" id="Path"></path>
                <path d="M47.6747678,40.3378187 C47.6747678,39.4472339 46.962954,38.7243665 46.0859874,38.7243665 L36.5529331,38.7243665 C35.6759665,38.7243665 34.9641527,39.4472339 34.9641527,40.3378187 C34.9641527,41.2284035 35.6759665,41.951271 36.5529331,41.951271 L46.0859874,41.951271 C46.962954,41.95146 47.6747678,41.2285926 47.6747678,40.3378187 Z" id="Path"></path>
                <path d="M36.5527469,48.4054581 C35.6757803,48.4054581 34.9639665,49.1283255 34.9639665,50.0189103 C34.9639665,50.9094951 35.6757803,51.6323626 36.5527469,51.6323626 L39.7304937,51.6323626 C40.6074603,51.6323626 41.3192741,50.9094951 41.3192741,50.0189103 C41.3192741,49.1283255 40.6074603,48.4054581 39.7304937,48.4054581 L36.5527469,48.4054581 Z" id="Path"></path>
                <path d="M36.5527469,32.2703684 L52.4411088,32.2703684 C53.3180753,32.2703684 54.0298891,31.547501 54.0298891,30.6569162 C54.0298891,29.7663314 53.3180753,29.0434639 52.4411088,29.0434639 L36.5527469,29.0434639 C35.6757803,29.0434639 34.9639665,29.7663314 34.9639665,30.6569162 C34.9639665,31.547501 35.6757803,32.2703684 36.5527469,32.2703684 Z" id="Path"></path>
                <path d="M46.0858013,51.6325517 L61.9741632,51.6325517 C62.8511297,51.6325517 63.5629435,50.9096842 63.5629435,50.0190994 C63.5629435,49.1285146 62.8511297,48.4056472 61.9741632,48.4056472 L46.0858013,48.4056472 C45.2088347,48.4056472 44.4970209,49.1285146 44.4970209,50.0190994 C44.4970209,50.9096842 45.2088347,51.6325517 46.0858013,51.6325517 Z" id="Path"></path>
                <path d="M55.6188556,67.7676413 C54.7418891,67.7676413 54.0300753,68.4905088 54.0300753,69.3810936 C54.0300753,70.2716784 54.7418891,70.9945458 55.6188556,70.9945458 L58.7966025,70.9945458 C59.673569,70.9945458 60.3853828,70.2716784 60.3853828,69.3810936 C60.3853828,68.4905088 59.673569,67.7676413 58.7966025,67.7676413 L55.6188556,67.7676413 Z" id="Path"></path>
                <path d="M49.2635481,58.0865497 L36.5527469,58.0865497 C35.6757803,58.0865497 34.9639665,58.8094172 34.9639665,59.7000019 C34.9639665,60.5905867 35.6757803,61.3134542 36.5527469,61.3134542 L49.2635481,61.3134542 C50.1405146,61.3134542 50.8523285,60.5905867 50.8523285,59.7000019 C50.8523285,58.8094172 50.1405146,58.0865497 49.2635481,58.0865497 Z" id="Path"></path>
                <path d="M49.2635481,67.7676413 L36.5527469,67.7676413 C35.6757803,67.7676413 34.9639665,68.4905088 34.9639665,69.3810936 C34.9639665,70.2716784 35.6757803,70.9945458 36.5527469,70.9945458 L49.2635481,70.9945458 C50.1405146,70.9945458 50.8523285,70.2716784 50.8523285,69.3810936 C50.8523285,68.4905088 50.1405146,67.7676413 49.2635481,67.7676413 Z" id="Path"></path>
                <path d="M87.092272,66.4623957 L83.9145251,63.2353021 C81.4724247,60.7552788 77.7513682,60.7601949 75.3126192,63.2353021 L54.4955565,84.3756296 C54.1983933,84.6774074 54.0300753,85.0888538 54.0300753,85.5163723 L54.0300753,95.1974639 C54.0300753,96.0880487 54.7418891,96.8109162 55.6188556,96.8109162 L65.15191,96.8109162 C65.5728912,96.8109162 65.978046,96.6399844 66.2752092,96.3382066 L87.092272,75.1978791 C89.6233724,72.6274737 89.6233724,69.0343138 87.092272,66.4623957 Z M73.2581715,69.8846238 L75.7781004,72.4436842 L61.9741632,86.4619805 L59.4542343,83.9029201 L73.2581715,69.8846238 Z M57.2078222,93.5838226 L57.2078222,86.1842164 L64.4942782,93.5838226 L57.2078222,93.5838226 Z M66.7408766,91.3023372 L64.2209477,88.7432768 L78.0248849,74.7249805 L80.5448138,77.2840409 L66.7408766,91.3023372 Z M84.8456736,72.9163938 L82.7912259,75.0027446 L75.5047699,67.6031384 L77.5592176,65.5167875 C78.814341,64.2436862 80.4064728,64.2372573 81.6679268,65.5167875 L84.8456736,68.7438811 C86.1309603,70.0508285 86.1309603,71.6109591 84.8456736,72.9163938 Z" id="Shape" fill-rule="nonzero"></path>
                <path d="M49.2635481,93.5838226 L7.95358368,93.5838226 C5.32566318,93.5838226 3.18705649,91.4120058 3.18705649,88.7432768 L3.18705649,8.06763938 C3.18705649,5.39891033 5.32566318,3.22709357 7.95358368,3.22709357 L58.1387845,3.22709357 L73.5616653,18.8894737 C74.1828033,19.5204464 75.1871255,19.5204464 75.8082636,18.8894737 C76.4295879,18.2586901 76.4295879,17.2387719 75.8082636,16.6079883 L59.9199017,0.472709552 C59.6227385,0.169419103 59.2175837,0 58.7966025,0 L7.95358368,0 C3.57321967,0 0.0094958159,3.61906433 0.0094958159,8.06763938 L0.0094958159,88.7434659 C0.0094958159,93.1918519 3.57321967,96.8111053 7.95376987,96.8111053 L49.2637343,96.8111053 C50.1407008,96.8111053 50.8525146,96.0882378 50.8525146,95.197653 C50.8525146,94.3070682 50.1405146,93.5838226 49.2635481,93.5838226 Z" id="Path"></path>
                <path d="M49.2635481,77.4487329 L36.5527469,77.4487329 C35.6757803,77.4487329 34.9639665,78.1716004 34.9639665,79.0621852 C34.9639665,79.95277 35.6757803,80.6756374 36.5527469,80.6756374 L49.2635481,80.6756374 C50.1405146,80.6756374 50.8523285,79.95277 50.8523285,79.0621852 C50.8523285,78.1716004 50.1405146,77.4487329 49.2635481,77.4487329 Z" id="Path"></path>
                <path d="M28.608659,30.6567271 C28.608659,29.7661423 27.8968452,29.0432749 27.0198787,29.0432749 L17.4868243,29.0432749 C16.6098577,29.0432749 15.8980439,29.7661423 15.8980439,30.6567271 L15.8980439,40.3378187 C15.8980439,41.2284035 16.6098577,41.951271 17.4868243,41.951271 L27.0198787,41.951271 C27.8968452,41.951271 28.608659,41.2284035 28.608659,40.3378187 L28.608659,30.6567271 Z M25.4309121,38.7243665 L19.0756046,38.7243665 L19.0756046,32.2703684 L25.4309121,32.2703684 L25.4309121,38.7243665 Z" id="Shape" fill-rule="nonzero"></path>
                <path d="M17.4866381,80.6758265 L27.0196925,80.6758265 C27.896659,80.6758265 28.6084728,79.9529591 28.6084728,79.0623743 L28.6084728,69.3812827 C28.6084728,68.4906979 27.896659,67.7678304 27.0196925,67.7678304 L17.4866381,67.7678304 C16.6096715,67.7678304 15.8978577,68.4906979 15.8978577,69.3812827 L15.8978577,79.0623743 C15.8978577,79.9529591 16.6096715,80.6758265 17.4866381,80.6758265 Z M19.0756046,70.9947349 L25.4309121,70.9947349 L25.4309121,77.4487329 L19.0756046,77.4487329 L19.0756046,70.9947349 Z" id="Shape" fill-rule="nonzero"></path>
                <path d="M19.5410858,60.8407446 C19.8397385,61.1440351 20.2448933,61.3134542 20.6643849,61.3134542 C20.7168912,61.3134542 20.7677218,61.3119415 20.8217176,61.3053236 C21.295205,61.2586199 21.7225167,60.997117 21.9863515,60.5953138 L28.341659,50.9142222 C28.8278075,50.1720682 28.6308159,49.169924 27.9015,48.6762261 C27.1690188,48.1808265 26.1855502,48.3825789 25.6977259,49.1232203 L20.4180523,57.1666569 L18.6099372,55.3321657 C17.9887992,54.701193 16.984477,54.701193 16.3633389,55.3321657 C15.7422008,55.9631384 15.7420146,56.9828674 16.3633389,57.6136511 L19.5410858,60.8407446 Z" id="Path"></path>
            </g>
        </g>
    </g>
</svg>