<?xml version="1.0" encoding="UTF-8"?>
<svg width="93px" height="77px" viewBox="0 0 93 77" version="1.1" xmlns="http://www.w3.org/2000/svg" xmlns:xlink="http://www.w3.org/1999/xlink">
    <!-- Generator: sketchtool 52 (66869) - http://www.bohemiancoding.com/sketch -->
    <title>EDD608BF-BEA7-4CE1-894D-00CB78673E78</title>
    <desc>Created with sketchtool.</desc>
    <g id="Вариант-3" stroke="none" stroke-width="1" fill="none" fill-rule="evenodd">
        <g id="Гитстра_Главная_Вар4" transform="translate(-1051.000000, -2296.000000)" fill="#FFCC01">
            <g id="005-bag" transform="translate(1051.000000, 2296.000000)">
                <path d="M93,14.056782 C93,11.0245526 90.5560939,8.55699183 87.5509859,8.55699183 L61.8829859,8.55699183 L61.8829859,6.11146556 C61.8829859,2.74137512 59.166338,0 55.8270704,0 L35.0614366,0 C31.7218779,0 29.0055211,2.74137512 29.0055211,6.11146556 L29.0055211,8.55699183 L5.44930515,8.55699183 C2.44477929,8.55699183 0,11.0245526 0,14.056782 L0,23.4137701 C0,24.4258842 0.813276958,25.2470335 1.81662909,25.2470335 C2.81998122,25.2470335 3.63296712,24.4258842 3.63296712,23.4137701 L3.63296712,14.056782 C3.63296712,13.045843 4.44769953,12.2235186 5.44930515,12.2235186 L87.5509859,12.2235186 C88.5525915,12.2235186 89.3673239,13.045843 89.3673239,14.056782 L89.3673239,30.641646 C89.3673239,33.8671906 88.3336995,36.8524133 86.5860563,39.2826624 C86.5170704,39.3628677 86.4547793,39.450124 86.3983099,39.5414933 C84.072,42.6339501 80.5665258,44.7736388 76.5624319,45.2766111 C76.5004319,43.3090846 74.899493,41.7261323 72.9352864,41.7261323 L62.036676,41.7261323 C60.0337558,41.7261323 58.404,43.3710748 58.404,45.392659 L34.596,45.392659 C34.596,43.3710748 32.965953,41.7261323 30.9633239,41.7261323 L20.0644226,41.7261323 C18.0996338,41.7261323 16.4981126,43.3096722 16.437568,45.2774925 C12.4887793,44.7780457 8.94051645,42.6650921 6.57927701,39.5033004 C6.5388169,39.4392537 6.49515489,39.3781449 6.4474178,39.3196803 C5.6073615,38.1583197 4.92361504,36.8618146 4.43780278,35.45455 C4.10800937,34.4976687 3.07234744,33.9929337 2.12575581,34.3255065 C1.17829108,34.6586669 0.676760545,35.7042733 1.00713615,36.6599793 C1.55815022,38.2579152 2.31292015,39.7415659 3.235061,41.0883094 L3.235061,71.5002099 C3.235061,74.532733 5.6789671,77 8.68436622,77 L84.3159248,77 C87.3210328,77 89.7655211,74.532733 89.7655211,71.5002099 L89.7655211,41.0974169 C91.8036619,38.1251211 93,34.5226411 93,30.641646 L93,14.056782 Z M32.6387793,8.55699183 L32.6387793,6.11146556 C32.6387793,4.76384068 33.7247981,3.66652676 35.0614366,3.66652676 L55.8270704,3.66652676 C57.1634178,3.66652676 58.2503098,4.76384068 58.2503098,6.11146556 L58.2503098,8.55699183 L32.6387793,8.55699183 Z M72.9358685,45.392659 L72.9358685,49.0591858 L62.0372582,49.0591858 L62.036676,45.392659 L72.9358685,45.392659 Z M65.6702253,52.7260063 L69.3029014,52.7260063 L69.3029014,58.2257965 C69.3029014,59.237323 68.4893333,60.0596474 67.4865634,60.0596474 C66.4849577,60.0596474 65.6702253,59.237323 65.6702253,58.2257965 L65.6702253,52.7260063 Z M30.9633239,45.392659 L30.9633239,49.0591858 L20.0644226,49.0591858 L20.0644226,45.392659 L30.9633239,45.392659 Z M23.6970986,52.7260063 L27.3306479,52.7260063 L27.3306479,58.2257965 C27.3306479,59.237323 26.5147512,60.0596474 25.5143098,60.0596474 C24.5115399,60.0596474 23.6970986,59.237323 23.6970986,58.2257965 L23.6970986,52.7260063 Z M84.3159248,73.3334732 L8.68436622,73.3334732 C7.68246946,73.3334732 6.86773705,72.5111488 6.86773705,71.5002099 L6.86773705,45.0189553 C9.57507037,47.2027128 12.8820282,48.604983 16.4317465,48.963997 L16.4317465,49.0591858 C16.4317465,51.0819451 18.0615023,52.7260063 20.0644226,52.7260063 L20.0644226,58.2257965 C20.0644226,61.2589072 22.509493,63.7261742 25.5143098,63.7261742 C28.5182535,63.7261742 30.9633239,61.2589072 30.9633239,58.2257965 L30.9633239,52.7260063 C32.965953,52.7260063 34.596,51.0819451 34.596,49.0591858 L58.4045822,49.0591858 C58.4045822,51.0819451 60.0346291,52.7260063 62.0372582,52.7260063 L62.0372582,58.2257965 C62.0372582,61.2589072 64.4823286,63.7261742 67.4865634,63.7261742 C70.4916713,63.7261742 72.9358685,61.2589072 72.9358685,58.2257965 L72.9358685,52.7260063 C74.9393709,52.7260063 76.5685446,51.0819451 76.5685446,49.0591858 L76.5685446,48.9689916 C80.1642535,48.6085085 83.4554929,47.1900797 86.1322629,45.0280628 L86.1322629,71.5002099 C86.1322629,72.5111488 85.3178216,73.3334732 84.3159248,73.3334732 Z" id="Shape" fill-rule="nonzero"></path>
                <path d="M3,31.5199241 L3,31.4800759 C3,30.6624763 2.32865957,30 1.50012017,30 C0.671580775,30 0,30.6624763 0,31.4800759 L0,31.5199241 C0,32.3375237 0.671580775,33 1.50012017,33 C2.32865957,33 3,32.3375237 3,31.5199241 Z" id="Path"></path>
                <path d="M71.5200411,68 L71.4799589,68 C70.6624239,68 70,68.6720616 70,69.4998798 C70,70.3281788 70.6624239,71 71.4799589,71 L71.5200411,71 C72.3378133,71 73,70.3281788 73,69.4998798 C73,68.6720616 72.3378133,68 71.5200411,68 Z" id="Path"></path>
                <path d="M82.0645762,68 L75.9354238,68 C74.8665985,68 74,68.6720616 74,69.4998798 C74,70.3281788 74.8665985,71 75.9354238,71 L82.0645762,71 C83.1340219,71 84,70.3281788 84,69.4998798 C84,68.6720616 83.1340219,68 82.0645762,68 Z" id="Path"></path>
            </g>
        </g>
    </g>
</svg>