<?xml version="1.0" encoding="UTF-8"?>
<svg width="78px" height="97px" viewBox="0 0 78 97" version="1.1" xmlns="http://www.w3.org/2000/svg" xmlns:xlink="http://www.w3.org/1999/xlink">
    <!-- Generator: sketchtool 52 (66869) - http://www.bohemiancoding.com/sketch -->
    <title>AE9AEF8C-BBCC-4AB7-9011-786418C676BE</title>
    <desc>Created with sketchtool.</desc>
    <g id="Вариант-3" stroke="none" stroke-width="1" fill="none" fill-rule="evenodd">
        <g id="Гитстра_Главная_Вар4" transform="translate(-1061.000000, -1981.000000)" fill="#FFCC01">
            <g id="003-shield" transform="translate(1061.000000, 1981.000000)">
                <path d="M39,7.58001953 C37.9715143,7.58001953 37.1447143,8.42498047 37.1447143,9.47265625 C37.1447143,10.4477715 37.8638,11.2591992 38.8142857,11.3554414 C39.9146429,11.4668398 40.8552857,10.5925137 40.8552857,9.47265625 C40.8552857,8.42346484 40.027,7.58001953 39,7.58001953 Z" id="Path"></path>
                <path d="M76.1428571,11.3671875 C71.0227143,11.3671875 66.8571429,7.11775391 66.8571429,1.89453125 C66.8571429,0.848371094 66.0255143,0 65,0 L13,0 C11.9744857,0 11.1428571,0.848371094 11.1428571,1.89453125 C11.1428571,7.11775391 6.97728571,11.3671875 1.85714286,11.3671875 C0.831628571,11.3671875 0,12.2155586 0,13.2617187 L0,44.1785742 C0,68.2726543 15.3947857,89.8623535 38.4666286,96.9202402 C38.6406429,96.9732871 38.8202286,97 39,97 C39.1797714,97 39.3597286,96.9732871 39.5335571,96.9200508 C62.1056429,90.0127793 78,68.7997129 78,44.1785742 L78,13.2617187 C78,12.2155586 77.1683714,11.3671875 76.1428571,11.3671875 Z M74.2857143,44.1785742 C74.2857143,66.8083711 60.1303857,86.4061602 39,93.1243574 C18.0380571,86.4597754 3.71428571,66.6844687 3.71428571,44.1785742 L3.71428571,15.0213594 C9.39918571,14.1881445 13.9081429,9.58841211 14.7249143,3.7890625 L63.2750857,3.7890625 C64.0918571,9.58841211 68.6008143,14.1881445 74.2857143,15.0213594 L74.2857143,44.1785742 Z" id="Shape" fill-rule="nonzero"></path>
                <path d="M69.4593714,17.5225195 C65.5864857,15.7922441 62.5194143,12.6634258 60.8232857,8.71257031 C60.5272571,8.02333984 59.8598,7.578125 59.1221429,7.578125 L46.4248571,7.578125 C45.3993429,7.578125 44.5677143,8.42649609 44.5677143,9.47265625 C44.5677143,10.5188164 45.3993429,11.3671875 46.4248571,11.3671875 L57.9478714,11.3671875 C59.9099429,15.2852676 63.0163857,18.4540605 66.8571429,20.4558223 L66.8571429,44.1785742 C66.8571429,62.7190254 55.9466143,78.7164473 39,85.1201523 C22.0533857,78.7162578 11.1428571,62.7190254 11.1428571,44.1785742 L11.1428571,20.4558223 C14.9836143,18.4540605 18.0898714,15.2852676 20.0521286,11.3671875 L31.5751429,11.3671875 C32.6006571,11.3671875 33.4322857,10.5188164 33.4322857,9.47265625 C33.4322857,8.42649609 32.6006571,7.578125 31.5751429,7.578125 L18.8778571,7.578125 C18.1402,7.578125 17.4727429,8.0235293 17.1767143,8.71257031 C15.4805857,12.6634258 12.4135143,15.7922441 8.54062857,17.5225195 C7.86518571,17.8245078 7.42857143,18.5055918 7.42857143,19.2579102 L7.42857143,44.1785742 C7.42857143,64.4904121 19.7434714,82.1929121 38.3804571,88.9209609 C38.5808429,88.993332 38.7903286,89.0295176 39,89.0295176 C39.2096714,89.0295176 39.4191571,88.993332 39.6195429,88.9209609 C58.2409286,82.1985957 70.5714286,64.5068945 70.5714286,44.1785742 L70.5714286,19.2579102 C70.5714286,18.5054023 70.1348143,17.8245078 69.4593714,17.5225195 Z" id="Path"></path>
                <path d="M39,27.6601563 C29.7837429,27.6601563 22.2857143,35.3091367 22.2857143,44.7109375 C22.2857143,54.1127383 29.7837429,61.7617188 39,61.7617188 C48.2162571,61.7617188 55.7142857,54.1127383 55.7142857,44.7109375 C55.7142857,35.3091367 48.2162571,27.6601563 39,27.6601563 Z M39,57.9726563 C31.8318,57.9726563 26,52.0234492 26,44.7109375 C26,37.3984258 31.8318,31.4492188 39,31.4492188 C46.1682,31.4492188 52,37.3984258 52,44.7109375 C52,52.0234492 46.1682,57.9726563 39,57.9726563 Z" id="Shape" fill-rule="nonzero"></path>
                <path d="M47.7417571,39.5820625 C47.0163571,38.8424375 45.8407857,38.8424375 45.1152,39.5820625 L37.1428571,47.7150957 L34.7417571,45.2658457 C34.0163571,44.5262207 32.8407857,44.5262207 32.1152,45.2658457 C31.3899857,46.0056602 31.3899857,47.2052773 32.1152,47.9452813 L35.8294857,51.7343438 C36.1923714,52.1039668 36.6674286,52.2890625 37.1428571,52.2890625 C37.6182857,52.2890625 38.0933429,52.1039668 38.4560429,51.7341543 L47.7417571,42.261498 C48.4669714,41.5216836 48.4669714,40.3220664 47.7417571,39.5820625 Z" id="Path"></path>
            </g>
        </g>
    </g>
</svg>