<?xml version="1.0" encoding="UTF-8"?>
<svg width="84px" height="97px" viewBox="0 0 84 97" version="1.1" xmlns="http://www.w3.org/2000/svg" xmlns:xlink="http://www.w3.org/1999/xlink">
    <!-- Generator: sketchtool 52 (66869) - http://www.bohemiancoding.com/sketch -->
    <title>1D091D17-96B2-4C60-AC1D-877436384B4F</title>
    <desc>Created with sketchtool.</desc>
    <g id="Вариант-3" stroke="none" stroke-width="1" fill="none" fill-rule="evenodd">
        <g id="Гитстра_Главная_Вар4" transform="translate(-267.000000, -1981.000000)" fill="#FFCC01">
            <g id="001-hourglass" transform="translate(267.000000, 1981.000000)">
                <circle id="Oval" cx="50.5" cy="84.5" r="1.5"></circle>
                <circle id="Oval" cx="56.5" cy="84.5" r="1.5"></circle>
                <circle id="Oval" cx="63.5" cy="84.5" r="1.5"></circle>
                <circle id="Oval" cx="46.5" cy="53.5" r="1.5"></circle>
                <circle id="Oval" cx="50.5" cy="35.5" r="1.5"></circle>
                <circle id="Oval" cx="56.5" cy="35.5" r="1.5"></circle>
                <circle id="Oval" cx="53.5" cy="32.5" r="1.5"></circle>
                <circle id="Oval" cx="56.5" cy="29.5" r="1.5"></circle>
                <circle id="Oval" cx="50.5" cy="42.5" r="1.5"></circle>
                <circle id="Oval" cx="46.5" cy="38.5" r="1.5"></circle>
                <circle id="Oval" cx="53.5" cy="38.5" r="1.5"></circle>
                <circle id="Oval" cx="46.5" cy="58.5" r="1.5"></circle>
                <circle id="Oval" cx="46.5" cy="63.5" r="1.5"></circle>
                <circle id="Oval" cx="46.5" cy="67.5" r="1.5"></circle>
                <circle id="Oval" cx="46.5" cy="72.5" r="1.5"></circle>
                <circle id="Oval" cx="46.5" cy="77.5" r="1.5"></circle>
                <circle id="Oval" cx="53.5" cy="80.5" r="1.5"></circle>
                <circle id="Oval" cx="59.5" cy="80.5" r="1.5"></circle>
                <path d="M32.4285714,18 L24.5714286,18 C23.704,18 23,18.6705 23,19.5 C23,20.3295 23.704,21 24.5714286,21 L32.4285714,21 C33.296,21 34,20.3295 34,19.5 C34,18.6705 33.296,18 32.4285714,18 Z" id="Path"></path>
                <path d="M32.4166667,29 L16.5833333,29 C15.7093333,29 15,29.6705 15,30.5 C15,31.3295 15.7093333,32 16.5833333,32 L32.4166667,32 C33.2906667,32 34,31.3295 34,30.5 C34,29.6705 33.2906667,29 32.4166667,29 Z" id="Path"></path>
                <path d="M32.4117647,41 L8.58823529,41 C7.71152941,41 7,41.6705 7,42.5 C7,43.3295 7.71152941,44 8.58823529,44 L32.4117647,44 C33.2884706,44 34,43.3295 34,42.5 C34,41.6705 33.2884706,41 32.4117647,41 Z" id="Path"></path>
                <path d="M32.3809524,52 L1.61904762,52 C0.725333333,52 0,52.6705 0,53.5 C0,54.3295 0.725333333,55 1.61904762,55 L32.3809524,55 C33.2746667,55 34,54.3295 34,53.5 C34,52.6705 33.2746667,52 32.3809524,52 Z" id="Path"></path>
                <path d="M32.4,63 L11.6,63 C10.7168,63 10,63.6705 10,64.5 C10,65.3295 10.7168,66 11.6,66 L32.4,66 C33.2832,66 34,65.3295 34,64.5 C34,63.6705 33.2832,63 32.4,63 Z" id="Path"></path>
                <path d="M32.3333333,74 L20.6666667,74 C19.7466667,74 19,74.6705 19,75.5 C19,76.3295 19.7466667,77 20.6666667,77 L32.3333333,77 C33.2533333,77 34,76.3295 34,75.5 C34,74.6705 33.2533333,74 32.3333333,74 Z" id="Path"></path>
                <path d="M79.1111111,87.3 L70.962963,87.3 L70.962963,77.6 C70.962963,65.3278833 64.2048889,54.2553333 53.5031111,48.5 C64.2048889,42.7446667 70.962963,31.6721167 70.962963,19.4 L70.962963,9.7 L79.1111111,9.7 C81.8065185,9.7 84,7.52396667 84,4.85 C84,2.17603333 81.8065185,0 79.1111111,0 L41.6296296,0 C40.7300741,0 40,0.72265 40,1.61666667 C40,2.51068333 40.7300741,3.23333333 41.6296296,3.23333333 L79.1111111,3.23333333 C80.009037,3.23333333 80.7407407,3.9576 80.7407407,4.85 C80.7407407,5.7424 80.009037,6.46666667 79.1111111,6.46666667 L70.962963,6.46666667 L41.6296296,6.46666667 C40.7300741,6.46666667 40,7.18931667 40,8.08333333 C40,8.97735 40.7300741,9.7 41.6296296,9.7 L67.7037037,9.7 L67.7037037,19.4 C67.7037037,31.51045 60.4241481,42.34535 49.1568889,47.0045833 C49.1552593,47.0045833 49.1552593,47.0045833 49.1536296,47.0062 C49.1536296,47.0062 49.152,47.0078167 49.1503704,47.0078167 C49.1324444,47.0159 49.121037,47.03045 49.1031111,47.04015 C48.9287407,47.1193667 48.7641481,47.2228333 48.6256296,47.36025 C48.5115556,47.4734167 48.434963,47.6108333 48.3616296,47.7498667 C48.3355556,47.79675 48.2948148,47.8290833 48.2736296,47.8792 C48.2736296,47.8808167 48.2736296,47.8824333 48.2736296,47.8824333 C48.1921481,48.07805 48.1497778,48.2882167 48.1497778,48.5016167 C48.1497778,48.7150167 48.1921481,48.9251833 48.272,49.1191833 C48.272,49.1191833 48.272,49.1224167 48.2736296,49.1240333 C48.3485926,49.3034833 48.4594074,49.45545 48.5865185,49.59125 C48.6223704,49.6284333 48.6631111,49.6575333 48.7022222,49.6931 C48.8146667,49.7933333 48.9352593,49.8741667 49.0688889,49.9388333 C49.0998519,49.9533833 49.1194074,49.9808667 49.152,49.9938 C60.4208889,54.6514167 67.7037037,65.4879333 67.7037037,77.6 L67.7037037,87.3 C67.7037037,86.4076 66.9736296,85.6833333 66.0740741,85.6833333 C65.1745185,85.6833333 64.4444444,86.4076 64.4444444,87.3 L61.1851852,87.3 C61.1851852,86.4076 60.4551111,85.6833333 59.5555556,85.6833333 C58.656,85.6833333 57.9259259,86.4076 57.9259259,87.3 L54.6666667,87.3 C54.6666667,86.4076 53.9365926,85.6833333 53.037037,85.6833333 C52.1374815,85.6833333 51.4074074,86.4076 51.4074074,87.3 L48.1481481,87.3 C48.1481481,86.4076 47.4180741,85.6833333 46.5185185,85.6833333 C45.618963,85.6833333 44.8888889,86.4076 44.8888889,87.3 L41.6296296,87.3 C40.7300741,87.3 40,88.02265 40,88.9166667 C40,89.8106833 40.7300741,90.5333333 41.6296296,90.5333333 L70.962963,90.5333333 L79.1111111,90.5333333 C80.009037,90.5333333 80.7407407,91.2576 80.7407407,92.15 C80.7407407,93.0424 80.009037,93.7666667 79.1111111,93.7666667 L41.6296296,93.7666667 C40.7300741,93.7666667 40,94.4893167 40,95.3833333 C40,96.27735 40.7300741,97 41.6296296,97 L79.1111111,97 C81.8065185,97 84,94.8239667 84,92.15 C84,89.4760333 81.8065185,87.3 79.1111111,87.3 Z" id="Path"></path>
            </g>
        </g>
    </g>
</svg>