<?xml version="1.0" encoding="UTF-8"?>
<svg width="25px" height="19px" viewBox="0 0 25 19" version="1.1" xmlns="http://www.w3.org/2000/svg" xmlns:xlink="http://www.w3.org/1999/xlink">
    <!-- Generator: sketchtool 52 (66869) - http://www.bohemiancoding.com/sketch -->
    <title>63476B60-8EA7-4B56-B084-F06268448995</title>
    <desc>Created with sketchtool.</desc>
    <g id="Вариант-3" stroke="none" stroke-width="1" fill="none" fill-rule="evenodd">
        <g id="Гитстра_Главная_Вар4" transform="translate(-634.000000, -70.000000)" fill="#FFFFFF" fill-rule="nonzero">
            <g id="шапка" transform="translate(138.000000, 48.000000)">
                <g id="001-envelope-copy" transform="translate(496.000000, 22.000000)">
                    <path d="M2.39950667,5.81275288 C2.7157533,6.02699755 3.66903754,6.66330468 5.25940824,7.72134589 C6.8498278,8.7793871 8.06819825,9.59405163 8.91456845,10.1653864 C9.0075563,10.2280132 9.20511272,10.3641503 9.50733544,10.5739852 C9.80960702,10.783961 10.060767,10.9536397 10.2606201,11.0830685 C10.4606197,11.2124503 10.7023978,11.3575944 10.9861989,11.5182662 C11.2699022,11.6787972 11.5373339,11.7995473 11.7884451,11.8794844 C12.0396051,11.9600783 12.2720992,12 12.4859761,12 L12.5,12 L12.5140728,12 C12.7279497,12 12.9605415,11.9600314 13.2117015,11.8794844 C13.462715,11.7995473 13.7303909,11.6786565 14.01385,11.5182662 C14.2974556,11.3574067 14.5392337,11.2124034 14.7392333,11.0830685 C14.939233,10.9536397 15.1901975,10.783961 15.4925668,10.5739852 C15.7947407,10.3639626 15.9925414,10.2280132 16.0855293,10.1653864 C16.941037,9.59405163 19.1175781,8.14303306 22.6144684,5.81247141 C23.2933823,5.35728946 23.8605935,4.80805001 24.3162486,4.16512836 C24.7722457,3.52248818 25,2.8483235 25,2.14300961 C25,1.55361394 24.7789889,1.04908112 24.3371623,0.629458055 C23.8953845,0.209741166 23.3721508,0 22.767803,0 L2.23205036,0 C1.5159511,0 0.96486496,0.232117935 0.578889658,0.696353806 C0.192963219,1.1606835 0,1.74107216 0,2.43747288 C0,2.99998827 0.255850954,3.60955587 0.767308542,4.26580037 C1.27871727,4.92209178 1.82296248,5.43778953 2.39950667,5.81275288 Z" id="Shape"></path>
                    <path d="M23.6046964,7.18548896 C20.5544273,9.20208024 18.2382869,10.7693045 16.6573988,11.8868276 C16.1272763,12.2682287 15.6972267,12.5659613 15.3669568,12.7793092 C15.0366869,12.9928003 14.5974509,13.2108256 14.0486135,13.4332898 C13.4999717,13.656088 12.9886617,13.767153 12.5142438,13.767153 L12.5000244,13.767153 L12.4860005,13.767153 C12.0116804,13.767153 11.5000772,13.656088 10.9514353,13.4332898 C10.4027934,13.2108256 9.96326425,12.9928003 9.63309208,12.7793092 C9.30301763,12.5659613 8.87282141,12.2682287 8.34274774,11.8868276 C7.08709665,10.9875207 4.77594028,9.42020105 1.40918091,7.18548896 C0.878911785,6.8405049 0.40923368,6.44507145 0,6 L0,16.8194124 C0,17.419364 0.218469705,17.9324013 0.655653435,18.3593835 C1.09273944,18.7865089 1.61831764,19 2.23219259,19 L22.767954,19 C23.3816824,19 23.9072117,18.7865089 24.3443466,18.3593835 C24.781628,17.9322581 25,17.4194117 25,16.8194124 L25,6 C24.6000016,6.43585978 24.1351121,6.83129323 23.6046964,7.18548896 Z" id="Shape"></path>
                </g>
            </g>
        </g>
    </g>
</svg>