<?xml version="1.0" encoding="UTF-8"?>
<svg width="16px" height="16px" viewBox="0 0 16 16" version="1.1" xmlns="http://www.w3.org/2000/svg" xmlns:xlink="http://www.w3.org/1999/xlink">
    <!-- Generator: sketchtool 52 (66869) - http://www.bohemiancoding.com/sketch -->
    <title>8B176406-1C70-4185-A63A-EA99822A8ABD</title>
    <desc>Created with sketchtool.</desc>
    <g id="Вариант-3" stroke="none" stroke-width="1" fill="none" fill-rule="evenodd">
        <g id="Гитстра_Главная_Вар4" transform="translate(-1129.000000, -134.000000)" fill="#FFFFFF">
            <g id="шапка" transform="translate(138.000000, 48.000000)">
                <g id="magnifying-glass-finder" transform="translate(991.000000, 86.000000)">
                    <path d="M6.86983735,2 C6.38956619,2 6,2.41271063 6,2.92082788 C6,3.42986843 6.38956619,3.84165577 6.86983735,3.84165577 C7.93271347,3.84165577 8.88191767,4.47010849 9.3479435,5.48295761 C9.49882772,5.80980226 9.8081549,6 10.1302738,6 C10.2584818,6 10.3884341,5.97014696 10.5108277,5.90674771 C10.9428391,5.68423482 11.1225047,5.1330307 10.911732,4.67538663 C10.1520779,3.02515965 8.60282547,2 6.86983735,2 Z" id="Path"></path>
                    <path d="M15.6936612,14.1913733 L12.9060689,11.3662441 C13.7313595,10.1899568 14.2214456,8.7561442 14.2214456,7.20589277 C14.2214456,3.23252355 11.0315521,0 7.11058303,0 C3.18961398,0 0,3.23252355 0,7.20589277 C0,11.1789787 3.18961398,14.4115022 7.11058303,14.4115022 C8.74858358,14.4115022 10.2543475,13.8420568 11.4576168,12.8955308 L14.214736,15.6894964 C14.418822,15.8963099 14.6869297,16 14.9541986,16 C15.2220266,16 15.4895751,15.8965932 15.6936612,15.6894964 C16.1021129,15.2761527 16.1021129,14.6052837 15.6936612,14.1913733 Z M1.67350594,7.20617607 C1.67350594,4.16771726 4.11303364,1.69587081 7.11114217,1.69587081 C10.1092507,1.69587081 12.5487784,4.16771726 12.5487784,7.20617607 C12.5487784,8.47028826 12.1224342,9.63297684 11.4128856,10.563921 C11.1783263,10.8713082 10.9149714,11.1548977 10.6225412,11.4061902 C9.67423981,12.2215454 8.4494437,12.7164813 7.11114217,12.7164813 C4.11275407,12.716198 1.67350594,10.2443516 1.67350594,7.20617607 Z" id="Shape" fill-rule="nonzero"></path>
                </g>
            </g>
        </g>
    </g>
</svg>