<?xml version="1.0" encoding="UTF-8"?>
<svg width="26px" height="16px" viewBox="0 0 26 16" version="1.1" xmlns="http://www.w3.org/2000/svg" xmlns:xlink="http://www.w3.org/1999/xlink">
    <!-- Generator: sketchtool 52 (66869) - http://www.bohemiancoding.com/sketch -->
    <title>105067BF-70F1-4244-A951-A57A66B5FE4F</title>
    <desc>Created with sketchtool.</desc>
    <g id="Вариант-3" stroke="none" stroke-width="1" fill="none" fill-rule="evenodd">
        <g id="Гитстра_Главная_Вар4" transform="translate(-1190.000000, -134.000000)" fill="#FFFFFF">
            <g id="шапка" transform="translate(138.000000, 48.000000)">
                <g id="Group" transform="translate(1052.000000, 86.000000)">
                    <g id="vk-social-network-logo">
                        <path d="M25.8621098,14.4497562 C25.8306268,14.376574 25.8012774,14.3158701 25.7740143,14.2672354 C25.3229158,13.3909413 24.4608787,12.3153523 23.1884244,11.0401615 L23.1615406,11.0109602 L23.1480749,10.9966408 L23.1344671,10.9819635 L23.1208118,10.9819635 C22.5433071,10.38817 22.1776016,9.9889154 22.0244538,9.78450644 C21.744236,9.39512194 21.6814597,9.00098136 21.8346074,8.60162445 C21.9428066,8.29989493 22.3492409,7.66268311 23.0529621,6.68911958 C23.4231246,6.17316211 23.7162864,5.75963925 23.9327796,5.44809074 C25.4941758,3.20915544 26.171108,1.77844613 25.9634339,1.15540024 L25.8827824,1.00980297 C25.828588,0.922147986 25.6887162,0.841959531 25.4633566,0.768828479 C25.2374755,0.695850848 24.9487705,0.683781668 24.5967203,0.732416374 L20.6981371,0.761464233 C20.6349814,0.737325872 20.5447996,0.739576058 20.4273073,0.768828479 C20.3099572,0.7980809 20.2512584,0.812758251 20.2512584,0.812758251 L20.1834088,0.849323777 L20.1295463,0.893253549 C20.084408,0.922301408 20.0347653,0.973390863 19.9805709,1.04641963 C19.926661,1.1191927 19.8815701,1.2045975 19.8455353,1.30191805 C19.4210836,2.47973712 18.9385021,3.5748107 18.39689,4.58708766 C18.062952,5.19070012 17.7562771,5.71381727 17.4762015,6.15674597 C17.1965053,6.59952126 16.9618526,6.92574712 16.7724803,7.13486101 C16.5828236,7.34417947 16.4116585,7.51186949 16.2579417,7.63854475 C16.104462,7.76527114 15.9873016,7.81881535 15.9061759,7.7992285 C15.8248606,7.77964165 15.7482867,7.76020822 15.6757904,7.7407748 C15.5495265,7.65311982 15.4479653,7.53391109 15.3713914,7.38304633 C15.2944856,7.23218157 15.2427094,7.04229654 15.2156359,6.81354465 C15.1887046,6.58463934 15.1727734,6.38774805 15.1682217,6.22220594 C15.1640018,6.05686839 15.1659458,5.82300245 15.1750967,5.52127293 C15.1844847,5.21938999 15.1887046,5.01513445 15.1887046,4.90804604 C15.1887046,4.53809497 15.19539,4.13659015 15.2088082,3.7034293 C15.2224635,3.27026845 15.233511,2.92706391 15.2427568,2.67422481 C15.2519551,2.42113 15.2562224,2.15335784 15.2562224,1.87106175 C15.2562224,1.58876566 15.2402912,1.36737801 15.2088082,1.20669426 C15.1777045,1.04621507 15.1299584,0.890440816 15.0670398,0.739422636 C15.0037419,0.588557878 14.9110946,0.471855038 14.7895247,0.389007272 C14.6677176,0.306261788 14.5162768,0.240597262 14.3360555,0.191809134 C13.8576939,0.0750551529 13.2485639,0.0118965168 12.5083812,0.00207752236 C10.829872,-0.0173559041 9.75134171,0.0995514984 9.27302751,0.352646308 C9.08351304,0.459581295 8.91201597,0.605689977 8.75867852,0.790512092 C8.59619014,1.00474005 8.57352616,1.12164745 8.69082884,1.14087632 C9.23239356,1.22837787 9.61578458,1.43769633 9.84142865,1.76862713 L9.92274396,1.94398824 C9.98599447,2.07051007 10.0491502,2.29450588 10.1123533,2.61566882 C10.1754615,2.93683177 10.2161903,3.29210549 10.2341129,3.68128542 C10.2791563,4.39198629 10.2791563,5.00035482 10.2341129,5.50644216 C10.1889271,6.01273406 10.1462544,6.40687463 10.1055256,6.68917072 C10.0647968,6.97146681 10.003917,7.2002187 9.92274396,7.37537524 C9.84142865,7.55058292 9.78732907,7.65767133 9.76020817,7.69653818 C9.73313467,7.73540503 9.71056552,7.75990138 9.69264296,7.76951581 C9.57534029,7.8179971 9.45334362,7.842698 9.32707967,7.842698 C9.20062606,7.842698 9.04728861,7.77447645 8.86683026,7.63813562 C8.68641932,7.50179479 8.49918074,7.31451793 8.30511451,7.07599819 C8.11104829,6.83742731 7.89218445,6.50404176 7.64842817,6.07579041 C7.40486155,5.64753906 7.15214399,5.14140058 6.89041774,4.55737497 L6.6738772,4.13382856 C6.53850972,3.86135146 6.35359444,3.46460272 6.11894168,2.94394031 C5.88414668,2.42307334 5.67661483,1.91923619 5.49620389,1.43253113 C5.42408693,1.22812217 5.31574553,1.07250134 5.17136937,0.96541293 L5.10361451,0.921483158 C5.05857104,0.882616305 4.98626442,0.841345844 4.88707397,0.797364931 C4.78774127,0.753435159 4.68409388,0.721932552 4.57570507,0.702550266 L0.866541484,0.731598125 C0.487512559,0.731598125 0.230338068,0.824213744 0.0949231807,1.00918928 L0.0407287773,1.09669084 C0.0136552827,1.14542783 0,1.22326382 0,1.33040336 C0,1.43749177 0.0270734946,1.5689231 0.081267898,1.72454394 C0.62273779,3.09715754 1.21157444,4.42093186 1.84777786,5.69607149 C2.48398128,6.97121111 3.03683057,7.99836998 3.50599384,8.77662757 C3.97525194,9.55544771 4.45356615,10.2904915 4.94093647,10.9814009 C5.42830679,11.6725661 5.75091284,12.1154948 5.90875463,12.3100848 C6.06678608,12.5050327 6.1909164,12.6507834 6.28114557,12.748104 L6.61963538,13.0984682 C6.83622333,13.3321296 7.15427763,13.6119709 7.5739405,13.9379922 C7.9936982,14.2642181 8.45840454,14.585381 8.96829659,14.9019925 C9.47828347,15.2180925 10.0715771,15.4760457 10.7485093,15.6755451 C11.4253466,15.8752491 12.0841192,15.9553865 12.7249218,15.9167242 L14.2817188,15.9167242 C14.5974498,15.8873183 14.8366544,15.7802299 14.9992376,15.5954078 L15.0531001,15.5222256 C15.0893245,15.4641299 15.1232256,15.3738667 15.154519,15.2524078 C15.1861917,15.1307443 15.2019332,14.9967048 15.2019332,14.850903 C15.1926874,14.4324195 15.2222264,14.0552576 15.2897442,13.7194685 C15.3572146,13.3837816 15.4341204,13.1306868 15.5201297,12.9602352 C15.6060916,12.789937 15.703101,12.6462319 15.8110631,12.5297336 C15.9192622,12.4129797 15.9963577,12.3422522 16.0415908,12.3179093 C16.0865394,12.2934129 16.122432,12.2767922 16.1495055,12.2668198 C16.3660934,12.1889838 16.620992,12.2643651 16.9145806,12.4933215 C17.2079321,12.7220734 17.4830766,13.0045229 17.7404407,13.3402098 C17.9976626,13.6762035 18.3067082,14.0531608 18.667625,14.4716443 C19.0287787,14.8902813 19.3445572,15.2014718 19.6151973,15.4061876 L19.8858374,15.5813953 C20.0665802,15.6983027 20.301233,15.8053911 20.5900801,15.9027116 C20.8784058,15.9999811 21.1310285,16.024324 21.3479483,15.9756893 L24.8133082,15.917389 C25.1560653,15.917389 25.4227701,15.8561737 25.6119526,15.7347148 C25.8015145,15.6130513 25.9141232,15.4790118 25.9504424,15.33321 C25.9866668,15.1872547 25.9886108,15.0216615 25.9573175,14.8365325 C25.9252181,14.6518638 25.8935928,14.5227338 25.8621098,14.4497562 Z" id="Path"></path>
                    </g>
                </g>
            </g>
        </g>
    </g>
</svg>